<?xml version="1.0" encoding="utf-8" standalone="no"?>
<!DOCTYPE svg PUBLIC "-//W3C//DTD SVG 1.1//EN"
  "http://www.w3.org/Graphics/SVG/1.1/DTD/svg11.dtd">
<svg xmlns:xlink="http://www.w3.org/1999/xlink" width="1072.333844pt" height="569.17875pt" viewBox="0 0 1072.333844 569.17875" xmlns="http://www.w3.org/2000/svg" version="1.1">
 <metadata>
  <rdf:RDF xmlns:dc="http://purl.org/dc/elements/1.1/" xmlns:cc="http://creativecommons.org/ns#" xmlns:rdf="http://www.w3.org/1999/02/22-rdf-syntax-ns#">
   <cc:Work>
    <dc:type rdf:resource="http://purl.org/dc/dcmitype/StillImage"/>
    <dc:date>2025-07-27T16:15:40.035821</dc:date>
    <dc:format>image/svg+xml</dc:format>
    <dc:creator>
     <cc:Agent>
      <dc:title>Matplotlib v3.10.3, https://matplotlib.org/</dc:title>
     </cc:Agent>
    </dc:creator>
   </cc:Work>
  </rdf:RDF>
 </metadata>
 <defs>
  <style type="text/css">*{stroke-linejoin: round; stroke-linecap: butt}</style>
 </defs>
 <g id="figure_1">
  <g id="patch_1">
   <path d="M 0 569.17875 
L 1072.333844 569.17875 
L 1072.333844 0 
L 0 0 
z
" style="fill: #ffffff"/>
  </g>
  <g id="axes_1">
   <g id="patch_2">
    <path d="M 44.51375 526.86625 
L 872.84375 526.86625 
L 872.84375 38.8475 
L 44.51375 38.8475 
z
" style="fill: #eaeaf2"/>
   </g>
   <g id="matplotlib.axis_1">
    <g id="xtick_1">
     <g id="line2d_1">
      <path d="M 82.165114 526.86625 
L 82.165114 38.8475 
" clip-path="url(#pf8e103e989)" style="fill: none; stroke: #ffffff; stroke-opacity: 0.3; stroke-linecap: round"/>
     </g>
     <g id="text_1">
      <!-- 0 -->
      <g style="fill: #262626" transform="translate(78.828551 542.455625) scale(0.12 -0.12)">
       <defs>
        <path id="ArialMT-30" d="M 266 2259 
Q 266 3072 433 3567 
Q 600 4063 929 4331 
Q 1259 4600 1759 4600 
Q 2128 4600 2406 4451 
Q 2684 4303 2865 4023 
Q 3047 3744 3150 3342 
Q 3253 2941 3253 2259 
Q 3253 1453 3087 958 
Q 2922 463 2592 192 
Q 2263 -78 1759 -78 
Q 1097 -78 719 397 
Q 266 969 266 2259 
z
M 844 2259 
Q 844 1131 1108 757 
Q 1372 384 1759 384 
Q 2147 384 2411 759 
Q 2675 1134 2675 2259 
Q 2675 3391 2411 3762 
Q 2147 4134 1753 4134 
Q 1366 4134 1134 3806 
Q 844 3388 844 2259 
z
" transform="scale(0.015625)"/>
       </defs>
       <use xlink:href="#ArialMT-30"/>
      </g>
     </g>
    </g>
    <g id="xtick_2">
     <g id="line2d_2">
      <path d="M 147.645746 526.86625 
L 147.645746 38.8475 
" clip-path="url(#pf8e103e989)" style="fill: none; stroke: #ffffff; stroke-opacity: 0.3; stroke-linecap: round"/>
     </g>
     <g id="text_2">
      <!-- 2 -->
      <g style="fill: #262626" transform="translate(144.309184 542.455625) scale(0.12 -0.12)">
       <defs>
        <path id="ArialMT-32" d="M 3222 541 
L 3222 0 
L 194 0 
Q 188 203 259 391 
Q 375 700 629 1000 
Q 884 1300 1366 1694 
Q 2113 2306 2375 2664 
Q 2638 3022 2638 3341 
Q 2638 3675 2398 3904 
Q 2159 4134 1775 4134 
Q 1369 4134 1125 3890 
Q 881 3647 878 3216 
L 300 3275 
Q 359 3922 746 4261 
Q 1134 4600 1788 4600 
Q 2447 4600 2831 4234 
Q 3216 3869 3216 3328 
Q 3216 3053 3103 2787 
Q 2991 2522 2730 2228 
Q 2469 1934 1863 1422 
Q 1356 997 1212 845 
Q 1069 694 975 541 
L 3222 541 
z
" transform="scale(0.015625)"/>
       </defs>
       <use xlink:href="#ArialMT-32"/>
      </g>
     </g>
    </g>
    <g id="xtick_3">
     <g id="line2d_3">
      <path d="M 213.126378 526.86625 
L 213.126378 38.8475 
" clip-path="url(#pf8e103e989)" style="fill: none; stroke: #ffffff; stroke-opacity: 0.3; stroke-linecap: round"/>
     </g>
     <g id="text_3">
      <!-- 4 -->
      <g style="fill: #262626" transform="translate(209.789816 542.455625) scale(0.12 -0.12)">
       <defs>
        <path id="ArialMT-34" d="M 2069 0 
L 2069 1097 
L 81 1097 
L 81 1613 
L 2172 4581 
L 2631 4581 
L 2631 1613 
L 3250 1613 
L 3250 1097 
L 2631 1097 
L 2631 0 
L 2069 0 
z
M 2069 1613 
L 2069 3678 
L 634 1613 
L 2069 1613 
z
" transform="scale(0.015625)"/>
       </defs>
       <use xlink:href="#ArialMT-34"/>
      </g>
     </g>
    </g>
    <g id="xtick_4">
     <g id="line2d_4">
      <path d="M 278.607011 526.86625 
L 278.607011 38.8475 
" clip-path="url(#pf8e103e989)" style="fill: none; stroke: #ffffff; stroke-opacity: 0.3; stroke-linecap: round"/>
     </g>
     <g id="text_4">
      <!-- 6 -->
      <g style="fill: #262626" transform="translate(275.270448 542.455625) scale(0.12 -0.12)">
       <defs>
        <path id="ArialMT-36" d="M 3184 3459 
L 2625 3416 
Q 2550 3747 2413 3897 
Q 2184 4138 1850 4138 
Q 1581 4138 1378 3988 
Q 1113 3794 959 3422 
Q 806 3050 800 2363 
Q 1003 2672 1297 2822 
Q 1591 2972 1913 2972 
Q 2475 2972 2870 2558 
Q 3266 2144 3266 1488 
Q 3266 1056 3080 686 
Q 2894 316 2569 119 
Q 2244 -78 1831 -78 
Q 1128 -78 684 439 
Q 241 956 241 2144 
Q 241 3472 731 4075 
Q 1159 4600 1884 4600 
Q 2425 4600 2770 4297 
Q 3116 3994 3184 3459 
z
M 888 1484 
Q 888 1194 1011 928 
Q 1134 663 1356 523 
Q 1578 384 1822 384 
Q 2178 384 2434 671 
Q 2691 959 2691 1453 
Q 2691 1928 2437 2201 
Q 2184 2475 1800 2475 
Q 1419 2475 1153 2201 
Q 888 1928 888 1484 
z
" transform="scale(0.015625)"/>
       </defs>
       <use xlink:href="#ArialMT-36"/>
      </g>
     </g>
    </g>
    <g id="xtick_5">
     <g id="line2d_5">
      <path d="M 344.087643 526.86625 
L 344.087643 38.8475 
" clip-path="url(#pf8e103e989)" style="fill: none; stroke: #ffffff; stroke-opacity: 0.3; stroke-linecap: round"/>
     </g>
     <g id="text_5">
      <!-- 8 -->
      <g style="fill: #262626" transform="translate(340.751081 542.455625) scale(0.12 -0.12)">
       <defs>
        <path id="ArialMT-38" d="M 1131 2484 
Q 781 2613 612 2850 
Q 444 3088 444 3419 
Q 444 3919 803 4259 
Q 1163 4600 1759 4600 
Q 2359 4600 2725 4251 
Q 3091 3903 3091 3403 
Q 3091 3084 2923 2848 
Q 2756 2613 2416 2484 
Q 2838 2347 3058 2040 
Q 3278 1734 3278 1309 
Q 3278 722 2862 322 
Q 2447 -78 1769 -78 
Q 1091 -78 675 323 
Q 259 725 259 1325 
Q 259 1772 486 2073 
Q 713 2375 1131 2484 
z
M 1019 3438 
Q 1019 3113 1228 2906 
Q 1438 2700 1772 2700 
Q 2097 2700 2305 2904 
Q 2513 3109 2513 3406 
Q 2513 3716 2298 3927 
Q 2084 4138 1766 4138 
Q 1444 4138 1231 3931 
Q 1019 3725 1019 3438 
z
M 838 1322 
Q 838 1081 952 856 
Q 1066 631 1291 507 
Q 1516 384 1775 384 
Q 2178 384 2440 643 
Q 2703 903 2703 1303 
Q 2703 1709 2433 1975 
Q 2163 2241 1756 2241 
Q 1359 2241 1098 1978 
Q 838 1716 838 1322 
z
" transform="scale(0.015625)"/>
       </defs>
       <use xlink:href="#ArialMT-38"/>
      </g>
     </g>
    </g>
    <g id="xtick_6">
     <g id="line2d_6">
      <path d="M 409.568276 526.86625 
L 409.568276 38.8475 
" clip-path="url(#pf8e103e989)" style="fill: none; stroke: #ffffff; stroke-opacity: 0.3; stroke-linecap: round"/>
     </g>
     <g id="text_6">
      <!-- 10 -->
      <g style="fill: #262626" transform="translate(402.895151 542.455625) scale(0.12 -0.12)">
       <defs>
        <path id="ArialMT-31" d="M 2384 0 
L 1822 0 
L 1822 3584 
Q 1619 3391 1289 3197 
Q 959 3003 697 2906 
L 697 3450 
Q 1169 3672 1522 3987 
Q 1875 4303 2022 4600 
L 2384 4600 
L 2384 0 
z
" transform="scale(0.015625)"/>
       </defs>
       <use xlink:href="#ArialMT-31"/>
       <use xlink:href="#ArialMT-30" transform="translate(55.615234 0)"/>
      </g>
     </g>
    </g>
    <g id="xtick_7">
     <g id="line2d_7">
      <path d="M 475.048908 526.86625 
L 475.048908 38.8475 
" clip-path="url(#pf8e103e989)" style="fill: none; stroke: #ffffff; stroke-opacity: 0.3; stroke-linecap: round"/>
     </g>
     <g id="text_7">
      <!-- 12 -->
      <g style="fill: #262626" transform="translate(468.375783 542.455625) scale(0.12 -0.12)">
       <use xlink:href="#ArialMT-31"/>
       <use xlink:href="#ArialMT-32" transform="translate(55.615234 0)"/>
      </g>
     </g>
    </g>
    <g id="xtick_8">
     <g id="line2d_8">
      <path d="M 540.529541 526.86625 
L 540.529541 38.8475 
" clip-path="url(#pf8e103e989)" style="fill: none; stroke: #ffffff; stroke-opacity: 0.3; stroke-linecap: round"/>
     </g>
     <g id="text_8">
      <!-- 14 -->
      <g style="fill: #262626" transform="translate(533.856416 542.455625) scale(0.12 -0.12)">
       <use xlink:href="#ArialMT-31"/>
       <use xlink:href="#ArialMT-34" transform="translate(55.615234 0)"/>
      </g>
     </g>
    </g>
    <g id="xtick_9">
     <g id="line2d_9">
      <path d="M 606.010173 526.86625 
L 606.010173 38.8475 
" clip-path="url(#pf8e103e989)" style="fill: none; stroke: #ffffff; stroke-opacity: 0.3; stroke-linecap: round"/>
     </g>
     <g id="text_9">
      <!-- 16 -->
      <g style="fill: #262626" transform="translate(599.337048 542.455625) scale(0.12 -0.12)">
       <use xlink:href="#ArialMT-31"/>
       <use xlink:href="#ArialMT-36" transform="translate(55.615234 0)"/>
      </g>
     </g>
    </g>
    <g id="xtick_10">
     <g id="line2d_10">
      <path d="M 671.490805 526.86625 
L 671.490805 38.8475 
" clip-path="url(#pf8e103e989)" style="fill: none; stroke: #ffffff; stroke-opacity: 0.3; stroke-linecap: round"/>
     </g>
     <g id="text_10">
      <!-- 18 -->
      <g style="fill: #262626" transform="translate(664.81768 542.455625) scale(0.12 -0.12)">
       <use xlink:href="#ArialMT-31"/>
       <use xlink:href="#ArialMT-38" transform="translate(55.615234 0)"/>
      </g>
     </g>
    </g>
    <g id="xtick_11">
     <g id="line2d_11">
      <path d="M 736.971438 526.86625 
L 736.971438 38.8475 
" clip-path="url(#pf8e103e989)" style="fill: none; stroke: #ffffff; stroke-opacity: 0.3; stroke-linecap: round"/>
     </g>
     <g id="text_11">
      <!-- 20 -->
      <g style="fill: #262626" transform="translate(730.298313 542.455625) scale(0.12 -0.12)">
       <use xlink:href="#ArialMT-32"/>
       <use xlink:href="#ArialMT-30" transform="translate(55.615234 0)"/>
      </g>
     </g>
    </g>
    <g id="xtick_12">
     <g id="line2d_12">
      <path d="M 802.45207 526.86625 
L 802.45207 38.8475 
" clip-path="url(#pf8e103e989)" style="fill: none; stroke: #ffffff; stroke-opacity: 0.3; stroke-linecap: round"/>
     </g>
     <g id="text_12">
      <!-- 22 -->
      <g style="fill: #262626" transform="translate(795.778945 542.455625) scale(0.12 -0.12)">
       <use xlink:href="#ArialMT-32"/>
       <use xlink:href="#ArialMT-32" transform="translate(55.615234 0)"/>
      </g>
     </g>
    </g>
    <g id="text_13">
     <!-- Hour of Day -->
     <g style="fill: #262626" transform="translate(421.332656 559.032187) scale(0.14 -0.14)">
      <defs>
       <path id="ArialMT-48" d="M 513 0 
L 513 4581 
L 1119 4581 
L 1119 2700 
L 3500 2700 
L 3500 4581 
L 4106 4581 
L 4106 0 
L 3500 0 
L 3500 2159 
L 1119 2159 
L 1119 0 
L 513 0 
z
" transform="scale(0.015625)"/>
       <path id="ArialMT-6f" d="M 213 1659 
Q 213 2581 725 3025 
Q 1153 3394 1769 3394 
Q 2453 3394 2887 2945 
Q 3322 2497 3322 1706 
Q 3322 1066 3130 698 
Q 2938 331 2570 128 
Q 2203 -75 1769 -75 
Q 1072 -75 642 372 
Q 213 819 213 1659 
z
M 791 1659 
Q 791 1022 1069 705 
Q 1347 388 1769 388 
Q 2188 388 2466 706 
Q 2744 1025 2744 1678 
Q 2744 2294 2464 2611 
Q 2184 2928 1769 2928 
Q 1347 2928 1069 2612 
Q 791 2297 791 1659 
z
" transform="scale(0.015625)"/>
       <path id="ArialMT-75" d="M 2597 0 
L 2597 488 
Q 2209 -75 1544 -75 
Q 1250 -75 995 37 
Q 741 150 617 320 
Q 494 491 444 738 
Q 409 903 409 1263 
L 409 3319 
L 972 3319 
L 972 1478 
Q 972 1038 1006 884 
Q 1059 663 1231 536 
Q 1403 409 1656 409 
Q 1909 409 2131 539 
Q 2353 669 2445 892 
Q 2538 1116 2538 1541 
L 2538 3319 
L 3100 3319 
L 3100 0 
L 2597 0 
z
" transform="scale(0.015625)"/>
       <path id="ArialMT-72" d="M 416 0 
L 416 3319 
L 922 3319 
L 922 2816 
Q 1116 3169 1280 3281 
Q 1444 3394 1641 3394 
Q 1925 3394 2219 3213 
L 2025 2691 
Q 1819 2813 1613 2813 
Q 1428 2813 1281 2702 
Q 1134 2591 1072 2394 
Q 978 2094 978 1738 
L 978 0 
L 416 0 
z
" transform="scale(0.015625)"/>
       <path id="ArialMT-20" transform="scale(0.015625)"/>
       <path id="ArialMT-66" d="M 556 0 
L 556 2881 
L 59 2881 
L 59 3319 
L 556 3319 
L 556 3672 
Q 556 4006 616 4169 
Q 697 4388 901 4523 
Q 1106 4659 1475 4659 
Q 1713 4659 2000 4603 
L 1916 4113 
Q 1741 4144 1584 4144 
Q 1328 4144 1222 4034 
Q 1116 3925 1116 3625 
L 1116 3319 
L 1763 3319 
L 1763 2881 
L 1116 2881 
L 1116 0 
L 556 0 
z
" transform="scale(0.015625)"/>
       <path id="ArialMT-44" d="M 494 0 
L 494 4581 
L 2072 4581 
Q 2606 4581 2888 4516 
Q 3281 4425 3559 4188 
Q 3922 3881 4101 3404 
Q 4281 2928 4281 2316 
Q 4281 1794 4159 1391 
Q 4038 988 3847 723 
Q 3656 459 3429 307 
Q 3203 156 2883 78 
Q 2563 0 2147 0 
L 494 0 
z
M 1100 541 
L 2078 541 
Q 2531 541 2789 625 
Q 3047 709 3200 863 
Q 3416 1078 3536 1442 
Q 3656 1806 3656 2325 
Q 3656 3044 3420 3430 
Q 3184 3816 2847 3947 
Q 2603 4041 2063 4041 
L 1100 4041 
L 1100 541 
z
" transform="scale(0.015625)"/>
       <path id="ArialMT-61" d="M 2588 409 
Q 2275 144 1986 34 
Q 1697 -75 1366 -75 
Q 819 -75 525 192 
Q 231 459 231 875 
Q 231 1119 342 1320 
Q 453 1522 633 1644 
Q 813 1766 1038 1828 
Q 1203 1872 1538 1913 
Q 2219 1994 2541 2106 
Q 2544 2222 2544 2253 
Q 2544 2597 2384 2738 
Q 2169 2928 1744 2928 
Q 1347 2928 1158 2789 
Q 969 2650 878 2297 
L 328 2372 
Q 403 2725 575 2942 
Q 747 3159 1072 3276 
Q 1397 3394 1825 3394 
Q 2250 3394 2515 3294 
Q 2781 3194 2906 3042 
Q 3031 2891 3081 2659 
Q 3109 2516 3109 2141 
L 3109 1391 
Q 3109 606 3145 398 
Q 3181 191 3288 0 
L 2700 0 
Q 2613 175 2588 409 
z
M 2541 1666 
Q 2234 1541 1622 1453 
Q 1275 1403 1131 1340 
Q 988 1278 909 1158 
Q 831 1038 831 891 
Q 831 666 1001 516 
Q 1172 366 1500 366 
Q 1825 366 2078 508 
Q 2331 650 2450 897 
Q 2541 1088 2541 1459 
L 2541 1666 
z
" transform="scale(0.015625)"/>
       <path id="ArialMT-79" d="M 397 -1278 
L 334 -750 
Q 519 -800 656 -800 
Q 844 -800 956 -737 
Q 1069 -675 1141 -563 
Q 1194 -478 1313 -144 
Q 1328 -97 1363 -6 
L 103 3319 
L 709 3319 
L 1400 1397 
Q 1534 1031 1641 628 
Q 1738 1016 1872 1384 
L 2581 3319 
L 3144 3319 
L 1881 -56 
Q 1678 -603 1566 -809 
Q 1416 -1088 1222 -1217 
Q 1028 -1347 759 -1347 
Q 597 -1347 397 -1278 
z
" transform="scale(0.015625)"/>
      </defs>
      <use xlink:href="#ArialMT-48"/>
      <use xlink:href="#ArialMT-6f" transform="translate(72.216797 0)"/>
      <use xlink:href="#ArialMT-75" transform="translate(127.832031 0)"/>
      <use xlink:href="#ArialMT-72" transform="translate(183.447266 0)"/>
      <use xlink:href="#ArialMT-20" transform="translate(216.748047 0)"/>
      <use xlink:href="#ArialMT-6f" transform="translate(244.53125 0)"/>
      <use xlink:href="#ArialMT-66" transform="translate(300.146484 0)"/>
      <use xlink:href="#ArialMT-20" transform="translate(327.929688 0)"/>
      <use xlink:href="#ArialMT-44" transform="translate(355.712891 0)"/>
      <use xlink:href="#ArialMT-61" transform="translate(427.929688 0)"/>
      <use xlink:href="#ArialMT-79" transform="translate(483.544922 0)"/>
     </g>
    </g>
   </g>
   <g id="matplotlib.axis_2">
    <g id="ytick_1">
     <g id="line2d_13">
      <path d="M 44.51375 504.68358 
L 872.84375 504.68358 
" clip-path="url(#pf8e103e989)" style="fill: none; stroke: #ffffff; stroke-opacity: 0.3; stroke-linecap: round"/>
     </g>
     <g id="text_14">
      <!-- 0 -->
      <g style="fill: #262626" transform="translate(30.840625 508.978267) scale(0.12 -0.12)">
       <use xlink:href="#ArialMT-30"/>
      </g>
     </g>
    </g>
    <g id="ytick_2">
     <g id="line2d_14">
      <path d="M 44.51375 415.639593 
L 872.84375 415.639593 
" clip-path="url(#pf8e103e989)" style="fill: none; stroke: #ffffff; stroke-opacity: 0.3; stroke-linecap: round"/>
     </g>
     <g id="text_15">
      <!-- 5 -->
      <g style="fill: #262626" transform="translate(30.840625 419.934281) scale(0.12 -0.12)">
       <defs>
        <path id="ArialMT-35" d="M 266 1200 
L 856 1250 
Q 922 819 1161 601 
Q 1400 384 1738 384 
Q 2144 384 2425 690 
Q 2706 997 2706 1503 
Q 2706 1984 2436 2262 
Q 2166 2541 1728 2541 
Q 1456 2541 1237 2417 
Q 1019 2294 894 2097 
L 366 2166 
L 809 4519 
L 3088 4519 
L 3088 3981 
L 1259 3981 
L 1013 2750 
Q 1425 3038 1878 3038 
Q 2478 3038 2890 2622 
Q 3303 2206 3303 1553 
Q 3303 931 2941 478 
Q 2500 -78 1738 -78 
Q 1113 -78 717 272 
Q 322 622 266 1200 
z
" transform="scale(0.015625)"/>
       </defs>
       <use xlink:href="#ArialMT-35"/>
      </g>
     </g>
    </g>
    <g id="ytick_3">
     <g id="line2d_15">
      <path d="M 44.51375 326.595607 
L 872.84375 326.595607 
" clip-path="url(#pf8e103e989)" style="fill: none; stroke: #ffffff; stroke-opacity: 0.3; stroke-linecap: round"/>
     </g>
     <g id="text_16">
      <!-- 10 -->
      <g style="fill: #262626" transform="translate(24.1675 330.890294) scale(0.12 -0.12)">
       <use xlink:href="#ArialMT-31"/>
       <use xlink:href="#ArialMT-30" transform="translate(55.615234 0)"/>
      </g>
     </g>
    </g>
    <g id="ytick_4">
     <g id="line2d_16">
      <path d="M 44.51375 237.55162 
L 872.84375 237.55162 
" clip-path="url(#pf8e103e989)" style="fill: none; stroke: #ffffff; stroke-opacity: 0.3; stroke-linecap: round"/>
     </g>
     <g id="text_17">
      <!-- 15 -->
      <g style="fill: #262626" transform="translate(24.1675 241.846308) scale(0.12 -0.12)">
       <use xlink:href="#ArialMT-31"/>
       <use xlink:href="#ArialMT-35" transform="translate(55.615234 0)"/>
      </g>
     </g>
    </g>
    <g id="ytick_5">
     <g id="line2d_17">
      <path d="M 44.51375 148.507634 
L 872.84375 148.507634 
" clip-path="url(#pf8e103e989)" style="fill: none; stroke: #ffffff; stroke-opacity: 0.3; stroke-linecap: round"/>
     </g>
     <g id="text_18">
      <!-- 20 -->
      <g style="fill: #262626" transform="translate(24.1675 152.802322) scale(0.12 -0.12)">
       <use xlink:href="#ArialMT-32"/>
       <use xlink:href="#ArialMT-30" transform="translate(55.615234 0)"/>
      </g>
     </g>
    </g>
    <g id="ytick_6">
     <g id="line2d_18">
      <path d="M 44.51375 59.463648 
L 872.84375 59.463648 
" clip-path="url(#pf8e103e989)" style="fill: none; stroke: #ffffff; stroke-opacity: 0.3; stroke-linecap: round"/>
     </g>
     <g id="text_19">
      <!-- 25 -->
      <g style="fill: #262626" transform="translate(24.1675 63.758335) scale(0.12 -0.12)">
       <use xlink:href="#ArialMT-32"/>
       <use xlink:href="#ArialMT-35" transform="translate(55.615234 0)"/>
      </g>
     </g>
    </g>
    <g id="text_20">
     <!-- Average Production -->
     <g style="fill: #262626" transform="translate(17.220937 344.212969) rotate(-90) scale(0.14 -0.14)">
      <defs>
       <path id="ArialMT-41" d="M -9 0 
L 1750 4581 
L 2403 4581 
L 4278 0 
L 3588 0 
L 3053 1388 
L 1138 1388 
L 634 0 
L -9 0 
z
M 1313 1881 
L 2866 1881 
L 2388 3150 
Q 2169 3728 2063 4100 
Q 1975 3659 1816 3225 
L 1313 1881 
z
" transform="scale(0.015625)"/>
       <path id="ArialMT-76" d="M 1344 0 
L 81 3319 
L 675 3319 
L 1388 1331 
Q 1503 1009 1600 663 
Q 1675 925 1809 1294 
L 2547 3319 
L 3125 3319 
L 1869 0 
L 1344 0 
z
" transform="scale(0.015625)"/>
       <path id="ArialMT-65" d="M 2694 1069 
L 3275 997 
Q 3138 488 2766 206 
Q 2394 -75 1816 -75 
Q 1088 -75 661 373 
Q 234 822 234 1631 
Q 234 2469 665 2931 
Q 1097 3394 1784 3394 
Q 2450 3394 2872 2941 
Q 3294 2488 3294 1666 
Q 3294 1616 3291 1516 
L 816 1516 
Q 847 969 1125 678 
Q 1403 388 1819 388 
Q 2128 388 2347 550 
Q 2566 713 2694 1069 
z
M 847 1978 
L 2700 1978 
Q 2663 2397 2488 2606 
Q 2219 2931 1791 2931 
Q 1403 2931 1139 2672 
Q 875 2413 847 1978 
z
" transform="scale(0.015625)"/>
       <path id="ArialMT-67" d="M 319 -275 
L 866 -356 
Q 900 -609 1056 -725 
Q 1266 -881 1628 -881 
Q 2019 -881 2231 -725 
Q 2444 -569 2519 -288 
Q 2563 -116 2559 434 
Q 2191 0 1641 0 
Q 956 0 581 494 
Q 206 988 206 1678 
Q 206 2153 378 2554 
Q 550 2956 876 3175 
Q 1203 3394 1644 3394 
Q 2231 3394 2613 2919 
L 2613 3319 
L 3131 3319 
L 3131 450 
Q 3131 -325 2973 -648 
Q 2816 -972 2473 -1159 
Q 2131 -1347 1631 -1347 
Q 1038 -1347 672 -1080 
Q 306 -813 319 -275 
z
M 784 1719 
Q 784 1066 1043 766 
Q 1303 466 1694 466 
Q 2081 466 2343 764 
Q 2606 1063 2606 1700 
Q 2606 2309 2336 2618 
Q 2066 2928 1684 2928 
Q 1309 2928 1046 2623 
Q 784 2319 784 1719 
z
" transform="scale(0.015625)"/>
       <path id="ArialMT-50" d="M 494 0 
L 494 4581 
L 2222 4581 
Q 2678 4581 2919 4538 
Q 3256 4481 3484 4323 
Q 3713 4166 3852 3881 
Q 3991 3597 3991 3256 
Q 3991 2672 3619 2267 
Q 3247 1863 2275 1863 
L 1100 1863 
L 1100 0 
L 494 0 
z
M 1100 2403 
L 2284 2403 
Q 2872 2403 3119 2622 
Q 3366 2841 3366 3238 
Q 3366 3525 3220 3729 
Q 3075 3934 2838 4000 
Q 2684 4041 2272 4041 
L 1100 4041 
L 1100 2403 
z
" transform="scale(0.015625)"/>
       <path id="ArialMT-64" d="M 2575 0 
L 2575 419 
Q 2259 -75 1647 -75 
Q 1250 -75 917 144 
Q 584 363 401 755 
Q 219 1147 219 1656 
Q 219 2153 384 2558 
Q 550 2963 881 3178 
Q 1213 3394 1622 3394 
Q 1922 3394 2156 3267 
Q 2391 3141 2538 2938 
L 2538 4581 
L 3097 4581 
L 3097 0 
L 2575 0 
z
M 797 1656 
Q 797 1019 1065 703 
Q 1334 388 1700 388 
Q 2069 388 2326 689 
Q 2584 991 2584 1609 
Q 2584 2291 2321 2609 
Q 2059 2928 1675 2928 
Q 1300 2928 1048 2622 
Q 797 2316 797 1656 
z
" transform="scale(0.015625)"/>
       <path id="ArialMT-63" d="M 2588 1216 
L 3141 1144 
Q 3050 572 2676 248 
Q 2303 -75 1759 -75 
Q 1078 -75 664 370 
Q 250 816 250 1647 
Q 250 2184 428 2587 
Q 606 2991 970 3192 
Q 1334 3394 1763 3394 
Q 2303 3394 2647 3120 
Q 2991 2847 3088 2344 
L 2541 2259 
Q 2463 2594 2264 2762 
Q 2066 2931 1784 2931 
Q 1359 2931 1093 2626 
Q 828 2322 828 1663 
Q 828 994 1084 691 
Q 1341 388 1753 388 
Q 2084 388 2306 591 
Q 2528 794 2588 1216 
z
" transform="scale(0.015625)"/>
       <path id="ArialMT-74" d="M 1650 503 
L 1731 6 
Q 1494 -44 1306 -44 
Q 1000 -44 831 53 
Q 663 150 594 308 
Q 525 466 525 972 
L 525 2881 
L 113 2881 
L 113 3319 
L 525 3319 
L 525 4141 
L 1084 4478 
L 1084 3319 
L 1650 3319 
L 1650 2881 
L 1084 2881 
L 1084 941 
Q 1084 700 1114 631 
Q 1144 563 1211 522 
Q 1278 481 1403 481 
Q 1497 481 1650 503 
z
" transform="scale(0.015625)"/>
       <path id="ArialMT-69" d="M 425 3934 
L 425 4581 
L 988 4581 
L 988 3934 
L 425 3934 
z
M 425 0 
L 425 3319 
L 988 3319 
L 988 0 
L 425 0 
z
" transform="scale(0.015625)"/>
       <path id="ArialMT-6e" d="M 422 0 
L 422 3319 
L 928 3319 
L 928 2847 
Q 1294 3394 1984 3394 
Q 2284 3394 2536 3286 
Q 2788 3178 2913 3003 
Q 3038 2828 3088 2588 
Q 3119 2431 3119 2041 
L 3119 0 
L 2556 0 
L 2556 2019 
Q 2556 2363 2490 2533 
Q 2425 2703 2258 2804 
Q 2091 2906 1866 2906 
Q 1506 2906 1245 2678 
Q 984 2450 984 1813 
L 984 0 
L 422 0 
z
" transform="scale(0.015625)"/>
      </defs>
      <use xlink:href="#ArialMT-41"/>
      <use xlink:href="#ArialMT-76" transform="translate(64.949219 0)"/>
      <use xlink:href="#ArialMT-65" transform="translate(114.949219 0)"/>
      <use xlink:href="#ArialMT-72" transform="translate(170.564453 0)"/>
      <use xlink:href="#ArialMT-61" transform="translate(203.865234 0)"/>
      <use xlink:href="#ArialMT-67" transform="translate(259.480469 0)"/>
      <use xlink:href="#ArialMT-65" transform="translate(315.095703 0)"/>
      <use xlink:href="#ArialMT-20" transform="translate(370.710938 0)"/>
      <use xlink:href="#ArialMT-50" transform="translate(398.494141 0)"/>
      <use xlink:href="#ArialMT-72" transform="translate(465.193359 0)"/>
      <use xlink:href="#ArialMT-6f" transform="translate(498.494141 0)"/>
      <use xlink:href="#ArialMT-64" transform="translate(554.109375 0)"/>
      <use xlink:href="#ArialMT-75" transform="translate(609.724609 0)"/>
      <use xlink:href="#ArialMT-63" transform="translate(665.339844 0)"/>
      <use xlink:href="#ArialMT-74" transform="translate(715.339844 0)"/>
      <use xlink:href="#ArialMT-69" transform="translate(743.123047 0)"/>
      <use xlink:href="#ArialMT-6f" transform="translate(765.339844 0)"/>
      <use xlink:href="#ArialMT-6e" transform="translate(820.955078 0)"/>
     </g>
    </g>
   </g>
   <g id="patch_3">
    <path d="M 278.607011 526.86625 
L 671.490805 526.86625 
L 671.490805 38.8475 
L 278.607011 38.8475 
z
" clip-path="url(#pf8e103e989)" style="fill: #ffff00; opacity: 0.1; stroke: #ffff00; stroke-width: 0.3; stroke-linejoin: miter"/>
   </g>
   <g id="line2d_19">
    <path d="M 82.165114 504.68358 
L 114.90543 504.68358 
L 147.645746 504.609107 
L 180.386062 504.009643 
L 213.126378 502.685392 
L 245.866695 501.143133 
L 278.607011 497.498853 
L 311.347327 491.815476 
L 344.087643 482.389775 
L 376.827959 471.029448 
L 409.568276 460.329737 
L 442.308592 453.746661 
L 475.048908 452.441179 
L 507.789224 456.333941 
L 540.529541 466.236098 
L 573.269857 479.087238 
L 606.010173 489.347208 
L 638.750489 496.171547 
L 671.490805 501.141119 
L 704.231122 503.600975 
L 736.971438 504.498161 
L 769.711754 504.670603 
L 802.45207 504.68358 
L 835.192386 504.68358 
" clip-path="url(#pf8e103e989)" style="fill: none; stroke: #406080; stroke-opacity: 0.8; stroke-width: 2.5; stroke-linecap: round"/>
    <defs>
     <path id="ma8b84cbde5" d="M 0 2 
C 0.530406 2 1.03916 1.789267 1.414214 1.414214 
C 1.789267 1.03916 2 0.530406 2 0 
C 2 -0.530406 1.789267 -1.03916 1.414214 -1.414214 
C 1.03916 -1.789267 0.530406 -2 0 -2 
C -0.530406 -2 -1.03916 -1.789267 -1.414214 -1.414214 
C -1.789267 -1.03916 -2 -0.530406 -2 0 
C -2 0.530406 -1.789267 1.03916 -1.414214 1.414214 
C -1.03916 1.789267 -0.530406 2 0 2 
z
"/>
    </defs>
    <g clip-path="url(#pf8e103e989)">
     <use xlink:href="#ma8b84cbde5" x="82.165114" y="504.68358" style="fill: #406080; fill-opacity: 0.8"/>
     <use xlink:href="#ma8b84cbde5" x="114.90543" y="504.68358" style="fill: #406080; fill-opacity: 0.8"/>
     <use xlink:href="#ma8b84cbde5" x="147.645746" y="504.609107" style="fill: #406080; fill-opacity: 0.8"/>
     <use xlink:href="#ma8b84cbde5" x="180.386062" y="504.009643" style="fill: #406080; fill-opacity: 0.8"/>
     <use xlink:href="#ma8b84cbde5" x="213.126378" y="502.685392" style="fill: #406080; fill-opacity: 0.8"/>
     <use xlink:href="#ma8b84cbde5" x="245.866695" y="501.143133" style="fill: #406080; fill-opacity: 0.8"/>
     <use xlink:href="#ma8b84cbde5" x="278.607011" y="497.498853" style="fill: #406080; fill-opacity: 0.8"/>
     <use xlink:href="#ma8b84cbde5" x="311.347327" y="491.815476" style="fill: #406080; fill-opacity: 0.8"/>
     <use xlink:href="#ma8b84cbde5" x="344.087643" y="482.389775" style="fill: #406080; fill-opacity: 0.8"/>
     <use xlink:href="#ma8b84cbde5" x="376.827959" y="471.029448" style="fill: #406080; fill-opacity: 0.8"/>
     <use xlink:href="#ma8b84cbde5" x="409.568276" y="460.329737" style="fill: #406080; fill-opacity: 0.8"/>
     <use xlink:href="#ma8b84cbde5" x="442.308592" y="453.746661" style="fill: #406080; fill-opacity: 0.8"/>
     <use xlink:href="#ma8b84cbde5" x="475.048908" y="452.441179" style="fill: #406080; fill-opacity: 0.8"/>
     <use xlink:href="#ma8b84cbde5" x="507.789224" y="456.333941" style="fill: #406080; fill-opacity: 0.8"/>
     <use xlink:href="#ma8b84cbde5" x="540.529541" y="466.236098" style="fill: #406080; fill-opacity: 0.8"/>
     <use xlink:href="#ma8b84cbde5" x="573.269857" y="479.087238" style="fill: #406080; fill-opacity: 0.8"/>
     <use xlink:href="#ma8b84cbde5" x="606.010173" y="489.347208" style="fill: #406080; fill-opacity: 0.8"/>
     <use xlink:href="#ma8b84cbde5" x="638.750489" y="496.171547" style="fill: #406080; fill-opacity: 0.8"/>
     <use xlink:href="#ma8b84cbde5" x="671.490805" y="501.141119" style="fill: #406080; fill-opacity: 0.8"/>
     <use xlink:href="#ma8b84cbde5" x="704.231122" y="503.600975" style="fill: #406080; fill-opacity: 0.8"/>
     <use xlink:href="#ma8b84cbde5" x="736.971438" y="504.498161" style="fill: #406080; fill-opacity: 0.8"/>
     <use xlink:href="#ma8b84cbde5" x="769.711754" y="504.670603" style="fill: #406080; fill-opacity: 0.8"/>
     <use xlink:href="#ma8b84cbde5" x="802.45207" y="504.68358" style="fill: #406080; fill-opacity: 0.8"/>
     <use xlink:href="#ma8b84cbde5" x="835.192386" y="504.68358" style="fill: #406080; fill-opacity: 0.8"/>
    </g>
   </g>
   <g id="line2d_20">
    <path d="M 82.165114 504.660984 
L 114.90543 504.660081 
L 147.645746 504.606388 
L 180.386062 503.914543 
L 213.126378 501.540354 
L 245.866695 496.962606 
L 278.607011 490.708367 
L 311.347327 485.853964 
L 344.087643 479.775827 
L 376.827959 477.268485 
L 409.568276 476.478097 
L 442.308592 476.44021 
L 475.048908 476.650879 
L 507.789224 477.345382 
L 540.529541 480.864037 
L 573.269857 488.735639 
L 606.010173 494.643413 
L 638.750489 499.552149 
L 671.490805 503.439784 
L 704.231122 504.656443 
L 736.971438 504.661578 
L 769.711754 504.664673 
L 802.45207 504.663557 
L 835.192386 504.661801 
" clip-path="url(#pf8e103e989)" style="fill: none; stroke: #4c7399; stroke-opacity: 0.8; stroke-width: 2.5; stroke-linecap: round"/>
    <defs>
     <path id="m96aea44d55" d="M 0 2 
C 0.530406 2 1.03916 1.789267 1.414214 1.414214 
C 1.789267 1.03916 2 0.530406 2 0 
C 2 -0.530406 1.789267 -1.03916 1.414214 -1.414214 
C 1.03916 -1.789267 0.530406 -2 0 -2 
C -0.530406 -2 -1.03916 -1.789267 -1.414214 -1.414214 
C -1.789267 -1.03916 -2 -0.530406 -2 0 
C -2 0.530406 -1.789267 1.03916 -1.414214 1.414214 
C -1.03916 1.789267 -0.530406 2 0 2 
z
"/>
    </defs>
    <g clip-path="url(#pf8e103e989)">
     <use xlink:href="#m96aea44d55" x="82.165114" y="504.660984" style="fill: #4c7399; fill-opacity: 0.8"/>
     <use xlink:href="#m96aea44d55" x="114.90543" y="504.660081" style="fill: #4c7399; fill-opacity: 0.8"/>
     <use xlink:href="#m96aea44d55" x="147.645746" y="504.606388" style="fill: #4c7399; fill-opacity: 0.8"/>
     <use xlink:href="#m96aea44d55" x="180.386062" y="503.914543" style="fill: #4c7399; fill-opacity: 0.8"/>
     <use xlink:href="#m96aea44d55" x="213.126378" y="501.540354" style="fill: #4c7399; fill-opacity: 0.8"/>
     <use xlink:href="#m96aea44d55" x="245.866695" y="496.962606" style="fill: #4c7399; fill-opacity: 0.8"/>
     <use xlink:href="#m96aea44d55" x="278.607011" y="490.708367" style="fill: #4c7399; fill-opacity: 0.8"/>
     <use xlink:href="#m96aea44d55" x="311.347327" y="485.853964" style="fill: #4c7399; fill-opacity: 0.8"/>
     <use xlink:href="#m96aea44d55" x="344.087643" y="479.775827" style="fill: #4c7399; fill-opacity: 0.8"/>
     <use xlink:href="#m96aea44d55" x="376.827959" y="477.268485" style="fill: #4c7399; fill-opacity: 0.8"/>
     <use xlink:href="#m96aea44d55" x="409.568276" y="476.478097" style="fill: #4c7399; fill-opacity: 0.8"/>
     <use xlink:href="#m96aea44d55" x="442.308592" y="476.44021" style="fill: #4c7399; fill-opacity: 0.8"/>
     <use xlink:href="#m96aea44d55" x="475.048908" y="476.650879" style="fill: #4c7399; fill-opacity: 0.8"/>
     <use xlink:href="#m96aea44d55" x="507.789224" y="477.345382" style="fill: #4c7399; fill-opacity: 0.8"/>
     <use xlink:href="#m96aea44d55" x="540.529541" y="480.864037" style="fill: #4c7399; fill-opacity: 0.8"/>
     <use xlink:href="#m96aea44d55" x="573.269857" y="488.735639" style="fill: #4c7399; fill-opacity: 0.8"/>
     <use xlink:href="#m96aea44d55" x="606.010173" y="494.643413" style="fill: #4c7399; fill-opacity: 0.8"/>
     <use xlink:href="#m96aea44d55" x="638.750489" y="499.552149" style="fill: #4c7399; fill-opacity: 0.8"/>
     <use xlink:href="#m96aea44d55" x="671.490805" y="503.439784" style="fill: #4c7399; fill-opacity: 0.8"/>
     <use xlink:href="#m96aea44d55" x="704.231122" y="504.656443" style="fill: #4c7399; fill-opacity: 0.8"/>
     <use xlink:href="#m96aea44d55" x="736.971438" y="504.661578" style="fill: #4c7399; fill-opacity: 0.8"/>
     <use xlink:href="#m96aea44d55" x="769.711754" y="504.664673" style="fill: #4c7399; fill-opacity: 0.8"/>
     <use xlink:href="#m96aea44d55" x="802.45207" y="504.663557" style="fill: #4c7399; fill-opacity: 0.8"/>
     <use xlink:href="#m96aea44d55" x="835.192386" y="504.661801" style="fill: #4c7399; fill-opacity: 0.8"/>
    </g>
   </g>
   <g id="line2d_21">
    <path d="M 82.165114 504.680119 
L 114.90543 504.680005 
L 147.645746 504.647789 
L 180.386062 503.771594 
L 213.126378 500.823437 
L 245.866695 490.22951 
L 278.607011 474.240046 
L 311.347327 457.805579 
L 344.087643 436.154107 
L 376.827959 423.96973 
L 409.568276 418.543651 
L 442.308592 417.533668 
L 475.048908 422.352377 
L 507.789224 432.313315 
L 540.529541 451.106178 
L 573.269857 471.183458 
L 606.010173 485.942713 
L 638.750489 496.304252 
L 671.490805 503.731654 
L 704.231122 504.680108 
L 736.971438 504.679292 
L 769.711754 504.679125 
L 802.45207 504.679389 
L 835.192386 504.679882 
" clip-path="url(#pf8e103e989)" style="fill: none; stroke: #5986b2; stroke-opacity: 0.8; stroke-width: 2.5; stroke-linecap: round"/>
    <defs>
     <path id="m7eacf01ba3" d="M 0 2 
C 0.530406 2 1.03916 1.789267 1.414214 1.414214 
C 1.789267 1.03916 2 0.530406 2 0 
C 2 -0.530406 1.789267 -1.03916 1.414214 -1.414214 
C 1.03916 -1.789267 0.530406 -2 0 -2 
C -0.530406 -2 -1.03916 -1.789267 -1.414214 -1.414214 
C -1.789267 -1.03916 -2 -0.530406 -2 0 
C -2 0.530406 -1.789267 1.03916 -1.414214 1.414214 
C -1.03916 1.789267 -0.530406 2 0 2 
z
"/>
    </defs>
    <g clip-path="url(#pf8e103e989)">
     <use xlink:href="#m7eacf01ba3" x="82.165114" y="504.680119" style="fill: #5986b2; fill-opacity: 0.8"/>
     <use xlink:href="#m7eacf01ba3" x="114.90543" y="504.680005" style="fill: #5986b2; fill-opacity: 0.8"/>
     <use xlink:href="#m7eacf01ba3" x="147.645746" y="504.647789" style="fill: #5986b2; fill-opacity: 0.8"/>
     <use xlink:href="#m7eacf01ba3" x="180.386062" y="503.771594" style="fill: #5986b2; fill-opacity: 0.8"/>
     <use xlink:href="#m7eacf01ba3" x="213.126378" y="500.823437" style="fill: #5986b2; fill-opacity: 0.8"/>
     <use xlink:href="#m7eacf01ba3" x="245.866695" y="490.22951" style="fill: #5986b2; fill-opacity: 0.8"/>
     <use xlink:href="#m7eacf01ba3" x="278.607011" y="474.240046" style="fill: #5986b2; fill-opacity: 0.8"/>
     <use xlink:href="#m7eacf01ba3" x="311.347327" y="457.805579" style="fill: #5986b2; fill-opacity: 0.8"/>
     <use xlink:href="#m7eacf01ba3" x="344.087643" y="436.154107" style="fill: #5986b2; fill-opacity: 0.8"/>
     <use xlink:href="#m7eacf01ba3" x="376.827959" y="423.96973" style="fill: #5986b2; fill-opacity: 0.8"/>
     <use xlink:href="#m7eacf01ba3" x="409.568276" y="418.543651" style="fill: #5986b2; fill-opacity: 0.8"/>
     <use xlink:href="#m7eacf01ba3" x="442.308592" y="417.533668" style="fill: #5986b2; fill-opacity: 0.8"/>
     <use xlink:href="#m7eacf01ba3" x="475.048908" y="422.352377" style="fill: #5986b2; fill-opacity: 0.8"/>
     <use xlink:href="#m7eacf01ba3" x="507.789224" y="432.313315" style="fill: #5986b2; fill-opacity: 0.8"/>
     <use xlink:href="#m7eacf01ba3" x="540.529541" y="451.106178" style="fill: #5986b2; fill-opacity: 0.8"/>
     <use xlink:href="#m7eacf01ba3" x="573.269857" y="471.183458" style="fill: #5986b2; fill-opacity: 0.8"/>
     <use xlink:href="#m7eacf01ba3" x="606.010173" y="485.942713" style="fill: #5986b2; fill-opacity: 0.8"/>
     <use xlink:href="#m7eacf01ba3" x="638.750489" y="496.304252" style="fill: #5986b2; fill-opacity: 0.8"/>
     <use xlink:href="#m7eacf01ba3" x="671.490805" y="503.731654" style="fill: #5986b2; fill-opacity: 0.8"/>
     <use xlink:href="#m7eacf01ba3" x="704.231122" y="504.680108" style="fill: #5986b2; fill-opacity: 0.8"/>
     <use xlink:href="#m7eacf01ba3" x="736.971438" y="504.679292" style="fill: #5986b2; fill-opacity: 0.8"/>
     <use xlink:href="#m7eacf01ba3" x="769.711754" y="504.679125" style="fill: #5986b2; fill-opacity: 0.8"/>
     <use xlink:href="#m7eacf01ba3" x="802.45207" y="504.679389" style="fill: #5986b2; fill-opacity: 0.8"/>
     <use xlink:href="#m7eacf01ba3" x="835.192386" y="504.679882" style="fill: #5986b2; fill-opacity: 0.8"/>
    </g>
   </g>
   <g id="line2d_22">
    <path d="M 82.165114 504.564047 
L 114.90543 504.563342 
L 147.645746 504.335439 
L 180.386062 501.970683 
L 213.126378 492.6339 
L 245.866695 469.581868 
L 278.607011 427.419178 
L 311.347327 347.152185 
L 344.087643 218.137199 
L 376.827959 119.551551 
L 409.568276 73.170681 
L 442.308592 61.03017 
L 475.048908 69.999929 
L 507.789224 94.347724 
L 540.529541 169.116265 
L 573.269857 301.970339 
L 606.010173 409.148258 
L 638.750489 471.346585 
L 671.490805 498.27607 
L 704.231122 504.493956 
L 736.971438 504.569358 
L 769.711754 504.572514 
L 802.45207 504.562791 
L 835.192386 504.564082 
" clip-path="url(#pf8e103e989)" style="fill: none; stroke: #6699cc; stroke-opacity: 0.8; stroke-width: 2.5; stroke-linecap: round"/>
    <defs>
     <path id="mf06880b307" d="M 0 2 
C 0.530406 2 1.03916 1.789267 1.414214 1.414214 
C 1.789267 1.03916 2 0.530406 2 0 
C 2 -0.530406 1.789267 -1.03916 1.414214 -1.414214 
C 1.03916 -1.789267 0.530406 -2 0 -2 
C -0.530406 -2 -1.03916 -1.789267 -1.414214 -1.414214 
C -1.789267 -1.03916 -2 -0.530406 -2 0 
C -2 0.530406 -1.789267 1.03916 -1.414214 1.414214 
C -1.03916 1.789267 -0.530406 2 0 2 
z
"/>
    </defs>
    <g clip-path="url(#pf8e103e989)">
     <use xlink:href="#mf06880b307" x="82.165114" y="504.564047" style="fill: #6699cc; fill-opacity: 0.8"/>
     <use xlink:href="#mf06880b307" x="114.90543" y="504.563342" style="fill: #6699cc; fill-opacity: 0.8"/>
     <use xlink:href="#mf06880b307" x="147.645746" y="504.335439" style="fill: #6699cc; fill-opacity: 0.8"/>
     <use xlink:href="#mf06880b307" x="180.386062" y="501.970683" style="fill: #6699cc; fill-opacity: 0.8"/>
     <use xlink:href="#mf06880b307" x="213.126378" y="492.6339" style="fill: #6699cc; fill-opacity: 0.8"/>
     <use xlink:href="#mf06880b307" x="245.866695" y="469.581868" style="fill: #6699cc; fill-opacity: 0.8"/>
     <use xlink:href="#mf06880b307" x="278.607011" y="427.419178" style="fill: #6699cc; fill-opacity: 0.8"/>
     <use xlink:href="#mf06880b307" x="311.347327" y="347.152185" style="fill: #6699cc; fill-opacity: 0.8"/>
     <use xlink:href="#mf06880b307" x="344.087643" y="218.137199" style="fill: #6699cc; fill-opacity: 0.8"/>
     <use xlink:href="#mf06880b307" x="376.827959" y="119.551551" style="fill: #6699cc; fill-opacity: 0.8"/>
     <use xlink:href="#mf06880b307" x="409.568276" y="73.170681" style="fill: #6699cc; fill-opacity: 0.8"/>
     <use xlink:href="#mf06880b307" x="442.308592" y="61.03017" style="fill: #6699cc; fill-opacity: 0.8"/>
     <use xlink:href="#mf06880b307" x="475.048908" y="69.999929" style="fill: #6699cc; fill-opacity: 0.8"/>
     <use xlink:href="#mf06880b307" x="507.789224" y="94.347724" style="fill: #6699cc; fill-opacity: 0.8"/>
     <use xlink:href="#mf06880b307" x="540.529541" y="169.116265" style="fill: #6699cc; fill-opacity: 0.8"/>
     <use xlink:href="#mf06880b307" x="573.269857" y="301.970339" style="fill: #6699cc; fill-opacity: 0.8"/>
     <use xlink:href="#mf06880b307" x="606.010173" y="409.148258" style="fill: #6699cc; fill-opacity: 0.8"/>
     <use xlink:href="#mf06880b307" x="638.750489" y="471.346585" style="fill: #6699cc; fill-opacity: 0.8"/>
     <use xlink:href="#mf06880b307" x="671.490805" y="498.27607" style="fill: #6699cc; fill-opacity: 0.8"/>
     <use xlink:href="#mf06880b307" x="704.231122" y="504.493956" style="fill: #6699cc; fill-opacity: 0.8"/>
     <use xlink:href="#mf06880b307" x="736.971438" y="504.569358" style="fill: #6699cc; fill-opacity: 0.8"/>
     <use xlink:href="#mf06880b307" x="769.711754" y="504.572514" style="fill: #6699cc; fill-opacity: 0.8"/>
     <use xlink:href="#mf06880b307" x="802.45207" y="504.562791" style="fill: #6699cc; fill-opacity: 0.8"/>
     <use xlink:href="#mf06880b307" x="835.192386" y="504.564082" style="fill: #6699cc; fill-opacity: 0.8"/>
    </g>
   </g>
   <g id="line2d_23">
    <path d="M 82.165114 504.68358 
L 114.90543 504.68358 
L 147.645746 504.532948 
L 180.386062 503.874903 
L 213.126378 502.266224 
L 245.866695 501.064442 
L 278.607011 497.835418 
L 311.347327 492.769303 
L 344.087643 483.563703 
L 376.827959 472.110817 
L 409.568276 460.845694 
L 442.308592 454.373401 
L 475.048908 453.48297 
L 507.789224 457.784125 
L 540.529541 467.792657 
L 573.269857 480.15747 
L 606.010173 489.961008 
L 638.750489 496.475827 
L 671.490805 501.314849 
L 704.231122 503.65439 
L 736.971438 504.494373 
L 769.711754 504.668306 
L 802.45207 504.68358 
L 835.192386 504.68358 
" clip-path="url(#pf8e103e989)" style="fill: none; stroke: #72ace6; stroke-opacity: 0.8; stroke-width: 2.5; stroke-linecap: round"/>
    <defs>
     <path id="mb94c8a25c9" d="M 0 2 
C 0.530406 2 1.03916 1.789267 1.414214 1.414214 
C 1.789267 1.03916 2 0.530406 2 0 
C 2 -0.530406 1.789267 -1.03916 1.414214 -1.414214 
C 1.03916 -1.789267 0.530406 -2 0 -2 
C -0.530406 -2 -1.03916 -1.789267 -1.414214 -1.414214 
C -1.789267 -1.03916 -2 -0.530406 -2 0 
C -2 0.530406 -1.789267 1.03916 -1.414214 1.414214 
C -1.03916 1.789267 -0.530406 2 0 2 
z
"/>
    </defs>
    <g clip-path="url(#pf8e103e989)">
     <use xlink:href="#mb94c8a25c9" x="82.165114" y="504.68358" style="fill: #72ace6; fill-opacity: 0.8"/>
     <use xlink:href="#mb94c8a25c9" x="114.90543" y="504.68358" style="fill: #72ace6; fill-opacity: 0.8"/>
     <use xlink:href="#mb94c8a25c9" x="147.645746" y="504.532948" style="fill: #72ace6; fill-opacity: 0.8"/>
     <use xlink:href="#mb94c8a25c9" x="180.386062" y="503.874903" style="fill: #72ace6; fill-opacity: 0.8"/>
     <use xlink:href="#mb94c8a25c9" x="213.126378" y="502.266224" style="fill: #72ace6; fill-opacity: 0.8"/>
     <use xlink:href="#mb94c8a25c9" x="245.866695" y="501.064442" style="fill: #72ace6; fill-opacity: 0.8"/>
     <use xlink:href="#mb94c8a25c9" x="278.607011" y="497.835418" style="fill: #72ace6; fill-opacity: 0.8"/>
     <use xlink:href="#mb94c8a25c9" x="311.347327" y="492.769303" style="fill: #72ace6; fill-opacity: 0.8"/>
     <use xlink:href="#mb94c8a25c9" x="344.087643" y="483.563703" style="fill: #72ace6; fill-opacity: 0.8"/>
     <use xlink:href="#mb94c8a25c9" x="376.827959" y="472.110817" style="fill: #72ace6; fill-opacity: 0.8"/>
     <use xlink:href="#mb94c8a25c9" x="409.568276" y="460.845694" style="fill: #72ace6; fill-opacity: 0.8"/>
     <use xlink:href="#mb94c8a25c9" x="442.308592" y="454.373401" style="fill: #72ace6; fill-opacity: 0.8"/>
     <use xlink:href="#mb94c8a25c9" x="475.048908" y="453.48297" style="fill: #72ace6; fill-opacity: 0.8"/>
     <use xlink:href="#mb94c8a25c9" x="507.789224" y="457.784125" style="fill: #72ace6; fill-opacity: 0.8"/>
     <use xlink:href="#mb94c8a25c9" x="540.529541" y="467.792657" style="fill: #72ace6; fill-opacity: 0.8"/>
     <use xlink:href="#mb94c8a25c9" x="573.269857" y="480.15747" style="fill: #72ace6; fill-opacity: 0.8"/>
     <use xlink:href="#mb94c8a25c9" x="606.010173" y="489.961008" style="fill: #72ace6; fill-opacity: 0.8"/>
     <use xlink:href="#mb94c8a25c9" x="638.750489" y="496.475827" style="fill: #72ace6; fill-opacity: 0.8"/>
     <use xlink:href="#mb94c8a25c9" x="671.490805" y="501.314849" style="fill: #72ace6; fill-opacity: 0.8"/>
     <use xlink:href="#mb94c8a25c9" x="704.231122" y="503.65439" style="fill: #72ace6; fill-opacity: 0.8"/>
     <use xlink:href="#mb94c8a25c9" x="736.971438" y="504.494373" style="fill: #72ace6; fill-opacity: 0.8"/>
     <use xlink:href="#mb94c8a25c9" x="769.711754" y="504.668306" style="fill: #72ace6; fill-opacity: 0.8"/>
     <use xlink:href="#mb94c8a25c9" x="802.45207" y="504.68358" style="fill: #72ace6; fill-opacity: 0.8"/>
     <use xlink:href="#mb94c8a25c9" x="835.192386" y="504.68358" style="fill: #72ace6; fill-opacity: 0.8"/>
    </g>
   </g>
   <g id="line2d_24">
    <path d="M 82.165114 504.68358 
L 114.90543 504.68358 
L 147.645746 504.677306 
L 180.386062 504.455535 
L 213.126378 503.69005 
L 245.866695 501.250665 
L 278.607011 491.460969 
L 311.347327 474.481198 
L 344.087643 448.909755 
L 376.827959 429.709922 
L 409.568276 420.041086 
L 442.308592 421.104329 
L 475.048908 427.845082 
L 507.789224 442.493465 
L 540.529541 465.766416 
L 573.269857 487.428065 
L 606.010173 497.778941 
L 638.750489 501.512707 
L 671.490805 503.550877 
L 704.231122 504.432989 
L 736.971438 504.671905 
L 769.711754 504.68358 
L 802.45207 504.68358 
L 835.192386 504.68358 
" clip-path="url(#pf8e103e989)" style="fill: none; stroke: #7fbfff; stroke-opacity: 0.8; stroke-width: 2.5; stroke-linecap: round"/>
    <defs>
     <path id="m46c6c44a42" d="M 0 2 
C 0.530406 2 1.03916 1.789267 1.414214 1.414214 
C 1.789267 1.03916 2 0.530406 2 0 
C 2 -0.530406 1.789267 -1.03916 1.414214 -1.414214 
C 1.03916 -1.789267 0.530406 -2 0 -2 
C -0.530406 -2 -1.03916 -1.789267 -1.414214 -1.414214 
C -1.789267 -1.03916 -2 -0.530406 -2 0 
C -2 0.530406 -1.789267 1.03916 -1.414214 1.414214 
C -1.03916 1.789267 -0.530406 2 0 2 
z
"/>
    </defs>
    <g clip-path="url(#pf8e103e989)">
     <use xlink:href="#m46c6c44a42" x="82.165114" y="504.68358" style="fill: #7fbfff; fill-opacity: 0.8"/>
     <use xlink:href="#m46c6c44a42" x="114.90543" y="504.68358" style="fill: #7fbfff; fill-opacity: 0.8"/>
     <use xlink:href="#m46c6c44a42" x="147.645746" y="504.677306" style="fill: #7fbfff; fill-opacity: 0.8"/>
     <use xlink:href="#m46c6c44a42" x="180.386062" y="504.455535" style="fill: #7fbfff; fill-opacity: 0.8"/>
     <use xlink:href="#m46c6c44a42" x="213.126378" y="503.69005" style="fill: #7fbfff; fill-opacity: 0.8"/>
     <use xlink:href="#m46c6c44a42" x="245.866695" y="501.250665" style="fill: #7fbfff; fill-opacity: 0.8"/>
     <use xlink:href="#m46c6c44a42" x="278.607011" y="491.460969" style="fill: #7fbfff; fill-opacity: 0.8"/>
     <use xlink:href="#m46c6c44a42" x="311.347327" y="474.481198" style="fill: #7fbfff; fill-opacity: 0.8"/>
     <use xlink:href="#m46c6c44a42" x="344.087643" y="448.909755" style="fill: #7fbfff; fill-opacity: 0.8"/>
     <use xlink:href="#m46c6c44a42" x="376.827959" y="429.709922" style="fill: #7fbfff; fill-opacity: 0.8"/>
     <use xlink:href="#m46c6c44a42" x="409.568276" y="420.041086" style="fill: #7fbfff; fill-opacity: 0.8"/>
     <use xlink:href="#m46c6c44a42" x="442.308592" y="421.104329" style="fill: #7fbfff; fill-opacity: 0.8"/>
     <use xlink:href="#m46c6c44a42" x="475.048908" y="427.845082" style="fill: #7fbfff; fill-opacity: 0.8"/>
     <use xlink:href="#m46c6c44a42" x="507.789224" y="442.493465" style="fill: #7fbfff; fill-opacity: 0.8"/>
     <use xlink:href="#m46c6c44a42" x="540.529541" y="465.766416" style="fill: #7fbfff; fill-opacity: 0.8"/>
     <use xlink:href="#m46c6c44a42" x="573.269857" y="487.428065" style="fill: #7fbfff; fill-opacity: 0.8"/>
     <use xlink:href="#m46c6c44a42" x="606.010173" y="497.778941" style="fill: #7fbfff; fill-opacity: 0.8"/>
     <use xlink:href="#m46c6c44a42" x="638.750489" y="501.512707" style="fill: #7fbfff; fill-opacity: 0.8"/>
     <use xlink:href="#m46c6c44a42" x="671.490805" y="503.550877" style="fill: #7fbfff; fill-opacity: 0.8"/>
     <use xlink:href="#m46c6c44a42" x="704.231122" y="504.432989" style="fill: #7fbfff; fill-opacity: 0.8"/>
     <use xlink:href="#m46c6c44a42" x="736.971438" y="504.671905" style="fill: #7fbfff; fill-opacity: 0.8"/>
     <use xlink:href="#m46c6c44a42" x="769.711754" y="504.68358" style="fill: #7fbfff; fill-opacity: 0.8"/>
     <use xlink:href="#m46c6c44a42" x="802.45207" y="504.68358" style="fill: #7fbfff; fill-opacity: 0.8"/>
     <use xlink:href="#m46c6c44a42" x="835.192386" y="504.68358" style="fill: #7fbfff; fill-opacity: 0.8"/>
    </g>
   </g>
   <g id="patch_4">
    <path d="M 44.51375 526.86625 
L 44.51375 38.8475 
" style="fill: none"/>
   </g>
   <g id="patch_5">
    <path d="M 872.84375 526.86625 
L 872.84375 38.8475 
" style="fill: none"/>
   </g>
   <g id="patch_6">
    <path d="M 44.51375 526.86625 
L 872.84375 526.86625 
" style="fill: none"/>
   </g>
   <g id="patch_7">
    <path d="M 44.51375 38.8475 
L 872.84375 38.8475 
" style="fill: none"/>
   </g>
   <g id="text_21">
    <!-- Dataset 2 - Hourly Production Patterns by Target Column -->
    <g style="fill: #262626" transform="translate(242.36 18.8475) scale(0.16 -0.16)">
     <defs>
      <path id="Arial-BoldMT-44" d="M 463 4581 
L 2153 4581 
Q 2725 4581 3025 4494 
Q 3428 4375 3715 4072 
Q 4003 3769 4153 3330 
Q 4303 2891 4303 2247 
Q 4303 1681 4163 1272 
Q 3991 772 3672 463 
Q 3431 228 3022 97 
Q 2716 0 2203 0 
L 463 0 
L 463 4581 
z
M 1388 3806 
L 1388 772 
L 2078 772 
Q 2466 772 2638 816 
Q 2863 872 3011 1006 
Q 3159 1141 3253 1448 
Q 3347 1756 3347 2288 
Q 3347 2819 3253 3103 
Q 3159 3388 2990 3547 
Q 2822 3706 2563 3763 
Q 2369 3806 1803 3806 
L 1388 3806 
z
" transform="scale(0.015625)"/>
      <path id="Arial-BoldMT-61" d="M 1116 2306 
L 319 2450 
Q 453 2931 781 3162 
Q 1109 3394 1756 3394 
Q 2344 3394 2631 3255 
Q 2919 3116 3036 2902 
Q 3153 2688 3153 2116 
L 3144 1091 
Q 3144 653 3186 445 
Q 3228 238 3344 0 
L 2475 0 
Q 2441 88 2391 259 
Q 2369 338 2359 363 
Q 2134 144 1878 34 
Q 1622 -75 1331 -75 
Q 819 -75 523 203 
Q 228 481 228 906 
Q 228 1188 362 1408 
Q 497 1628 739 1745 
Q 981 1863 1438 1950 
Q 2053 2066 2291 2166 
L 2291 2253 
Q 2291 2506 2166 2614 
Q 2041 2722 1694 2722 
Q 1459 2722 1328 2630 
Q 1197 2538 1116 2306 
z
M 2291 1594 
Q 2122 1538 1756 1459 
Q 1391 1381 1278 1306 
Q 1106 1184 1106 997 
Q 1106 813 1243 678 
Q 1381 544 1594 544 
Q 1831 544 2047 700 
Q 2206 819 2256 991 
Q 2291 1103 2291 1419 
L 2291 1594 
z
" transform="scale(0.015625)"/>
      <path id="Arial-BoldMT-74" d="M 1981 3319 
L 1981 2619 
L 1381 2619 
L 1381 1281 
Q 1381 875 1398 808 
Q 1416 741 1477 697 
Q 1538 653 1625 653 
Q 1747 653 1978 738 
L 2053 56 
Q 1747 -75 1359 -75 
Q 1122 -75 931 4 
Q 741 84 652 211 
Q 563 338 528 553 
Q 500 706 500 1172 
L 500 2619 
L 97 2619 
L 97 3319 
L 500 3319 
L 500 3978 
L 1381 4491 
L 1381 3319 
L 1981 3319 
z
" transform="scale(0.015625)"/>
      <path id="Arial-BoldMT-73" d="M 150 947 
L 1031 1081 
Q 1088 825 1259 692 
Q 1431 559 1741 559 
Q 2081 559 2253 684 
Q 2369 772 2369 919 
Q 2369 1019 2306 1084 
Q 2241 1147 2013 1200 
Q 950 1434 666 1628 
Q 272 1897 272 2375 
Q 272 2806 612 3100 
Q 953 3394 1669 3394 
Q 2350 3394 2681 3172 
Q 3013 2950 3138 2516 
L 2309 2363 
Q 2256 2556 2107 2659 
Q 1959 2763 1684 2763 
Q 1338 2763 1188 2666 
Q 1088 2597 1088 2488 
Q 1088 2394 1175 2328 
Q 1294 2241 1995 2081 
Q 2697 1922 2975 1691 
Q 3250 1456 3250 1038 
Q 3250 581 2869 253 
Q 2488 -75 1741 -75 
Q 1063 -75 667 200 
Q 272 475 150 947 
z
" transform="scale(0.015625)"/>
      <path id="Arial-BoldMT-65" d="M 2381 1056 
L 3256 909 
Q 3088 428 2723 176 
Q 2359 -75 1813 -75 
Q 947 -75 531 491 
Q 203 944 203 1634 
Q 203 2459 634 2926 
Q 1066 3394 1725 3394 
Q 2466 3394 2894 2905 
Q 3322 2416 3303 1406 
L 1103 1406 
Q 1113 1016 1316 798 
Q 1519 581 1822 581 
Q 2028 581 2168 693 
Q 2309 806 2381 1056 
z
M 2431 1944 
Q 2422 2325 2234 2523 
Q 2047 2722 1778 2722 
Q 1491 2722 1303 2513 
Q 1116 2303 1119 1944 
L 2431 1944 
z
" transform="scale(0.015625)"/>
      <path id="Arial-BoldMT-20" transform="scale(0.015625)"/>
      <path id="Arial-BoldMT-32" d="M 3238 816 
L 3238 0 
L 159 0 
Q 209 463 459 877 
Q 709 1291 1447 1975 
Q 2041 2528 2175 2725 
Q 2356 2997 2356 3263 
Q 2356 3556 2198 3714 
Q 2041 3872 1763 3872 
Q 1488 3872 1325 3706 
Q 1163 3541 1138 3156 
L 263 3244 
Q 341 3969 753 4284 
Q 1166 4600 1784 4600 
Q 2463 4600 2850 4234 
Q 3238 3869 3238 3325 
Q 3238 3016 3127 2736 
Q 3016 2456 2775 2150 
Q 2616 1947 2200 1565 
Q 1784 1184 1673 1059 
Q 1563 934 1494 816 
L 3238 816 
z
" transform="scale(0.015625)"/>
      <path id="Arial-BoldMT-2d" d="M 359 1222 
L 359 2100 
L 2084 2100 
L 2084 1222 
L 359 1222 
z
" transform="scale(0.015625)"/>
      <path id="Arial-BoldMT-48" d="M 469 0 
L 469 4581 
L 1394 4581 
L 1394 2778 
L 3206 2778 
L 3206 4581 
L 4131 4581 
L 4131 0 
L 3206 0 
L 3206 2003 
L 1394 2003 
L 1394 0 
L 469 0 
z
" transform="scale(0.015625)"/>
      <path id="Arial-BoldMT-6f" d="M 256 1706 
Q 256 2144 472 2553 
Q 688 2963 1083 3178 
Q 1478 3394 1966 3394 
Q 2719 3394 3200 2905 
Q 3681 2416 3681 1669 
Q 3681 916 3195 420 
Q 2709 -75 1972 -75 
Q 1516 -75 1102 131 
Q 688 338 472 736 
Q 256 1134 256 1706 
z
M 1156 1659 
Q 1156 1166 1390 903 
Q 1625 641 1969 641 
Q 2313 641 2545 903 
Q 2778 1166 2778 1666 
Q 2778 2153 2545 2415 
Q 2313 2678 1969 2678 
Q 1625 2678 1390 2415 
Q 1156 2153 1156 1659 
z
" transform="scale(0.015625)"/>
      <path id="Arial-BoldMT-75" d="M 2644 0 
L 2644 497 
Q 2463 231 2167 78 
Q 1872 -75 1544 -75 
Q 1209 -75 943 72 
Q 678 219 559 484 
Q 441 750 441 1219 
L 441 3319 
L 1319 3319 
L 1319 1794 
Q 1319 1094 1367 936 
Q 1416 778 1544 686 
Q 1672 594 1869 594 
Q 2094 594 2272 717 
Q 2450 841 2515 1023 
Q 2581 1206 2581 1919 
L 2581 3319 
L 3459 3319 
L 3459 0 
L 2644 0 
z
" transform="scale(0.015625)"/>
      <path id="Arial-BoldMT-72" d="M 1300 0 
L 422 0 
L 422 3319 
L 1238 3319 
L 1238 2847 
Q 1447 3181 1614 3287 
Q 1781 3394 1994 3394 
Q 2294 3394 2572 3228 
L 2300 2463 
Q 2078 2606 1888 2606 
Q 1703 2606 1575 2504 
Q 1447 2403 1373 2137 
Q 1300 1872 1300 1025 
L 1300 0 
z
" transform="scale(0.015625)"/>
      <path id="Arial-BoldMT-6c" d="M 459 0 
L 459 4581 
L 1338 4581 
L 1338 0 
L 459 0 
z
" transform="scale(0.015625)"/>
      <path id="Arial-BoldMT-79" d="M 44 3319 
L 978 3319 
L 1772 963 
L 2547 3319 
L 3456 3319 
L 2284 125 
L 2075 -453 
Q 1959 -744 1854 -897 
Q 1750 -1050 1614 -1145 
Q 1478 -1241 1279 -1294 
Q 1081 -1347 831 -1347 
Q 578 -1347 334 -1294 
L 256 -606 
Q 463 -647 628 -647 
Q 934 -647 1081 -467 
Q 1228 -288 1306 -9 
L 44 3319 
z
" transform="scale(0.015625)"/>
      <path id="Arial-BoldMT-50" d="M 466 0 
L 466 4581 
L 1950 4581 
Q 2794 4581 3050 4513 
Q 3444 4409 3709 4064 
Q 3975 3719 3975 3172 
Q 3975 2750 3822 2462 
Q 3669 2175 3433 2011 
Q 3197 1847 2953 1794 
Q 2622 1728 1994 1728 
L 1391 1728 
L 1391 0 
L 466 0 
z
M 1391 3806 
L 1391 2506 
L 1897 2506 
Q 2444 2506 2628 2578 
Q 2813 2650 2917 2803 
Q 3022 2956 3022 3159 
Q 3022 3409 2875 3571 
Q 2728 3734 2503 3775 
Q 2338 3806 1838 3806 
L 1391 3806 
z
" transform="scale(0.015625)"/>
      <path id="Arial-BoldMT-64" d="M 3503 0 
L 2688 0 
L 2688 488 
Q 2484 203 2207 64 
Q 1931 -75 1650 -75 
Q 1078 -75 670 386 
Q 263 847 263 1672 
Q 263 2516 659 2955 
Q 1056 3394 1663 3394 
Q 2219 3394 2625 2931 
L 2625 4581 
L 3503 4581 
L 3503 0 
z
M 1159 1731 
Q 1159 1200 1306 963 
Q 1519 619 1900 619 
Q 2203 619 2415 876 
Q 2628 1134 2628 1647 
Q 2628 2219 2422 2470 
Q 2216 2722 1894 2722 
Q 1581 2722 1370 2473 
Q 1159 2225 1159 1731 
z
" transform="scale(0.015625)"/>
      <path id="Arial-BoldMT-63" d="M 3353 2338 
L 2488 2181 
Q 2444 2441 2289 2572 
Q 2134 2703 1888 2703 
Q 1559 2703 1364 2476 
Q 1169 2250 1169 1719 
Q 1169 1128 1367 884 
Q 1566 641 1900 641 
Q 2150 641 2309 783 
Q 2469 925 2534 1272 
L 3397 1125 
Q 3263 531 2881 228 
Q 2500 -75 1859 -75 
Q 1131 -75 698 384 
Q 266 844 266 1656 
Q 266 2478 700 2936 
Q 1134 3394 1875 3394 
Q 2481 3394 2839 3133 
Q 3197 2872 3353 2338 
z
" transform="scale(0.015625)"/>
      <path id="Arial-BoldMT-69" d="M 459 3769 
L 459 4581 
L 1338 4581 
L 1338 3769 
L 459 3769 
z
M 459 0 
L 459 3319 
L 1338 3319 
L 1338 0 
L 459 0 
z
" transform="scale(0.015625)"/>
      <path id="Arial-BoldMT-6e" d="M 3478 0 
L 2600 0 
L 2600 1694 
Q 2600 2231 2544 2389 
Q 2488 2547 2361 2634 
Q 2234 2722 2056 2722 
Q 1828 2722 1647 2597 
Q 1466 2472 1398 2265 
Q 1331 2059 1331 1503 
L 1331 0 
L 453 0 
L 453 3319 
L 1269 3319 
L 1269 2831 
Q 1703 3394 2363 3394 
Q 2653 3394 2893 3289 
Q 3134 3184 3257 3021 
Q 3381 2859 3429 2653 
Q 3478 2447 3478 2063 
L 3478 0 
z
" transform="scale(0.015625)"/>
      <path id="Arial-BoldMT-62" d="M 422 0 
L 422 4581 
L 1300 4581 
L 1300 2931 
Q 1706 3394 2263 3394 
Q 2869 3394 3266 2955 
Q 3663 2516 3663 1694 
Q 3663 844 3258 384 
Q 2853 -75 2275 -75 
Q 1991 -75 1714 67 
Q 1438 209 1238 488 
L 1238 0 
L 422 0 
z
M 1294 1731 
Q 1294 1216 1456 969 
Q 1684 619 2063 619 
Q 2353 619 2558 867 
Q 2763 1116 2763 1650 
Q 2763 2219 2556 2470 
Q 2350 2722 2028 2722 
Q 1713 2722 1503 2476 
Q 1294 2231 1294 1731 
z
" transform="scale(0.015625)"/>
      <path id="Arial-BoldMT-54" d="M 1497 0 
L 1497 3806 
L 138 3806 
L 138 4581 
L 3778 4581 
L 3778 3806 
L 2422 3806 
L 2422 0 
L 1497 0 
z
" transform="scale(0.015625)"/>
      <path id="Arial-BoldMT-67" d="M 378 -219 
L 1381 -341 
Q 1406 -516 1497 -581 
Q 1622 -675 1891 -675 
Q 2234 -675 2406 -572 
Q 2522 -503 2581 -350 
Q 2622 -241 2622 53 
L 2622 538 
Q 2228 0 1628 0 
Q 959 0 569 566 
Q 263 1013 263 1678 
Q 263 2513 664 2953 
Q 1066 3394 1663 3394 
Q 2278 3394 2678 2853 
L 2678 3319 
L 3500 3319 
L 3500 341 
Q 3500 -247 3403 -537 
Q 3306 -828 3131 -993 
Q 2956 -1159 2664 -1253 
Q 2372 -1347 1925 -1347 
Q 1081 -1347 728 -1058 
Q 375 -769 375 -325 
Q 375 -281 378 -219 
z
M 1163 1728 
Q 1163 1200 1367 954 
Q 1572 709 1872 709 
Q 2194 709 2416 961 
Q 2638 1213 2638 1706 
Q 2638 2222 2425 2472 
Q 2213 2722 1888 2722 
Q 1572 2722 1367 2476 
Q 1163 2231 1163 1728 
z
" transform="scale(0.015625)"/>
      <path id="Arial-BoldMT-43" d="M 3397 1684 
L 4294 1400 
Q 4088 650 3608 286 
Q 3128 -78 2391 -78 
Q 1478 -78 890 545 
Q 303 1169 303 2250 
Q 303 3394 893 4026 
Q 1484 4659 2447 4659 
Q 3288 4659 3813 4163 
Q 4125 3869 4281 3319 
L 3366 3100 
Q 3284 3456 3026 3662 
Q 2769 3869 2400 3869 
Q 1891 3869 1573 3503 
Q 1256 3138 1256 2319 
Q 1256 1450 1568 1081 
Q 1881 713 2381 713 
Q 2750 713 3015 947 
Q 3281 1181 3397 1684 
z
" transform="scale(0.015625)"/>
      <path id="Arial-BoldMT-6d" d="M 394 3319 
L 1203 3319 
L 1203 2866 
Q 1638 3394 2238 3394 
Q 2556 3394 2790 3262 
Q 3025 3131 3175 2866 
Q 3394 3131 3647 3262 
Q 3900 3394 4188 3394 
Q 4553 3394 4806 3245 
Q 5059 3097 5184 2809 
Q 5275 2597 5275 2122 
L 5275 0 
L 4397 0 
L 4397 1897 
Q 4397 2391 4306 2534 
Q 4184 2722 3931 2722 
Q 3747 2722 3584 2609 
Q 3422 2497 3350 2280 
Q 3278 2063 3278 1594 
L 3278 0 
L 2400 0 
L 2400 1819 
Q 2400 2303 2353 2443 
Q 2306 2584 2207 2653 
Q 2109 2722 1941 2722 
Q 1738 2722 1575 2612 
Q 1413 2503 1342 2297 
Q 1272 2091 1272 1613 
L 1272 0 
L 394 0 
L 394 3319 
z
" transform="scale(0.015625)"/>
     </defs>
     <use xlink:href="#Arial-BoldMT-44"/>
     <use xlink:href="#Arial-BoldMT-61" transform="translate(72.216797 0)"/>
     <use xlink:href="#Arial-BoldMT-74" transform="translate(127.832031 0)"/>
     <use xlink:href="#Arial-BoldMT-61" transform="translate(161.132812 0)"/>
     <use xlink:href="#Arial-BoldMT-73" transform="translate(216.748047 0)"/>
     <use xlink:href="#Arial-BoldMT-65" transform="translate(272.363281 0)"/>
     <use xlink:href="#Arial-BoldMT-74" transform="translate(327.978516 0)"/>
     <use xlink:href="#Arial-BoldMT-20" transform="translate(361.279297 0)"/>
     <use xlink:href="#Arial-BoldMT-32" transform="translate(389.0625 0)"/>
     <use xlink:href="#Arial-BoldMT-20" transform="translate(444.677734 0)"/>
     <use xlink:href="#Arial-BoldMT-2d" transform="translate(472.460938 0)"/>
     <use xlink:href="#Arial-BoldMT-20" transform="translate(505.761719 0)"/>
     <use xlink:href="#Arial-BoldMT-48" transform="translate(533.544922 0)"/>
     <use xlink:href="#Arial-BoldMT-6f" transform="translate(605.761719 0)"/>
     <use xlink:href="#Arial-BoldMT-75" transform="translate(666.845703 0)"/>
     <use xlink:href="#Arial-BoldMT-72" transform="translate(727.929688 0)"/>
     <use xlink:href="#Arial-BoldMT-6c" transform="translate(766.845703 0)"/>
     <use xlink:href="#Arial-BoldMT-79" transform="translate(794.628906 0)"/>
     <use xlink:href="#Arial-BoldMT-20" transform="translate(850.244141 0)"/>
     <use xlink:href="#Arial-BoldMT-50" transform="translate(878.027344 0)"/>
     <use xlink:href="#Arial-BoldMT-72" transform="translate(944.726562 0)"/>
     <use xlink:href="#Arial-BoldMT-6f" transform="translate(983.642578 0)"/>
     <use xlink:href="#Arial-BoldMT-64" transform="translate(1044.726562 0)"/>
     <use xlink:href="#Arial-BoldMT-75" transform="translate(1105.810547 0)"/>
     <use xlink:href="#Arial-BoldMT-63" transform="translate(1166.894531 0)"/>
     <use xlink:href="#Arial-BoldMT-74" transform="translate(1222.509766 0)"/>
     <use xlink:href="#Arial-BoldMT-69" transform="translate(1255.810547 0)"/>
     <use xlink:href="#Arial-BoldMT-6f" transform="translate(1283.59375 0)"/>
     <use xlink:href="#Arial-BoldMT-6e" transform="translate(1344.677734 0)"/>
     <use xlink:href="#Arial-BoldMT-20" transform="translate(1405.761719 0)"/>
     <use xlink:href="#Arial-BoldMT-50" transform="translate(1433.544922 0)"/>
     <use xlink:href="#Arial-BoldMT-61" transform="translate(1500.244141 0)"/>
     <use xlink:href="#Arial-BoldMT-74" transform="translate(1555.859375 0)"/>
     <use xlink:href="#Arial-BoldMT-74" transform="translate(1589.160156 0)"/>
     <use xlink:href="#Arial-BoldMT-65" transform="translate(1622.460938 0)"/>
     <use xlink:href="#Arial-BoldMT-72" transform="translate(1678.076172 0)"/>
     <use xlink:href="#Arial-BoldMT-6e" transform="translate(1716.992188 0)"/>
     <use xlink:href="#Arial-BoldMT-73" transform="translate(1778.076172 0)"/>
     <use xlink:href="#Arial-BoldMT-20" transform="translate(1833.691406 0)"/>
     <use xlink:href="#Arial-BoldMT-62" transform="translate(1861.474609 0)"/>
     <use xlink:href="#Arial-BoldMT-79" transform="translate(1922.558594 0)"/>
     <use xlink:href="#Arial-BoldMT-20" transform="translate(1978.173828 0)"/>
     <use xlink:href="#Arial-BoldMT-54" transform="translate(2005.957031 0)"/>
     <use xlink:href="#Arial-BoldMT-61" transform="translate(2059.666016 0)"/>
     <use xlink:href="#Arial-BoldMT-72" transform="translate(2115.28125 0)"/>
     <use xlink:href="#Arial-BoldMT-67" transform="translate(2154.197266 0)"/>
     <use xlink:href="#Arial-BoldMT-65" transform="translate(2215.28125 0)"/>
     <use xlink:href="#Arial-BoldMT-74" transform="translate(2270.896484 0)"/>
     <use xlink:href="#Arial-BoldMT-20" transform="translate(2304.197266 0)"/>
     <use xlink:href="#Arial-BoldMT-43" transform="translate(2331.980469 0)"/>
     <use xlink:href="#Arial-BoldMT-6f" transform="translate(2404.197266 0)"/>
     <use xlink:href="#Arial-BoldMT-6c" transform="translate(2465.28125 0)"/>
     <use xlink:href="#Arial-BoldMT-75" transform="translate(2493.064453 0)"/>
     <use xlink:href="#Arial-BoldMT-6d" transform="translate(2554.148438 0)"/>
     <use xlink:href="#Arial-BoldMT-6e" transform="translate(2643.064453 0)"/>
    </g>
   </g>
   <g id="legend_1">
    <g id="line2d_25">
     <path d="M 924.16025 52.771094 
L 935.16025 52.771094 
L 946.16025 52.771094 
" style="fill: none; stroke: #406080; stroke-opacity: 0.8; stroke-width: 2.5; stroke-linecap: round"/>
     <g>
      <use xlink:href="#ma8b84cbde5" x="935.16025" y="52.771094" style="fill: #406080; fill-opacity: 0.8"/>
     </g>
    </g>
    <g id="text_22">
     <!-- tot_pv_ec_inv4 -->
     <g style="fill: #262626" transform="translate(954.96025 56.621094) scale(0.11 -0.11)">
      <defs>
       <path id="ArialMT-5f" d="M -97 -1272 
L -97 -866 
L 3631 -866 
L 3631 -1272 
L -97 -1272 
z
" transform="scale(0.015625)"/>
       <path id="ArialMT-70" d="M 422 -1272 
L 422 3319 
L 934 3319 
L 934 2888 
Q 1116 3141 1344 3267 
Q 1572 3394 1897 3394 
Q 2322 3394 2647 3175 
Q 2972 2956 3137 2557 
Q 3303 2159 3303 1684 
Q 3303 1175 3120 767 
Q 2938 359 2589 142 
Q 2241 -75 1856 -75 
Q 1575 -75 1351 44 
Q 1128 163 984 344 
L 984 -1272 
L 422 -1272 
z
M 931 1641 
Q 931 1000 1190 694 
Q 1450 388 1819 388 
Q 2194 388 2461 705 
Q 2728 1022 2728 1688 
Q 2728 2322 2467 2637 
Q 2206 2953 1844 2953 
Q 1484 2953 1207 2617 
Q 931 2281 931 1641 
z
" transform="scale(0.015625)"/>
      </defs>
      <use xlink:href="#ArialMT-74"/>
      <use xlink:href="#ArialMT-6f" transform="translate(27.783203 0)"/>
      <use xlink:href="#ArialMT-74" transform="translate(83.398438 0)"/>
      <use xlink:href="#ArialMT-5f" transform="translate(111.181641 0)"/>
      <use xlink:href="#ArialMT-70" transform="translate(166.796875 0)"/>
      <use xlink:href="#ArialMT-76" transform="translate(222.412109 0)"/>
      <use xlink:href="#ArialMT-5f" transform="translate(272.412109 0)"/>
      <use xlink:href="#ArialMT-65" transform="translate(328.027344 0)"/>
      <use xlink:href="#ArialMT-63" transform="translate(383.642578 0)"/>
      <use xlink:href="#ArialMT-5f" transform="translate(433.642578 0)"/>
      <use xlink:href="#ArialMT-69" transform="translate(489.257812 0)"/>
      <use xlink:href="#ArialMT-6e" transform="translate(511.474609 0)"/>
      <use xlink:href="#ArialMT-76" transform="translate(567.089844 0)"/>
      <use xlink:href="#ArialMT-34" transform="translate(617.089844 0)"/>
     </g>
    </g>
    <g id="line2d_26">
     <path d="M 924.16025 68.330938 
L 935.16025 68.330938 
L 946.16025 68.330938 
" style="fill: none; stroke: #4c7399; stroke-opacity: 0.8; stroke-width: 2.5; stroke-linecap: round"/>
     <g>
      <use xlink:href="#m96aea44d55" x="935.16025" y="68.330938" style="fill: #4c7399; fill-opacity: 0.8"/>
     </g>
    </g>
    <g id="text_23">
     <!-- tot_pv_aule_r -->
     <g style="fill: #262626" transform="translate(954.96025 72.180938) scale(0.11 -0.11)">
      <defs>
       <path id="ArialMT-6c" d="M 409 0 
L 409 4581 
L 972 4581 
L 972 0 
L 409 0 
z
" transform="scale(0.015625)"/>
      </defs>
      <use xlink:href="#ArialMT-74"/>
      <use xlink:href="#ArialMT-6f" transform="translate(27.783203 0)"/>
      <use xlink:href="#ArialMT-74" transform="translate(83.398438 0)"/>
      <use xlink:href="#ArialMT-5f" transform="translate(111.181641 0)"/>
      <use xlink:href="#ArialMT-70" transform="translate(166.796875 0)"/>
      <use xlink:href="#ArialMT-76" transform="translate(222.412109 0)"/>
      <use xlink:href="#ArialMT-5f" transform="translate(272.412109 0)"/>
      <use xlink:href="#ArialMT-61" transform="translate(328.027344 0)"/>
      <use xlink:href="#ArialMT-75" transform="translate(383.642578 0)"/>
      <use xlink:href="#ArialMT-6c" transform="translate(439.257812 0)"/>
      <use xlink:href="#ArialMT-65" transform="translate(461.474609 0)"/>
      <use xlink:href="#ArialMT-5f" transform="translate(517.089844 0)"/>
      <use xlink:href="#ArialMT-72" transform="translate(572.705078 0)"/>
     </g>
    </g>
    <g id="line2d_27">
     <path d="M 924.16025 83.923438 
L 935.16025 83.923438 
L 946.16025 83.923438 
" style="fill: none; stroke: #5986b2; stroke-opacity: 0.8; stroke-width: 2.5; stroke-linecap: round"/>
     <g>
      <use xlink:href="#m7eacf01ba3" x="935.16025" y="83.923438" style="fill: #5986b2; fill-opacity: 0.8"/>
     </g>
    </g>
    <g id="text_24">
     <!-- tot_pv_i3p -->
     <g style="fill: #262626" transform="translate(954.96025 87.773438) scale(0.11 -0.11)">
      <defs>
       <path id="ArialMT-33" d="M 269 1209 
L 831 1284 
Q 928 806 1161 595 
Q 1394 384 1728 384 
Q 2125 384 2398 659 
Q 2672 934 2672 1341 
Q 2672 1728 2419 1979 
Q 2166 2231 1775 2231 
Q 1616 2231 1378 2169 
L 1441 2663 
Q 1497 2656 1531 2656 
Q 1891 2656 2178 2843 
Q 2466 3031 2466 3422 
Q 2466 3731 2256 3934 
Q 2047 4138 1716 4138 
Q 1388 4138 1169 3931 
Q 950 3725 888 3313 
L 325 3413 
Q 428 3978 793 4289 
Q 1159 4600 1703 4600 
Q 2078 4600 2393 4439 
Q 2709 4278 2876 4000 
Q 3044 3722 3044 3409 
Q 3044 3113 2884 2869 
Q 2725 2625 2413 2481 
Q 2819 2388 3044 2092 
Q 3269 1797 3269 1353 
Q 3269 753 2831 336 
Q 2394 -81 1725 -81 
Q 1122 -81 723 278 
Q 325 638 269 1209 
z
" transform="scale(0.015625)"/>
      </defs>
      <use xlink:href="#ArialMT-74"/>
      <use xlink:href="#ArialMT-6f" transform="translate(27.783203 0)"/>
      <use xlink:href="#ArialMT-74" transform="translate(83.398438 0)"/>
      <use xlink:href="#ArialMT-5f" transform="translate(111.181641 0)"/>
      <use xlink:href="#ArialMT-70" transform="translate(166.796875 0)"/>
      <use xlink:href="#ArialMT-76" transform="translate(222.412109 0)"/>
      <use xlink:href="#ArialMT-5f" transform="translate(272.412109 0)"/>
      <use xlink:href="#ArialMT-69" transform="translate(328.027344 0)"/>
      <use xlink:href="#ArialMT-33" transform="translate(350.244141 0)"/>
      <use xlink:href="#ArialMT-70" transform="translate(405.859375 0)"/>
     </g>
    </g>
    <g id="line2d_28">
     <path d="M 924.16025 99.617344 
L 935.16025 99.617344 
L 946.16025 99.617344 
" style="fill: none; stroke: #6699cc; stroke-opacity: 0.8; stroke-width: 2.5; stroke-linecap: round"/>
     <g>
      <use xlink:href="#mf06880b307" x="935.16025" y="99.617344" style="fill: #6699cc; fill-opacity: 0.8"/>
     </g>
    </g>
    <g id="text_25">
     <!-- tot_pv_castelfidardo -->
     <g style="fill: #262626" transform="translate(954.96025 103.467344) scale(0.11 -0.11)">
      <defs>
       <path id="ArialMT-73" d="M 197 991 
L 753 1078 
Q 800 744 1014 566 
Q 1228 388 1613 388 
Q 2000 388 2187 545 
Q 2375 703 2375 916 
Q 2375 1106 2209 1216 
Q 2094 1291 1634 1406 
Q 1016 1563 777 1677 
Q 538 1791 414 1992 
Q 291 2194 291 2438 
Q 291 2659 392 2848 
Q 494 3038 669 3163 
Q 800 3259 1026 3326 
Q 1253 3394 1513 3394 
Q 1903 3394 2198 3281 
Q 2494 3169 2634 2976 
Q 2775 2784 2828 2463 
L 2278 2388 
Q 2241 2644 2061 2787 
Q 1881 2931 1553 2931 
Q 1166 2931 1000 2803 
Q 834 2675 834 2503 
Q 834 2394 903 2306 
Q 972 2216 1119 2156 
Q 1203 2125 1616 2013 
Q 2213 1853 2448 1751 
Q 2684 1650 2818 1456 
Q 2953 1263 2953 975 
Q 2953 694 2789 445 
Q 2625 197 2315 61 
Q 2006 -75 1616 -75 
Q 969 -75 630 194 
Q 291 463 197 991 
z
" transform="scale(0.015625)"/>
      </defs>
      <use xlink:href="#ArialMT-74"/>
      <use xlink:href="#ArialMT-6f" transform="translate(27.783203 0)"/>
      <use xlink:href="#ArialMT-74" transform="translate(83.398438 0)"/>
      <use xlink:href="#ArialMT-5f" transform="translate(111.181641 0)"/>
      <use xlink:href="#ArialMT-70" transform="translate(166.796875 0)"/>
      <use xlink:href="#ArialMT-76" transform="translate(222.412109 0)"/>
      <use xlink:href="#ArialMT-5f" transform="translate(272.412109 0)"/>
      <use xlink:href="#ArialMT-63" transform="translate(328.027344 0)"/>
      <use xlink:href="#ArialMT-61" transform="translate(378.027344 0)"/>
      <use xlink:href="#ArialMT-73" transform="translate(433.642578 0)"/>
      <use xlink:href="#ArialMT-74" transform="translate(483.642578 0)"/>
      <use xlink:href="#ArialMT-65" transform="translate(511.425781 0)"/>
      <use xlink:href="#ArialMT-6c" transform="translate(567.041016 0)"/>
      <use xlink:href="#ArialMT-66" transform="translate(589.257812 0)"/>
      <use xlink:href="#ArialMT-69" transform="translate(617.041016 0)"/>
      <use xlink:href="#ArialMT-64" transform="translate(639.257812 0)"/>
      <use xlink:href="#ArialMT-61" transform="translate(694.873047 0)"/>
      <use xlink:href="#ArialMT-72" transform="translate(750.488281 0)"/>
      <use xlink:href="#ArialMT-64" transform="translate(783.789062 0)"/>
      <use xlink:href="#ArialMT-6f" transform="translate(839.404297 0)"/>
     </g>
    </g>
    <g id="line2d_29">
     <path d="M 924.16025 115.209844 
L 935.16025 115.209844 
L 946.16025 115.209844 
" style="fill: none; stroke: #72ace6; stroke-opacity: 0.8; stroke-width: 2.5; stroke-linecap: round"/>
     <g>
      <use xlink:href="#mb94c8a25c9" x="935.16025" y="115.209844" style="fill: #72ace6; fill-opacity: 0.8"/>
     </g>
    </g>
    <g id="text_26">
     <!-- tot_pv_ec_inv1 -->
     <g style="fill: #262626" transform="translate(954.96025 119.059844) scale(0.11 -0.11)">
      <use xlink:href="#ArialMT-74"/>
      <use xlink:href="#ArialMT-6f" transform="translate(27.783203 0)"/>
      <use xlink:href="#ArialMT-74" transform="translate(83.398438 0)"/>
      <use xlink:href="#ArialMT-5f" transform="translate(111.181641 0)"/>
      <use xlink:href="#ArialMT-70" transform="translate(166.796875 0)"/>
      <use xlink:href="#ArialMT-76" transform="translate(222.412109 0)"/>
      <use xlink:href="#ArialMT-5f" transform="translate(272.412109 0)"/>
      <use xlink:href="#ArialMT-65" transform="translate(328.027344 0)"/>
      <use xlink:href="#ArialMT-63" transform="translate(383.642578 0)"/>
      <use xlink:href="#ArialMT-5f" transform="translate(433.642578 0)"/>
      <use xlink:href="#ArialMT-69" transform="translate(489.257812 0)"/>
      <use xlink:href="#ArialMT-6e" transform="translate(511.474609 0)"/>
      <use xlink:href="#ArialMT-76" transform="translate(567.089844 0)"/>
      <use xlink:href="#ArialMT-31" transform="translate(617.089844 0)"/>
     </g>
    </g>
    <g id="line2d_30">
     <path d="M 924.16025 130.802344 
L 935.16025 130.802344 
L 946.16025 130.802344 
" style="fill: none; stroke: #7fbfff; stroke-opacity: 0.8; stroke-width: 2.5; stroke-linecap: round"/>
     <g>
      <use xlink:href="#m46c6c44a42" x="935.16025" y="130.802344" style="fill: #7fbfff; fill-opacity: 0.8"/>
     </g>
    </g>
    <g id="text_27">
     <!-- tot_pv_ec_inv2 -->
     <g style="fill: #262626" transform="translate(954.96025 134.652344) scale(0.11 -0.11)">
      <use xlink:href="#ArialMT-74"/>
      <use xlink:href="#ArialMT-6f" transform="translate(27.783203 0)"/>
      <use xlink:href="#ArialMT-74" transform="translate(83.398438 0)"/>
      <use xlink:href="#ArialMT-5f" transform="translate(111.181641 0)"/>
      <use xlink:href="#ArialMT-70" transform="translate(166.796875 0)"/>
      <use xlink:href="#ArialMT-76" transform="translate(222.412109 0)"/>
      <use xlink:href="#ArialMT-5f" transform="translate(272.412109 0)"/>
      <use xlink:href="#ArialMT-65" transform="translate(328.027344 0)"/>
      <use xlink:href="#ArialMT-63" transform="translate(383.642578 0)"/>
      <use xlink:href="#ArialMT-5f" transform="translate(433.642578 0)"/>
      <use xlink:href="#ArialMT-69" transform="translate(489.257812 0)"/>
      <use xlink:href="#ArialMT-6e" transform="translate(511.474609 0)"/>
      <use xlink:href="#ArialMT-76" transform="translate(567.089844 0)"/>
      <use xlink:href="#ArialMT-32" transform="translate(617.089844 0)"/>
     </g>
    </g>
    <g id="patch_8">
     <path d="M 924.16025 150.212188 
L 946.16025 150.212188 
L 946.16025 142.512188 
L 924.16025 142.512188 
z
" style="fill: #ffff00; opacity: 0.1; stroke: #ffff00; stroke-width: 0.3; stroke-linejoin: miter"/>
    </g>
    <g id="text_28">
     <!-- Typical daylight hours -->
     <g style="fill: #262626" transform="translate(954.96025 150.212188) scale(0.11 -0.11)">
      <defs>
       <path id="ArialMT-54" d="M 1659 0 
L 1659 4041 
L 150 4041 
L 150 4581 
L 3781 4581 
L 3781 4041 
L 2266 4041 
L 2266 0 
L 1659 0 
z
" transform="scale(0.015625)"/>
       <path id="ArialMT-68" d="M 422 0 
L 422 4581 
L 984 4581 
L 984 2938 
Q 1378 3394 1978 3394 
Q 2347 3394 2619 3248 
Q 2891 3103 3008 2847 
Q 3125 2591 3125 2103 
L 3125 0 
L 2563 0 
L 2563 2103 
Q 2563 2525 2380 2717 
Q 2197 2909 1863 2909 
Q 1613 2909 1392 2779 
Q 1172 2650 1078 2428 
Q 984 2206 984 1816 
L 984 0 
L 422 0 
z
" transform="scale(0.015625)"/>
      </defs>
      <use xlink:href="#ArialMT-54"/>
      <use xlink:href="#ArialMT-79" transform="translate(55.583984 0)"/>
      <use xlink:href="#ArialMT-70" transform="translate(105.583984 0)"/>
      <use xlink:href="#ArialMT-69" transform="translate(161.199219 0)"/>
      <use xlink:href="#ArialMT-63" transform="translate(183.416016 0)"/>
      <use xlink:href="#ArialMT-61" transform="translate(233.416016 0)"/>
      <use xlink:href="#ArialMT-6c" transform="translate(289.03125 0)"/>
      <use xlink:href="#ArialMT-20" transform="translate(311.248047 0)"/>
      <use xlink:href="#ArialMT-64" transform="translate(339.03125 0)"/>
      <use xlink:href="#ArialMT-61" transform="translate(394.646484 0)"/>
      <use xlink:href="#ArialMT-79" transform="translate(450.261719 0)"/>
      <use xlink:href="#ArialMT-6c" transform="translate(500.261719 0)"/>
      <use xlink:href="#ArialMT-69" transform="translate(522.478516 0)"/>
      <use xlink:href="#ArialMT-67" transform="translate(544.695312 0)"/>
      <use xlink:href="#ArialMT-68" transform="translate(600.310547 0)"/>
      <use xlink:href="#ArialMT-74" transform="translate(655.925781 0)"/>
      <use xlink:href="#ArialMT-20" transform="translate(683.708984 0)"/>
      <use xlink:href="#ArialMT-68" transform="translate(711.492188 0)"/>
      <use xlink:href="#ArialMT-6f" transform="translate(767.107422 0)"/>
      <use xlink:href="#ArialMT-75" transform="translate(822.722656 0)"/>
      <use xlink:href="#ArialMT-72" transform="translate(878.337891 0)"/>
      <use xlink:href="#ArialMT-73" transform="translate(911.638672 0)"/>
     </g>
    </g>
   </g>
  </g>
 </g>
 <defs>
  <clipPath id="pf8e103e989">
   <rect x="44.51375" y="38.8475" width="828.33" height="488.01875"/>
  </clipPath>
 </defs>
</svg>
