<?xml version="1.0" encoding="utf-8" standalone="no"?>
<!DOCTYPE svg PUBLIC "-//W3C//DTD SVG 1.1//EN"
  "http://www.w3.org/Graphics/SVG/1.1/DTD/svg11.dtd">
<svg xmlns:xlink="http://www.w3.org/1999/xlink" width="998.734531pt" height="713.2875pt" viewBox="0 0 998.734531 713.2875" xmlns="http://www.w3.org/2000/svg" version="1.1">
 <metadata>
  <rdf:RDF xmlns:dc="http://purl.org/dc/elements/1.1/" xmlns:cc="http://creativecommons.org/ns#" xmlns:rdf="http://www.w3.org/1999/02/22-rdf-syntax-ns#">
   <cc:Work>
    <dc:type rdf:resource="http://purl.org/dc/dcmitype/StillImage"/>
    <dc:date>2025-07-27T16:15:39.912762</dc:date>
    <dc:format>image/svg+xml</dc:format>
    <dc:creator>
     <cc:Agent>
      <dc:title>Matplotlib v3.10.3, https://matplotlib.org/</dc:title>
     </cc:Agent>
    </dc:creator>
   </cc:Work>
  </rdf:RDF>
 </metadata>
 <defs>
  <style type="text/css">*{stroke-linejoin: round; stroke-linecap: butt}</style>
 </defs>
 <g id="figure_1">
  <g id="patch_1">
   <path d="M 0 713.2875 
L 998.734531 713.2875 
L 998.734531 0 
L 0 0 
z
" style="fill: #ffffff"/>
  </g>
  <g id="axes_1">
   <g id="patch_2">
    <path d="M 71.042188 687.82625 
L 810.992188 687.82625 
L 810.992188 38.8475 
L 71.042188 38.8475 
z
" style="fill: #eaeaf2"/>
   </g>
   <g id="matplotlib.axis_1">
    <g id="xtick_1">
     <g id="line2d_1">
      <path d="M 175.484891 687.82625 
L 175.484891 38.8475 
" clip-path="url(#p63ede2b448)" style="fill: none; stroke: #ffffff; stroke-linecap: round"/>
     </g>
     <g id="text_1">
      <!-- Spring -->
      <g style="fill: #262626" transform="translate(158.142078 703.561875) scale(0.12 -0.12)">
       <defs>
        <path id="ArialMT-53" d="M 288 1472 
L 859 1522 
Q 900 1178 1048 958 
Q 1197 738 1509 602 
Q 1822 466 2213 466 
Q 2559 466 2825 569 
Q 3091 672 3220 851 
Q 3350 1031 3350 1244 
Q 3350 1459 3225 1620 
Q 3100 1781 2813 1891 
Q 2628 1963 1997 2114 
Q 1366 2266 1113 2400 
Q 784 2572 623 2826 
Q 463 3081 463 3397 
Q 463 3744 659 4045 
Q 856 4347 1234 4503 
Q 1613 4659 2075 4659 
Q 2584 4659 2973 4495 
Q 3363 4331 3572 4012 
Q 3781 3694 3797 3291 
L 3216 3247 
Q 3169 3681 2898 3903 
Q 2628 4125 2100 4125 
Q 1550 4125 1298 3923 
Q 1047 3722 1047 3438 
Q 1047 3191 1225 3031 
Q 1400 2872 2139 2705 
Q 2878 2538 3153 2413 
Q 3553 2228 3743 1945 
Q 3934 1663 3934 1294 
Q 3934 928 3725 604 
Q 3516 281 3123 101 
Q 2731 -78 2241 -78 
Q 1619 -78 1198 103 
Q 778 284 539 648 
Q 300 1013 288 1472 
z
" transform="scale(0.015625)"/>
        <path id="ArialMT-70" d="M 422 -1272 
L 422 3319 
L 934 3319 
L 934 2888 
Q 1116 3141 1344 3267 
Q 1572 3394 1897 3394 
Q 2322 3394 2647 3175 
Q 2972 2956 3137 2557 
Q 3303 2159 3303 1684 
Q 3303 1175 3120 767 
Q 2938 359 2589 142 
Q 2241 -75 1856 -75 
Q 1575 -75 1351 44 
Q 1128 163 984 344 
L 984 -1272 
L 422 -1272 
z
M 931 1641 
Q 931 1000 1190 694 
Q 1450 388 1819 388 
Q 2194 388 2461 705 
Q 2728 1022 2728 1688 
Q 2728 2322 2467 2637 
Q 2206 2953 1844 2953 
Q 1484 2953 1207 2617 
Q 931 2281 931 1641 
z
" transform="scale(0.015625)"/>
        <path id="ArialMT-72" d="M 416 0 
L 416 3319 
L 922 3319 
L 922 2816 
Q 1116 3169 1280 3281 
Q 1444 3394 1641 3394 
Q 1925 3394 2219 3213 
L 2025 2691 
Q 1819 2813 1613 2813 
Q 1428 2813 1281 2702 
Q 1134 2591 1072 2394 
Q 978 2094 978 1738 
L 978 0 
L 416 0 
z
" transform="scale(0.015625)"/>
        <path id="ArialMT-69" d="M 425 3934 
L 425 4581 
L 988 4581 
L 988 3934 
L 425 3934 
z
M 425 0 
L 425 3319 
L 988 3319 
L 988 0 
L 425 0 
z
" transform="scale(0.015625)"/>
        <path id="ArialMT-6e" d="M 422 0 
L 422 3319 
L 928 3319 
L 928 2847 
Q 1294 3394 1984 3394 
Q 2284 3394 2536 3286 
Q 2788 3178 2913 3003 
Q 3038 2828 3088 2588 
Q 3119 2431 3119 2041 
L 3119 0 
L 2556 0 
L 2556 2019 
Q 2556 2363 2490 2533 
Q 2425 2703 2258 2804 
Q 2091 2906 1866 2906 
Q 1506 2906 1245 2678 
Q 984 2450 984 1813 
L 984 0 
L 422 0 
z
" transform="scale(0.015625)"/>
        <path id="ArialMT-67" d="M 319 -275 
L 866 -356 
Q 900 -609 1056 -725 
Q 1266 -881 1628 -881 
Q 2019 -881 2231 -725 
Q 2444 -569 2519 -288 
Q 2563 -116 2559 434 
Q 2191 0 1641 0 
Q 956 0 581 494 
Q 206 988 206 1678 
Q 206 2153 378 2554 
Q 550 2956 876 3175 
Q 1203 3394 1644 3394 
Q 2231 3394 2613 2919 
L 2613 3319 
L 3131 3319 
L 3131 450 
Q 3131 -325 2973 -648 
Q 2816 -972 2473 -1159 
Q 2131 -1347 1631 -1347 
Q 1038 -1347 672 -1080 
Q 306 -813 319 -275 
z
M 784 1719 
Q 784 1066 1043 766 
Q 1303 466 1694 466 
Q 2081 466 2343 764 
Q 2606 1063 2606 1700 
Q 2606 2309 2336 2618 
Q 2066 2928 1684 2928 
Q 1309 2928 1046 2623 
Q 784 2319 784 1719 
z
" transform="scale(0.015625)"/>
       </defs>
       <use xlink:href="#ArialMT-53"/>
       <use xlink:href="#ArialMT-70" transform="translate(66.699219 0)"/>
       <use xlink:href="#ArialMT-72" transform="translate(122.314453 0)"/>
       <use xlink:href="#ArialMT-69" transform="translate(155.615234 0)"/>
       <use xlink:href="#ArialMT-6e" transform="translate(177.832031 0)"/>
       <use xlink:href="#ArialMT-67" transform="translate(233.447266 0)"/>
      </g>
     </g>
    </g>
    <g id="xtick_2">
     <g id="line2d_2">
      <path d="M 352.506422 687.82625 
L 352.506422 38.8475 
" clip-path="url(#p63ede2b448)" style="fill: none; stroke: #ffffff; stroke-linecap: round"/>
     </g>
     <g id="text_2">
      <!-- Summer -->
      <g style="fill: #262626" transform="translate(329.837672 703.415625) scale(0.12 -0.12)">
       <defs>
        <path id="ArialMT-75" d="M 2597 0 
L 2597 488 
Q 2209 -75 1544 -75 
Q 1250 -75 995 37 
Q 741 150 617 320 
Q 494 491 444 738 
Q 409 903 409 1263 
L 409 3319 
L 972 3319 
L 972 1478 
Q 972 1038 1006 884 
Q 1059 663 1231 536 
Q 1403 409 1656 409 
Q 1909 409 2131 539 
Q 2353 669 2445 892 
Q 2538 1116 2538 1541 
L 2538 3319 
L 3100 3319 
L 3100 0 
L 2597 0 
z
" transform="scale(0.015625)"/>
        <path id="ArialMT-6d" d="M 422 0 
L 422 3319 
L 925 3319 
L 925 2853 
Q 1081 3097 1340 3245 
Q 1600 3394 1931 3394 
Q 2300 3394 2536 3241 
Q 2772 3088 2869 2813 
Q 3263 3394 3894 3394 
Q 4388 3394 4653 3120 
Q 4919 2847 4919 2278 
L 4919 0 
L 4359 0 
L 4359 2091 
Q 4359 2428 4304 2576 
Q 4250 2725 4106 2815 
Q 3963 2906 3769 2906 
Q 3419 2906 3187 2673 
Q 2956 2441 2956 1928 
L 2956 0 
L 2394 0 
L 2394 2156 
Q 2394 2531 2256 2718 
Q 2119 2906 1806 2906 
Q 1569 2906 1367 2781 
Q 1166 2656 1075 2415 
Q 984 2175 984 1722 
L 984 0 
L 422 0 
z
" transform="scale(0.015625)"/>
        <path id="ArialMT-65" d="M 2694 1069 
L 3275 997 
Q 3138 488 2766 206 
Q 2394 -75 1816 -75 
Q 1088 -75 661 373 
Q 234 822 234 1631 
Q 234 2469 665 2931 
Q 1097 3394 1784 3394 
Q 2450 3394 2872 2941 
Q 3294 2488 3294 1666 
Q 3294 1616 3291 1516 
L 816 1516 
Q 847 969 1125 678 
Q 1403 388 1819 388 
Q 2128 388 2347 550 
Q 2566 713 2694 1069 
z
M 847 1978 
L 2700 1978 
Q 2663 2397 2488 2606 
Q 2219 2931 1791 2931 
Q 1403 2931 1139 2672 
Q 875 2413 847 1978 
z
" transform="scale(0.015625)"/>
       </defs>
       <use xlink:href="#ArialMT-53"/>
       <use xlink:href="#ArialMT-75" transform="translate(66.699219 0)"/>
       <use xlink:href="#ArialMT-6d" transform="translate(122.314453 0)"/>
       <use xlink:href="#ArialMT-6d" transform="translate(205.615234 0)"/>
       <use xlink:href="#ArialMT-65" transform="translate(288.916016 0)"/>
       <use xlink:href="#ArialMT-72" transform="translate(344.53125 0)"/>
      </g>
     </g>
    </g>
    <g id="xtick_3">
     <g id="line2d_3">
      <path d="M 529.527953 687.82625 
L 529.527953 38.8475 
" clip-path="url(#p63ede2b448)" style="fill: none; stroke: #ffffff; stroke-linecap: round"/>
     </g>
     <g id="text_3">
      <!-- Autumn -->
      <g style="fill: #262626" transform="translate(508.851391 703.415625) scale(0.12 -0.12)">
       <defs>
        <path id="ArialMT-41" d="M -9 0 
L 1750 4581 
L 2403 4581 
L 4278 0 
L 3588 0 
L 3053 1388 
L 1138 1388 
L 634 0 
L -9 0 
z
M 1313 1881 
L 2866 1881 
L 2388 3150 
Q 2169 3728 2063 4100 
Q 1975 3659 1816 3225 
L 1313 1881 
z
" transform="scale(0.015625)"/>
        <path id="ArialMT-74" d="M 1650 503 
L 1731 6 
Q 1494 -44 1306 -44 
Q 1000 -44 831 53 
Q 663 150 594 308 
Q 525 466 525 972 
L 525 2881 
L 113 2881 
L 113 3319 
L 525 3319 
L 525 4141 
L 1084 4478 
L 1084 3319 
L 1650 3319 
L 1650 2881 
L 1084 2881 
L 1084 941 
Q 1084 700 1114 631 
Q 1144 563 1211 522 
Q 1278 481 1403 481 
Q 1497 481 1650 503 
z
" transform="scale(0.015625)"/>
       </defs>
       <use xlink:href="#ArialMT-41"/>
       <use xlink:href="#ArialMT-75" transform="translate(66.699219 0)"/>
       <use xlink:href="#ArialMT-74" transform="translate(122.314453 0)"/>
       <use xlink:href="#ArialMT-75" transform="translate(150.097656 0)"/>
       <use xlink:href="#ArialMT-6d" transform="translate(205.712891 0)"/>
       <use xlink:href="#ArialMT-6e" transform="translate(289.013672 0)"/>
      </g>
     </g>
    </g>
    <g id="xtick_4">
     <g id="line2d_4">
      <path d="M 706.549484 687.82625 
L 706.549484 38.8475 
" clip-path="url(#p63ede2b448)" style="fill: none; stroke: #ffffff; stroke-linecap: round"/>
     </g>
     <g id="text_4">
      <!-- Winter -->
      <g style="fill: #262626" transform="translate(689.215109 703.415625) scale(0.12 -0.12)">
       <defs>
        <path id="ArialMT-57" d="M 1294 0 
L 78 4581 
L 700 4581 
L 1397 1578 
Q 1509 1106 1591 641 
Q 1766 1375 1797 1488 
L 2669 4581 
L 3400 4581 
L 4056 2263 
Q 4303 1400 4413 641 
Q 4500 1075 4641 1638 
L 5359 4581 
L 5969 4581 
L 4713 0 
L 4128 0 
L 3163 3491 
Q 3041 3928 3019 4028 
Q 2947 3713 2884 3491 
L 1913 0 
L 1294 0 
z
" transform="scale(0.015625)"/>
       </defs>
       <use xlink:href="#ArialMT-57"/>
       <use xlink:href="#ArialMT-69" transform="translate(94.384766 0)"/>
       <use xlink:href="#ArialMT-6e" transform="translate(116.601562 0)"/>
       <use xlink:href="#ArialMT-74" transform="translate(172.216797 0)"/>
       <use xlink:href="#ArialMT-65" transform="translate(200 0)"/>
       <use xlink:href="#ArialMT-72" transform="translate(255.615234 0)"/>
      </g>
     </g>
    </g>
   </g>
   <g id="matplotlib.axis_2">
    <g id="ytick_1">
     <g id="line2d_5">
      <path d="M 71.042188 687.82625 
L 810.992188 687.82625 
" clip-path="url(#p63ede2b448)" style="fill: none; stroke: #ffffff; stroke-opacity: 0.3; stroke-linecap: round"/>
     </g>
     <g id="text_5">
      <!-- 0 -->
      <g style="fill: #262626" transform="translate(57.369063 692.120937) scale(0.12 -0.12)">
       <defs>
        <path id="ArialMT-30" d="M 266 2259 
Q 266 3072 433 3567 
Q 600 4063 929 4331 
Q 1259 4600 1759 4600 
Q 2128 4600 2406 4451 
Q 2684 4303 2865 4023 
Q 3047 3744 3150 3342 
Q 3253 2941 3253 2259 
Q 3253 1453 3087 958 
Q 2922 463 2592 192 
Q 2263 -78 1759 -78 
Q 1097 -78 719 397 
Q 266 969 266 2259 
z
M 844 2259 
Q 844 1131 1108 757 
Q 1372 384 1759 384 
Q 2147 384 2411 759 
Q 2675 1134 2675 2259 
Q 2675 3391 2411 3762 
Q 2147 4134 1753 4134 
Q 1366 4134 1134 3806 
Q 844 3388 844 2259 
z
" transform="scale(0.015625)"/>
       </defs>
       <use xlink:href="#ArialMT-30"/>
      </g>
     </g>
    </g>
    <g id="ytick_2">
     <g id="line2d_6">
      <path d="M 71.042188 580.81856 
L 810.992188 580.81856 
" clip-path="url(#p63ede2b448)" style="fill: none; stroke: #ffffff; stroke-opacity: 0.3; stroke-linecap: round"/>
     </g>
     <g id="text_6">
      <!-- 100000 -->
      <g style="fill: #262626" transform="translate(24.003438 585.113248) scale(0.12 -0.12)">
       <defs>
        <path id="ArialMT-31" d="M 2384 0 
L 1822 0 
L 1822 3584 
Q 1619 3391 1289 3197 
Q 959 3003 697 2906 
L 697 3450 
Q 1169 3672 1522 3987 
Q 1875 4303 2022 4600 
L 2384 4600 
L 2384 0 
z
" transform="scale(0.015625)"/>
       </defs>
       <use xlink:href="#ArialMT-31"/>
       <use xlink:href="#ArialMT-30" transform="translate(55.615234 0)"/>
       <use xlink:href="#ArialMT-30" transform="translate(111.230469 0)"/>
       <use xlink:href="#ArialMT-30" transform="translate(166.845703 0)"/>
       <use xlink:href="#ArialMT-30" transform="translate(222.460938 0)"/>
       <use xlink:href="#ArialMT-30" transform="translate(278.076172 0)"/>
      </g>
     </g>
    </g>
    <g id="ytick_3">
     <g id="line2d_7">
      <path d="M 71.042188 473.810871 
L 810.992188 473.810871 
" clip-path="url(#p63ede2b448)" style="fill: none; stroke: #ffffff; stroke-opacity: 0.3; stroke-linecap: round"/>
     </g>
     <g id="text_7">
      <!-- 200000 -->
      <g style="fill: #262626" transform="translate(24.003438 478.105558) scale(0.12 -0.12)">
       <defs>
        <path id="ArialMT-32" d="M 3222 541 
L 3222 0 
L 194 0 
Q 188 203 259 391 
Q 375 700 629 1000 
Q 884 1300 1366 1694 
Q 2113 2306 2375 2664 
Q 2638 3022 2638 3341 
Q 2638 3675 2398 3904 
Q 2159 4134 1775 4134 
Q 1369 4134 1125 3890 
Q 881 3647 878 3216 
L 300 3275 
Q 359 3922 746 4261 
Q 1134 4600 1788 4600 
Q 2447 4600 2831 4234 
Q 3216 3869 3216 3328 
Q 3216 3053 3103 2787 
Q 2991 2522 2730 2228 
Q 2469 1934 1863 1422 
Q 1356 997 1212 845 
Q 1069 694 975 541 
L 3222 541 
z
" transform="scale(0.015625)"/>
       </defs>
       <use xlink:href="#ArialMT-32"/>
       <use xlink:href="#ArialMT-30" transform="translate(55.615234 0)"/>
       <use xlink:href="#ArialMT-30" transform="translate(111.230469 0)"/>
       <use xlink:href="#ArialMT-30" transform="translate(166.845703 0)"/>
       <use xlink:href="#ArialMT-30" transform="translate(222.460938 0)"/>
       <use xlink:href="#ArialMT-30" transform="translate(278.076172 0)"/>
      </g>
     </g>
    </g>
    <g id="ytick_4">
     <g id="line2d_8">
      <path d="M 71.042188 366.803181 
L 810.992188 366.803181 
" clip-path="url(#p63ede2b448)" style="fill: none; stroke: #ffffff; stroke-opacity: 0.3; stroke-linecap: round"/>
     </g>
     <g id="text_8">
      <!-- 300000 -->
      <g style="fill: #262626" transform="translate(24.003438 371.097868) scale(0.12 -0.12)">
       <defs>
        <path id="ArialMT-33" d="M 269 1209 
L 831 1284 
Q 928 806 1161 595 
Q 1394 384 1728 384 
Q 2125 384 2398 659 
Q 2672 934 2672 1341 
Q 2672 1728 2419 1979 
Q 2166 2231 1775 2231 
Q 1616 2231 1378 2169 
L 1441 2663 
Q 1497 2656 1531 2656 
Q 1891 2656 2178 2843 
Q 2466 3031 2466 3422 
Q 2466 3731 2256 3934 
Q 2047 4138 1716 4138 
Q 1388 4138 1169 3931 
Q 950 3725 888 3313 
L 325 3413 
Q 428 3978 793 4289 
Q 1159 4600 1703 4600 
Q 2078 4600 2393 4439 
Q 2709 4278 2876 4000 
Q 3044 3722 3044 3409 
Q 3044 3113 2884 2869 
Q 2725 2625 2413 2481 
Q 2819 2388 3044 2092 
Q 3269 1797 3269 1353 
Q 3269 753 2831 336 
Q 2394 -81 1725 -81 
Q 1122 -81 723 278 
Q 325 638 269 1209 
z
" transform="scale(0.015625)"/>
       </defs>
       <use xlink:href="#ArialMT-33"/>
       <use xlink:href="#ArialMT-30" transform="translate(55.615234 0)"/>
       <use xlink:href="#ArialMT-30" transform="translate(111.230469 0)"/>
       <use xlink:href="#ArialMT-30" transform="translate(166.845703 0)"/>
       <use xlink:href="#ArialMT-30" transform="translate(222.460938 0)"/>
       <use xlink:href="#ArialMT-30" transform="translate(278.076172 0)"/>
      </g>
     </g>
    </g>
    <g id="ytick_5">
     <g id="line2d_9">
      <path d="M 71.042188 259.795491 
L 810.992188 259.795491 
" clip-path="url(#p63ede2b448)" style="fill: none; stroke: #ffffff; stroke-opacity: 0.3; stroke-linecap: round"/>
     </g>
     <g id="text_9">
      <!-- 400000 -->
      <g style="fill: #262626" transform="translate(24.003438 264.090179) scale(0.12 -0.12)">
       <defs>
        <path id="ArialMT-34" d="M 2069 0 
L 2069 1097 
L 81 1097 
L 81 1613 
L 2172 4581 
L 2631 4581 
L 2631 1613 
L 3250 1613 
L 3250 1097 
L 2631 1097 
L 2631 0 
L 2069 0 
z
M 2069 1613 
L 2069 3678 
L 634 1613 
L 2069 1613 
z
" transform="scale(0.015625)"/>
       </defs>
       <use xlink:href="#ArialMT-34"/>
       <use xlink:href="#ArialMT-30" transform="translate(55.615234 0)"/>
       <use xlink:href="#ArialMT-30" transform="translate(111.230469 0)"/>
       <use xlink:href="#ArialMT-30" transform="translate(166.845703 0)"/>
       <use xlink:href="#ArialMT-30" transform="translate(222.460938 0)"/>
       <use xlink:href="#ArialMT-30" transform="translate(278.076172 0)"/>
      </g>
     </g>
    </g>
    <g id="ytick_6">
     <g id="line2d_10">
      <path d="M 71.042188 152.787801 
L 810.992188 152.787801 
" clip-path="url(#p63ede2b448)" style="fill: none; stroke: #ffffff; stroke-opacity: 0.3; stroke-linecap: round"/>
     </g>
     <g id="text_10">
      <!-- 500000 -->
      <g style="fill: #262626" transform="translate(24.003438 157.082489) scale(0.12 -0.12)">
       <defs>
        <path id="ArialMT-35" d="M 266 1200 
L 856 1250 
Q 922 819 1161 601 
Q 1400 384 1738 384 
Q 2144 384 2425 690 
Q 2706 997 2706 1503 
Q 2706 1984 2436 2262 
Q 2166 2541 1728 2541 
Q 1456 2541 1237 2417 
Q 1019 2294 894 2097 
L 366 2166 
L 809 4519 
L 3088 4519 
L 3088 3981 
L 1259 3981 
L 1013 2750 
Q 1425 3038 1878 3038 
Q 2478 3038 2890 2622 
Q 3303 2206 3303 1553 
Q 3303 931 2941 478 
Q 2500 -78 1738 -78 
Q 1113 -78 717 272 
Q 322 622 266 1200 
z
" transform="scale(0.015625)"/>
       </defs>
       <use xlink:href="#ArialMT-35"/>
       <use xlink:href="#ArialMT-30" transform="translate(55.615234 0)"/>
       <use xlink:href="#ArialMT-30" transform="translate(111.230469 0)"/>
       <use xlink:href="#ArialMT-30" transform="translate(166.845703 0)"/>
       <use xlink:href="#ArialMT-30" transform="translate(222.460938 0)"/>
       <use xlink:href="#ArialMT-30" transform="translate(278.076172 0)"/>
      </g>
     </g>
    </g>
    <g id="ytick_7">
     <g id="line2d_11">
      <path d="M 71.042188 45.780112 
L 810.992188 45.780112 
" clip-path="url(#p63ede2b448)" style="fill: none; stroke: #ffffff; stroke-opacity: 0.3; stroke-linecap: round"/>
     </g>
     <g id="text_11">
      <!-- 600000 -->
      <g style="fill: #262626" transform="translate(24.003438 50.074799) scale(0.12 -0.12)">
       <defs>
        <path id="ArialMT-36" d="M 3184 3459 
L 2625 3416 
Q 2550 3747 2413 3897 
Q 2184 4138 1850 4138 
Q 1581 4138 1378 3988 
Q 1113 3794 959 3422 
Q 806 3050 800 2363 
Q 1003 2672 1297 2822 
Q 1591 2972 1913 2972 
Q 2475 2972 2870 2558 
Q 3266 2144 3266 1488 
Q 3266 1056 3080 686 
Q 2894 316 2569 119 
Q 2244 -78 1831 -78 
Q 1128 -78 684 439 
Q 241 956 241 2144 
Q 241 3472 731 4075 
Q 1159 4600 1884 4600 
Q 2425 4600 2770 4297 
Q 3116 3994 3184 3459 
z
M 888 1484 
Q 888 1194 1011 928 
Q 1134 663 1356 523 
Q 1578 384 1822 384 
Q 2178 384 2434 671 
Q 2691 959 2691 1453 
Q 2691 1928 2437 2201 
Q 2184 2475 1800 2475 
Q 1419 2475 1153 2201 
Q 888 1928 888 1484 
z
" transform="scale(0.015625)"/>
       </defs>
       <use xlink:href="#ArialMT-36"/>
       <use xlink:href="#ArialMT-30" transform="translate(55.615234 0)"/>
       <use xlink:href="#ArialMT-30" transform="translate(111.230469 0)"/>
       <use xlink:href="#ArialMT-30" transform="translate(166.845703 0)"/>
       <use xlink:href="#ArialMT-30" transform="translate(222.460938 0)"/>
       <use xlink:href="#ArialMT-30" transform="translate(278.076172 0)"/>
      </g>
     </g>
    </g>
    <g id="text_12">
     <!-- Total Production -->
     <g style="fill: #262626" transform="translate(17.220938 413.526875) rotate(-90) scale(0.14 -0.14)">
      <defs>
       <path id="ArialMT-54" d="M 1659 0 
L 1659 4041 
L 150 4041 
L 150 4581 
L 3781 4581 
L 3781 4041 
L 2266 4041 
L 2266 0 
L 1659 0 
z
" transform="scale(0.015625)"/>
       <path id="ArialMT-6f" d="M 213 1659 
Q 213 2581 725 3025 
Q 1153 3394 1769 3394 
Q 2453 3394 2887 2945 
Q 3322 2497 3322 1706 
Q 3322 1066 3130 698 
Q 2938 331 2570 128 
Q 2203 -75 1769 -75 
Q 1072 -75 642 372 
Q 213 819 213 1659 
z
M 791 1659 
Q 791 1022 1069 705 
Q 1347 388 1769 388 
Q 2188 388 2466 706 
Q 2744 1025 2744 1678 
Q 2744 2294 2464 2611 
Q 2184 2928 1769 2928 
Q 1347 2928 1069 2612 
Q 791 2297 791 1659 
z
" transform="scale(0.015625)"/>
       <path id="ArialMT-61" d="M 2588 409 
Q 2275 144 1986 34 
Q 1697 -75 1366 -75 
Q 819 -75 525 192 
Q 231 459 231 875 
Q 231 1119 342 1320 
Q 453 1522 633 1644 
Q 813 1766 1038 1828 
Q 1203 1872 1538 1913 
Q 2219 1994 2541 2106 
Q 2544 2222 2544 2253 
Q 2544 2597 2384 2738 
Q 2169 2928 1744 2928 
Q 1347 2928 1158 2789 
Q 969 2650 878 2297 
L 328 2372 
Q 403 2725 575 2942 
Q 747 3159 1072 3276 
Q 1397 3394 1825 3394 
Q 2250 3394 2515 3294 
Q 2781 3194 2906 3042 
Q 3031 2891 3081 2659 
Q 3109 2516 3109 2141 
L 3109 1391 
Q 3109 606 3145 398 
Q 3181 191 3288 0 
L 2700 0 
Q 2613 175 2588 409 
z
M 2541 1666 
Q 2234 1541 1622 1453 
Q 1275 1403 1131 1340 
Q 988 1278 909 1158 
Q 831 1038 831 891 
Q 831 666 1001 516 
Q 1172 366 1500 366 
Q 1825 366 2078 508 
Q 2331 650 2450 897 
Q 2541 1088 2541 1459 
L 2541 1666 
z
" transform="scale(0.015625)"/>
       <path id="ArialMT-6c" d="M 409 0 
L 409 4581 
L 972 4581 
L 972 0 
L 409 0 
z
" transform="scale(0.015625)"/>
       <path id="ArialMT-20" transform="scale(0.015625)"/>
       <path id="ArialMT-50" d="M 494 0 
L 494 4581 
L 2222 4581 
Q 2678 4581 2919 4538 
Q 3256 4481 3484 4323 
Q 3713 4166 3852 3881 
Q 3991 3597 3991 3256 
Q 3991 2672 3619 2267 
Q 3247 1863 2275 1863 
L 1100 1863 
L 1100 0 
L 494 0 
z
M 1100 2403 
L 2284 2403 
Q 2872 2403 3119 2622 
Q 3366 2841 3366 3238 
Q 3366 3525 3220 3729 
Q 3075 3934 2838 4000 
Q 2684 4041 2272 4041 
L 1100 4041 
L 1100 2403 
z
" transform="scale(0.015625)"/>
       <path id="ArialMT-64" d="M 2575 0 
L 2575 419 
Q 2259 -75 1647 -75 
Q 1250 -75 917 144 
Q 584 363 401 755 
Q 219 1147 219 1656 
Q 219 2153 384 2558 
Q 550 2963 881 3178 
Q 1213 3394 1622 3394 
Q 1922 3394 2156 3267 
Q 2391 3141 2538 2938 
L 2538 4581 
L 3097 4581 
L 3097 0 
L 2575 0 
z
M 797 1656 
Q 797 1019 1065 703 
Q 1334 388 1700 388 
Q 2069 388 2326 689 
Q 2584 991 2584 1609 
Q 2584 2291 2321 2609 
Q 2059 2928 1675 2928 
Q 1300 2928 1048 2622 
Q 797 2316 797 1656 
z
" transform="scale(0.015625)"/>
       <path id="ArialMT-63" d="M 2588 1216 
L 3141 1144 
Q 3050 572 2676 248 
Q 2303 -75 1759 -75 
Q 1078 -75 664 370 
Q 250 816 250 1647 
Q 250 2184 428 2587 
Q 606 2991 970 3192 
Q 1334 3394 1763 3394 
Q 2303 3394 2647 3120 
Q 2991 2847 3088 2344 
L 2541 2259 
Q 2463 2594 2264 2762 
Q 2066 2931 1784 2931 
Q 1359 2931 1093 2626 
Q 828 2322 828 1663 
Q 828 994 1084 691 
Q 1341 388 1753 388 
Q 2084 388 2306 591 
Q 2528 794 2588 1216 
z
" transform="scale(0.015625)"/>
      </defs>
      <use xlink:href="#ArialMT-54"/>
      <use xlink:href="#ArialMT-6f" transform="translate(49.958984 0)"/>
      <use xlink:href="#ArialMT-74" transform="translate(105.574219 0)"/>
      <use xlink:href="#ArialMT-61" transform="translate(133.357422 0)"/>
      <use xlink:href="#ArialMT-6c" transform="translate(188.972656 0)"/>
      <use xlink:href="#ArialMT-20" transform="translate(211.189453 0)"/>
      <use xlink:href="#ArialMT-50" transform="translate(238.972656 0)"/>
      <use xlink:href="#ArialMT-72" transform="translate(305.671875 0)"/>
      <use xlink:href="#ArialMT-6f" transform="translate(338.972656 0)"/>
      <use xlink:href="#ArialMT-64" transform="translate(394.587891 0)"/>
      <use xlink:href="#ArialMT-75" transform="translate(450.203125 0)"/>
      <use xlink:href="#ArialMT-63" transform="translate(505.818359 0)"/>
      <use xlink:href="#ArialMT-74" transform="translate(555.818359 0)"/>
      <use xlink:href="#ArialMT-69" transform="translate(583.601562 0)"/>
      <use xlink:href="#ArialMT-6f" transform="translate(605.818359 0)"/>
      <use xlink:href="#ArialMT-6e" transform="translate(661.433594 0)"/>
     </g>
    </g>
   </g>
   <g id="patch_3">
    <path d="M 104.676278 687.82625 
L 128.279149 687.82625 
L 128.279149 611.619886 
L 104.676278 611.619886 
z
" clip-path="url(#p63ede2b448)" style="fill: #406080; opacity: 0.8; stroke: #000000; stroke-width: 0.5; stroke-linejoin: miter"/>
   </g>
   <g id="patch_4">
    <path d="M 281.69781 687.82625 
L 305.30068 687.82625 
L 305.30068 612.609855 
L 281.69781 612.609855 
z
" clip-path="url(#p63ede2b448)" style="fill: #406080; opacity: 0.8; stroke: #000000; stroke-width: 0.5; stroke-linejoin: miter"/>
   </g>
   <g id="patch_5">
    <path d="M 458.719341 687.82625 
L 482.322211 687.82625 
L 482.322211 638.71989 
L 458.719341 638.71989 
z
" clip-path="url(#p63ede2b448)" style="fill: #406080; opacity: 0.8; stroke: #000000; stroke-width: 0.5; stroke-linejoin: miter"/>
   </g>
   <g id="patch_6">
    <path d="M 635.740872 687.82625 
L 659.343743 687.82625 
L 659.343743 658.503785 
L 635.740872 658.503785 
z
" clip-path="url(#p63ede2b448)" style="fill: #406080; opacity: 0.8; stroke: #000000; stroke-width: 0.5; stroke-linejoin: miter"/>
   </g>
   <g id="patch_7">
    <path d="M 128.279149 687.82625 
L 151.88202 687.82625 
L 151.88202 646.509019 
L 128.279149 646.509019 
z
" clip-path="url(#p63ede2b448)" style="fill: #4c7399; opacity: 0.8; stroke: #000000; stroke-width: 0.5; stroke-linejoin: miter"/>
   </g>
   <g id="patch_8">
    <path d="M 305.30068 687.82625 
L 328.903551 687.82625 
L 328.903551 637.045781 
L 305.30068 637.045781 
z
" clip-path="url(#p63ede2b448)" style="fill: #4c7399; opacity: 0.8; stroke: #000000; stroke-width: 0.5; stroke-linejoin: miter"/>
   </g>
   <g id="patch_9">
    <path d="M 482.322211 687.82625 
L 505.925082 687.82625 
L 505.925082 646.983753 
L 482.322211 646.983753 
z
" clip-path="url(#p63ede2b448)" style="fill: #4c7399; opacity: 0.8; stroke: #000000; stroke-width: 0.5; stroke-linejoin: miter"/>
   </g>
   <g id="patch_10">
    <path d="M 659.343743 687.82625 
L 682.946613 687.82625 
L 682.946613 658.212613 
L 659.343743 658.212613 
z
" clip-path="url(#p63ede2b448)" style="fill: #4c7399; opacity: 0.8; stroke: #000000; stroke-width: 0.5; stroke-linejoin: miter"/>
   </g>
   <g id="patch_11">
    <path d="M 151.88202 687.82625 
L 175.484891 687.82625 
L 175.484891 557.285172 
L 151.88202 557.285172 
z
" clip-path="url(#p63ede2b448)" style="fill: #5986b2; opacity: 0.8; stroke: #000000; stroke-width: 0.5; stroke-linejoin: miter"/>
   </g>
   <g id="patch_12">
    <path d="M 328.903551 687.82625 
L 352.506422 687.82625 
L 352.506422 526.359912 
L 328.903551 526.359912 
z
" clip-path="url(#p63ede2b448)" style="fill: #5986b2; opacity: 0.8; stroke: #000000; stroke-width: 0.5; stroke-linejoin: miter"/>
   </g>
   <g id="patch_13">
    <path d="M 505.925082 687.82625 
L 529.527953 687.82625 
L 529.527953 605.615688 
L 505.925082 605.615688 
z
" clip-path="url(#p63ede2b448)" style="fill: #5986b2; opacity: 0.8; stroke: #000000; stroke-width: 0.5; stroke-linejoin: miter"/>
   </g>
   <g id="patch_14">
    <path d="M 682.946613 687.82625 
L 706.549484 687.82625 
L 706.549484 635.50286 
L 682.946613 635.50286 
z
" clip-path="url(#p63ede2b448)" style="fill: #5986b2; opacity: 0.8; stroke: #000000; stroke-width: 0.5; stroke-linejoin: miter"/>
   </g>
   <g id="patch_15">
    <path d="M 175.484891 687.82625 
L 199.087762 687.82625 
L 199.087762 94.577757 
L 175.484891 94.577757 
z
" clip-path="url(#p63ede2b448)" style="fill: #6699cc; opacity: 0.8; stroke: #000000; stroke-width: 0.5; stroke-linejoin: miter"/>
   </g>
   <g id="patch_16">
    <path d="M 352.506422 687.82625 
L 376.109293 687.82625 
L 376.109293 69.75125 
L 352.506422 69.75125 
z
" clip-path="url(#p63ede2b448)" style="fill: #6699cc; opacity: 0.8; stroke: #000000; stroke-width: 0.5; stroke-linejoin: miter"/>
   </g>
   <g id="patch_17">
    <path d="M 529.527953 687.82625 
L 553.130824 687.82625 
L 553.130824 221.971523 
L 529.527953 221.971523 
z
" clip-path="url(#p63ede2b448)" style="fill: #6699cc; opacity: 0.8; stroke: #000000; stroke-width: 0.5; stroke-linejoin: miter"/>
   </g>
   <g id="patch_18">
    <path d="M 706.549484 687.82625 
L 730.152355 687.82625 
L 730.152355 275.520179 
L 706.549484 275.520179 
z
" clip-path="url(#p63ede2b448)" style="fill: #6699cc; opacity: 0.8; stroke: #000000; stroke-width: 0.5; stroke-linejoin: miter"/>
   </g>
   <g id="patch_19">
    <path d="M 199.087762 687.82625 
L 222.690632 687.82625 
L 222.690632 612.624593 
L 199.087762 612.624593 
z
" clip-path="url(#p63ede2b448)" style="fill: #72ace6; opacity: 0.8; stroke: #000000; stroke-width: 0.5; stroke-linejoin: miter"/>
   </g>
   <g id="patch_20">
    <path d="M 376.109293 687.82625 
L 399.712164 687.82625 
L 399.712164 621.044404 
L 376.109293 621.044404 
z
" clip-path="url(#p63ede2b448)" style="fill: #72ace6; opacity: 0.8; stroke: #000000; stroke-width: 0.5; stroke-linejoin: miter"/>
   </g>
   <g id="patch_21">
    <path d="M 553.130824 687.82625 
L 576.733695 687.82625 
L 576.733695 636.264978 
L 553.130824 636.264978 
z
" clip-path="url(#p63ede2b448)" style="fill: #72ace6; opacity: 0.8; stroke: #000000; stroke-width: 0.5; stroke-linejoin: miter"/>
   </g>
   <g id="patch_22">
    <path d="M 730.152355 687.82625 
L 753.755226 687.82625 
L 753.755226 658.016632 
L 730.152355 658.016632 
z
" clip-path="url(#p63ede2b448)" style="fill: #72ace6; opacity: 0.8; stroke: #000000; stroke-width: 0.5; stroke-linejoin: miter"/>
   </g>
   <g id="patch_23">
    <path d="M 222.690632 687.82625 
L 246.293503 687.82625 
L 246.293503 590.959967 
L 222.690632 590.959967 
z
" clip-path="url(#p63ede2b448)" style="fill: #7fbfff; opacity: 0.8; stroke: #000000; stroke-width: 0.5; stroke-linejoin: miter"/>
   </g>
   <g id="patch_24">
    <path d="M 399.712164 687.82625 
L 423.315034 687.82625 
L 423.315034 614.677908 
L 399.712164 614.677908 
z
" clip-path="url(#p63ede2b448)" style="fill: #7fbfff; opacity: 0.8; stroke: #000000; stroke-width: 0.5; stroke-linejoin: miter"/>
   </g>
   <g id="patch_25">
    <path d="M 576.733695 687.82625 
L 600.336565 687.82625 
L 600.336565 596.152248 
L 576.733695 596.152248 
z
" clip-path="url(#p63ede2b448)" style="fill: #7fbfff; opacity: 0.8; stroke: #000000; stroke-width: 0.5; stroke-linejoin: miter"/>
   </g>
   <g id="patch_26">
    <path d="M 753.755226 687.82625 
L 777.358097 687.82625 
L 777.358097 603.280789 
L 753.755226 603.280789 
z
" clip-path="url(#p63ede2b448)" style="fill: #7fbfff; opacity: 0.8; stroke: #000000; stroke-width: 0.5; stroke-linejoin: miter"/>
   </g>
   <g id="patch_27">
    <path d="M 71.042188 687.82625 
L 71.042188 38.8475 
" style="fill: none"/>
   </g>
   <g id="patch_28">
    <path d="M 810.992188 687.82625 
L 810.992188 38.8475 
" style="fill: none"/>
   </g>
   <g id="patch_29">
    <path d="M 71.042188 687.82625 
L 810.992188 687.82625 
" style="fill: none"/>
   </g>
   <g id="patch_30">
    <path d="M 71.042188 38.8475 
L 810.992188 38.8475 
" style="fill: none"/>
   </g>
   <g id="text_13">
    <g id="patch_31">
     <path d="M 98.128026 614.019886 
L 134.827401 614.019886 
Q 137.227401 614.019886 137.227401 611.619886 
L 137.227401 600.662386 
Q 137.227401 598.262386 134.827401 598.262386 
L 98.128026 598.262386 
Q 95.728026 598.262386 95.728026 600.662386 
L 95.728026 611.619886 
Q 95.728026 614.019886 98.128026 614.019886 
z
" style="fill: #ffffff; opacity: 0.7"/>
    </g>
    <!-- 71,216 -->
    <g style="fill: #262626" transform="translate(98.128026 609.251761) scale(0.12 -0.12)">
     <defs>
      <path id="Arial-BoldMT-37" d="M 272 3703 
L 272 4519 
L 3275 4519 
L 3275 3881 
Q 2903 3516 2518 2831 
Q 2134 2147 1932 1376 
Q 1731 606 1734 0 
L 888 0 
Q 909 950 1279 1937 
Q 1650 2925 2269 3703 
L 272 3703 
z
" transform="scale(0.015625)"/>
      <path id="Arial-BoldMT-31" d="M 2519 0 
L 1641 0 
L 1641 3309 
Q 1159 2859 506 2644 
L 506 3441 
Q 850 3553 1253 3867 
Q 1656 4181 1806 4600 
L 2519 4600 
L 2519 0 
z
" transform="scale(0.015625)"/>
      <path id="Arial-BoldMT-2c" d="M 438 878 
L 1316 878 
L 1316 250 
Q 1316 -131 1250 -351 
Q 1184 -572 1001 -747 
Q 819 -922 538 -1022 
L 366 -659 
Q 631 -572 743 -419 
Q 856 -266 863 0 
L 438 0 
L 438 878 
z
" transform="scale(0.015625)"/>
      <path id="Arial-BoldMT-32" d="M 3238 816 
L 3238 0 
L 159 0 
Q 209 463 459 877 
Q 709 1291 1447 1975 
Q 2041 2528 2175 2725 
Q 2356 2997 2356 3263 
Q 2356 3556 2198 3714 
Q 2041 3872 1763 3872 
Q 1488 3872 1325 3706 
Q 1163 3541 1138 3156 
L 263 3244 
Q 341 3969 753 4284 
Q 1166 4600 1784 4600 
Q 2463 4600 2850 4234 
Q 3238 3869 3238 3325 
Q 3238 3016 3127 2736 
Q 3016 2456 2775 2150 
Q 2616 1947 2200 1565 
Q 1784 1184 1673 1059 
Q 1563 934 1494 816 
L 3238 816 
z
" transform="scale(0.015625)"/>
      <path id="Arial-BoldMT-36" d="M 3247 3459 
L 2397 3366 
Q 2366 3628 2234 3753 
Q 2103 3878 1894 3878 
Q 1616 3878 1423 3628 
Q 1231 3378 1181 2588 
Q 1509 2975 1997 2975 
Q 2547 2975 2939 2556 
Q 3331 2138 3331 1475 
Q 3331 772 2918 347 
Q 2506 -78 1859 -78 
Q 1166 -78 719 461 
Q 272 1000 272 2228 
Q 272 3488 737 4044 
Q 1203 4600 1947 4600 
Q 2469 4600 2811 4308 
Q 3153 4016 3247 3459 
z
M 1256 1544 
Q 1256 1116 1453 883 
Q 1650 650 1903 650 
Q 2147 650 2309 840 
Q 2472 1031 2472 1466 
Q 2472 1913 2297 2120 
Q 2122 2328 1859 2328 
Q 1606 2328 1431 2129 
Q 1256 1931 1256 1544 
z
" transform="scale(0.015625)"/>
     </defs>
     <use xlink:href="#Arial-BoldMT-37"/>
     <use xlink:href="#Arial-BoldMT-31" transform="translate(55.615234 0)"/>
     <use xlink:href="#Arial-BoldMT-2c" transform="translate(111.230469 0)"/>
     <use xlink:href="#Arial-BoldMT-32" transform="translate(139.013672 0)"/>
     <use xlink:href="#Arial-BoldMT-31" transform="translate(194.628906 0)"/>
     <use xlink:href="#Arial-BoldMT-36" transform="translate(250.244141 0)"/>
    </g>
   </g>
   <g id="text_14">
    <g id="patch_32">
     <path d="M 275.149557 615.009855 
L 311.848932 615.009855 
Q 314.248932 615.009855 314.248932 612.609855 
L 314.248932 601.652355 
Q 314.248932 599.252355 311.848932 599.252355 
L 275.149557 599.252355 
Q 272.749557 599.252355 272.749557 601.652355 
L 272.749557 612.609855 
Q 272.749557 615.009855 275.149557 615.009855 
z
" style="fill: #ffffff; opacity: 0.7"/>
    </g>
    <!-- 70,291 -->
    <g style="fill: #262626" transform="translate(275.149557 610.24173) scale(0.12 -0.12)">
     <defs>
      <path id="Arial-BoldMT-30" d="M 1756 4600 
Q 2422 4600 2797 4125 
Q 3244 3563 3244 2259 
Q 3244 959 2794 391 
Q 2422 -78 1756 -78 
Q 1088 -78 678 436 
Q 269 950 269 2269 
Q 269 3563 719 4131 
Q 1091 4600 1756 4600 
z
M 1756 3872 
Q 1597 3872 1472 3770 
Q 1347 3669 1278 3406 
Q 1188 3066 1188 2259 
Q 1188 1453 1269 1151 
Q 1350 850 1473 750 
Q 1597 650 1756 650 
Q 1916 650 2041 751 
Q 2166 853 2234 1116 
Q 2325 1453 2325 2259 
Q 2325 3066 2244 3367 
Q 2163 3669 2039 3770 
Q 1916 3872 1756 3872 
z
" transform="scale(0.015625)"/>
      <path id="Arial-BoldMT-39" d="M 291 1059 
L 1141 1153 
Q 1172 894 1303 769 
Q 1434 644 1650 644 
Q 1922 644 2112 894 
Q 2303 1144 2356 1931 
Q 2025 1547 1528 1547 
Q 988 1547 595 1964 
Q 203 2381 203 3050 
Q 203 3747 617 4173 
Q 1031 4600 1672 4600 
Q 2369 4600 2816 4061 
Q 3263 3522 3263 2288 
Q 3263 1031 2797 475 
Q 2331 -81 1584 -81 
Q 1047 -81 715 205 
Q 384 491 291 1059 
z
M 2278 2978 
Q 2278 3403 2083 3637 
Q 1888 3872 1631 3872 
Q 1388 3872 1227 3680 
Q 1066 3488 1066 3050 
Q 1066 2606 1241 2398 
Q 1416 2191 1678 2191 
Q 1931 2191 2104 2391 
Q 2278 2591 2278 2978 
z
" transform="scale(0.015625)"/>
     </defs>
     <use xlink:href="#Arial-BoldMT-37"/>
     <use xlink:href="#Arial-BoldMT-30" transform="translate(55.615234 0)"/>
     <use xlink:href="#Arial-BoldMT-2c" transform="translate(111.230469 0)"/>
     <use xlink:href="#Arial-BoldMT-32" transform="translate(139.013672 0)"/>
     <use xlink:href="#Arial-BoldMT-39" transform="translate(194.628906 0)"/>
     <use xlink:href="#Arial-BoldMT-31" transform="translate(250.244141 0)"/>
    </g>
   </g>
   <g id="text_15">
    <g id="patch_33">
     <path d="M 452.171089 641.11989 
L 488.870464 641.11989 
Q 491.270464 641.11989 491.270464 638.71989 
L 491.270464 627.76239 
Q 491.270464 625.36239 488.870464 625.36239 
L 452.171089 625.36239 
Q 449.771089 625.36239 449.771089 627.76239 
L 449.771089 638.71989 
Q 449.771089 641.11989 452.171089 641.11989 
z
" style="fill: #ffffff; opacity: 0.7"/>
    </g>
    <!-- 45,890 -->
    <g style="fill: #262626" transform="translate(452.171089 636.351765) scale(0.12 -0.12)">
     <defs>
      <path id="Arial-BoldMT-34" d="M 1994 0 
L 1994 922 
L 119 922 
L 119 1691 
L 2106 4600 
L 2844 4600 
L 2844 1694 
L 3413 1694 
L 3413 922 
L 2844 922 
L 2844 0 
L 1994 0 
z
M 1994 1694 
L 1994 3259 
L 941 1694 
L 1994 1694 
z
" transform="scale(0.015625)"/>
      <path id="Arial-BoldMT-35" d="M 284 1178 
L 1159 1269 
Q 1197 972 1381 798 
Q 1566 625 1806 625 
Q 2081 625 2272 848 
Q 2463 1072 2463 1522 
Q 2463 1944 2273 2155 
Q 2084 2366 1781 2366 
Q 1403 2366 1103 2031 
L 391 2134 
L 841 4519 
L 3163 4519 
L 3163 3697 
L 1506 3697 
L 1369 2919 
Q 1663 3066 1969 3066 
Q 2553 3066 2959 2641 
Q 3366 2216 3366 1538 
Q 3366 972 3038 528 
Q 2591 -78 1797 -78 
Q 1163 -78 763 262 
Q 363 603 284 1178 
z
" transform="scale(0.015625)"/>
      <path id="Arial-BoldMT-38" d="M 1025 2472 
Q 684 2616 529 2867 
Q 375 3119 375 3419 
Q 375 3931 733 4265 
Q 1091 4600 1750 4600 
Q 2403 4600 2764 4265 
Q 3125 3931 3125 3419 
Q 3125 3100 2959 2851 
Q 2794 2603 2494 2472 
Q 2875 2319 3073 2025 
Q 3272 1731 3272 1347 
Q 3272 713 2867 316 
Q 2463 -81 1791 -81 
Q 1166 -81 750 247 
Q 259 634 259 1309 
Q 259 1681 443 1992 
Q 628 2303 1025 2472 
z
M 1206 3356 
Q 1206 3094 1354 2947 
Q 1503 2800 1750 2800 
Q 2000 2800 2150 2948 
Q 2300 3097 2300 3359 
Q 2300 3606 2151 3754 
Q 2003 3903 1759 3903 
Q 1506 3903 1356 3753 
Q 1206 3603 1206 3356 
z
M 1125 1394 
Q 1125 1031 1311 828 
Q 1497 625 1775 625 
Q 2047 625 2225 820 
Q 2403 1016 2403 1384 
Q 2403 1706 2222 1901 
Q 2041 2097 1763 2097 
Q 1441 2097 1283 1875 
Q 1125 1653 1125 1394 
z
" transform="scale(0.015625)"/>
     </defs>
     <use xlink:href="#Arial-BoldMT-34"/>
     <use xlink:href="#Arial-BoldMT-35" transform="translate(55.615234 0)"/>
     <use xlink:href="#Arial-BoldMT-2c" transform="translate(111.230469 0)"/>
     <use xlink:href="#Arial-BoldMT-38" transform="translate(139.013672 0)"/>
     <use xlink:href="#Arial-BoldMT-39" transform="translate(194.628906 0)"/>
     <use xlink:href="#Arial-BoldMT-30" transform="translate(250.244141 0)"/>
    </g>
   </g>
   <g id="text_16">
    <g id="patch_34">
     <path d="M 629.19262 660.903785 
L 665.891995 660.903785 
Q 668.291995 660.903785 668.291995 658.503785 
L 668.291995 647.546285 
Q 668.291995 645.146285 665.891995 645.146285 
L 629.19262 645.146285 
Q 626.79262 645.146285 626.79262 647.546285 
L 626.79262 658.503785 
Q 626.79262 660.903785 629.19262 660.903785 
z
" style="fill: #ffffff; opacity: 0.7"/>
    </g>
    <!-- 27,402 -->
    <g style="fill: #262626" transform="translate(629.19262 656.13566) scale(0.12 -0.12)">
     <use xlink:href="#Arial-BoldMT-32"/>
     <use xlink:href="#Arial-BoldMT-37" transform="translate(55.615234 0)"/>
     <use xlink:href="#Arial-BoldMT-2c" transform="translate(111.230469 0)"/>
     <use xlink:href="#Arial-BoldMT-34" transform="translate(139.013672 0)"/>
     <use xlink:href="#Arial-BoldMT-30" transform="translate(194.628906 0)"/>
     <use xlink:href="#Arial-BoldMT-32" transform="translate(250.244141 0)"/>
    </g>
   </g>
   <g id="text_17">
    <g id="patch_35">
     <path d="M 122.060897 648.909019 
L 158.100272 648.909019 
Q 160.500272 648.909019 160.500272 646.509019 
L 160.500272 635.551519 
Q 160.500272 633.151519 158.100272 633.151519 
L 122.060897 633.151519 
Q 119.660897 633.151519 119.660897 635.551519 
L 119.660897 646.509019 
Q 119.660897 648.909019 122.060897 648.909019 
z
" style="fill: #ffffff; opacity: 0.7"/>
    </g>
    <!-- 38,611 -->
    <g style="fill: #262626" transform="translate(122.060897 644.140894) scale(0.12 -0.12)">
     <defs>
      <path id="Arial-BoldMT-33" d="M 241 1216 
L 1091 1319 
Q 1131 994 1309 822 
Q 1488 650 1741 650 
Q 2013 650 2198 856 
Q 2384 1063 2384 1413 
Q 2384 1744 2206 1937 
Q 2028 2131 1772 2131 
Q 1603 2131 1369 2066 
L 1466 2781 
Q 1822 2772 2009 2936 
Q 2197 3100 2197 3372 
Q 2197 3603 2059 3740 
Q 1922 3878 1694 3878 
Q 1469 3878 1309 3722 
Q 1150 3566 1116 3266 
L 306 3403 
Q 391 3819 561 4067 
Q 731 4316 1036 4458 
Q 1341 4600 1719 4600 
Q 2366 4600 2756 4188 
Q 3078 3850 3078 3425 
Q 3078 2822 2419 2463 
Q 2813 2378 3048 2084 
Q 3284 1791 3284 1375 
Q 3284 772 2843 347 
Q 2403 -78 1747 -78 
Q 1125 -78 715 280 
Q 306 638 241 1216 
z
" transform="scale(0.015625)"/>
     </defs>
     <use xlink:href="#Arial-BoldMT-33"/>
     <use xlink:href="#Arial-BoldMT-38" transform="translate(55.615234 0)"/>
     <use xlink:href="#Arial-BoldMT-2c" transform="translate(111.230469 0)"/>
     <use xlink:href="#Arial-BoldMT-36" transform="translate(139.013672 0)"/>
     <use xlink:href="#Arial-BoldMT-31" transform="translate(194.628906 0)"/>
     <use xlink:href="#Arial-BoldMT-31" transform="translate(244.744141 0)"/>
    </g>
   </g>
   <g id="text_18">
    <g id="patch_36">
     <path d="M 298.752428 639.445781 
L 335.451803 639.445781 
Q 337.851803 639.445781 337.851803 637.045781 
L 337.851803 626.088281 
Q 337.851803 623.688281 335.451803 623.688281 
L 298.752428 623.688281 
Q 296.352428 623.688281 296.352428 626.088281 
L 296.352428 637.045781 
Q 296.352428 639.445781 298.752428 639.445781 
z
" style="fill: #ffffff; opacity: 0.7"/>
    </g>
    <!-- 47,455 -->
    <g style="fill: #262626" transform="translate(298.752428 634.677656) scale(0.12 -0.12)">
     <use xlink:href="#Arial-BoldMT-34"/>
     <use xlink:href="#Arial-BoldMT-37" transform="translate(55.615234 0)"/>
     <use xlink:href="#Arial-BoldMT-2c" transform="translate(111.230469 0)"/>
     <use xlink:href="#Arial-BoldMT-34" transform="translate(139.013672 0)"/>
     <use xlink:href="#Arial-BoldMT-35" transform="translate(194.628906 0)"/>
     <use xlink:href="#Arial-BoldMT-35" transform="translate(250.244141 0)"/>
    </g>
   </g>
   <g id="text_19">
    <g id="patch_37">
     <path d="M 475.773959 649.383753 
L 512.473334 649.383753 
Q 514.873334 649.383753 514.873334 646.983753 
L 514.873334 636.026253 
Q 514.873334 633.626253 512.473334 633.626253 
L 475.773959 633.626253 
Q 473.373959 633.626253 473.373959 636.026253 
L 473.373959 646.983753 
Q 473.373959 649.383753 475.773959 649.383753 
z
" style="fill: #ffffff; opacity: 0.7"/>
    </g>
    <!-- 38,168 -->
    <g style="fill: #262626" transform="translate(475.773959 644.615628) scale(0.12 -0.12)">
     <use xlink:href="#Arial-BoldMT-33"/>
     <use xlink:href="#Arial-BoldMT-38" transform="translate(55.615234 0)"/>
     <use xlink:href="#Arial-BoldMT-2c" transform="translate(111.230469 0)"/>
     <use xlink:href="#Arial-BoldMT-31" transform="translate(139.013672 0)"/>
     <use xlink:href="#Arial-BoldMT-36" transform="translate(194.628906 0)"/>
     <use xlink:href="#Arial-BoldMT-38" transform="translate(250.244141 0)"/>
    </g>
   </g>
   <g id="text_20">
    <g id="patch_38">
     <path d="M 652.79549 660.612613 
L 689.494865 660.612613 
Q 691.894865 660.612613 691.894865 658.212613 
L 691.894865 647.255113 
Q 691.894865 644.855113 689.494865 644.855113 
L 652.79549 644.855113 
Q 650.39549 644.855113 650.39549 647.255113 
L 650.39549 658.212613 
Q 650.39549 660.612613 652.79549 660.612613 
z
" style="fill: #ffffff; opacity: 0.7"/>
    </g>
    <!-- 27,674 -->
    <g style="fill: #262626" transform="translate(652.79549 655.844488) scale(0.12 -0.12)">
     <use xlink:href="#Arial-BoldMT-32"/>
     <use xlink:href="#Arial-BoldMT-37" transform="translate(55.615234 0)"/>
     <use xlink:href="#Arial-BoldMT-2c" transform="translate(111.230469 0)"/>
     <use xlink:href="#Arial-BoldMT-36" transform="translate(139.013672 0)"/>
     <use xlink:href="#Arial-BoldMT-37" transform="translate(194.628906 0)"/>
     <use xlink:href="#Arial-BoldMT-34" transform="translate(250.244141 0)"/>
    </g>
   </g>
   <g id="text_21">
    <g id="patch_39">
     <path d="M 141.997205 559.685172 
L 185.369705 559.685172 
Q 187.769705 559.685172 187.769705 557.285172 
L 187.769705 546.327672 
Q 187.769705 543.927672 185.369705 543.927672 
L 141.997205 543.927672 
Q 139.597205 543.927672 139.597205 546.327672 
L 139.597205 557.285172 
Q 139.597205 559.685172 141.997205 559.685172 
z
" style="fill: #ffffff; opacity: 0.7"/>
    </g>
    <!-- 121,992 -->
    <g style="fill: #262626" transform="translate(141.997205 554.917047) scale(0.12 -0.12)">
     <use xlink:href="#Arial-BoldMT-31"/>
     <use xlink:href="#Arial-BoldMT-32" transform="translate(55.615234 0)"/>
     <use xlink:href="#Arial-BoldMT-31" transform="translate(111.230469 0)"/>
     <use xlink:href="#Arial-BoldMT-2c" transform="translate(166.845703 0)"/>
     <use xlink:href="#Arial-BoldMT-39" transform="translate(194.628906 0)"/>
     <use xlink:href="#Arial-BoldMT-39" transform="translate(250.244141 0)"/>
     <use xlink:href="#Arial-BoldMT-32" transform="translate(305.859375 0)"/>
    </g>
   </g>
   <g id="text_22">
    <g id="patch_40">
     <path d="M 319.018737 528.759912 
L 362.391237 528.759912 
Q 364.791237 528.759912 364.791237 526.359912 
L 364.791237 515.402412 
Q 364.791237 513.002412 362.391237 513.002412 
L 319.018737 513.002412 
Q 316.618737 513.002412 316.618737 515.402412 
L 316.618737 526.359912 
Q 316.618737 528.759912 319.018737 528.759912 
z
" style="fill: #ffffff; opacity: 0.7"/>
    </g>
    <!-- 150,892 -->
    <g style="fill: #262626" transform="translate(319.018737 523.991787) scale(0.12 -0.12)">
     <use xlink:href="#Arial-BoldMT-31"/>
     <use xlink:href="#Arial-BoldMT-35" transform="translate(55.615234 0)"/>
     <use xlink:href="#Arial-BoldMT-30" transform="translate(111.230469 0)"/>
     <use xlink:href="#Arial-BoldMT-2c" transform="translate(166.845703 0)"/>
     <use xlink:href="#Arial-BoldMT-38" transform="translate(194.628906 0)"/>
     <use xlink:href="#Arial-BoldMT-39" transform="translate(250.244141 0)"/>
     <use xlink:href="#Arial-BoldMT-32" transform="translate(305.859375 0)"/>
    </g>
   </g>
   <g id="text_23">
    <g id="patch_41">
     <path d="M 499.37683 608.015688 
L 536.076205 608.015688 
Q 538.476205 608.015688 538.476205 605.615688 
L 538.476205 594.658188 
Q 538.476205 592.258188 536.076205 592.258188 
L 499.37683 592.258188 
Q 496.97683 592.258188 496.97683 594.658188 
L 496.97683 605.615688 
Q 496.97683 608.015688 499.37683 608.015688 
z
" style="fill: #ffffff; opacity: 0.7"/>
    </g>
    <!-- 76,827 -->
    <g style="fill: #262626" transform="translate(499.37683 603.247563) scale(0.12 -0.12)">
     <use xlink:href="#Arial-BoldMT-37"/>
     <use xlink:href="#Arial-BoldMT-36" transform="translate(55.615234 0)"/>
     <use xlink:href="#Arial-BoldMT-2c" transform="translate(111.230469 0)"/>
     <use xlink:href="#Arial-BoldMT-38" transform="translate(139.013672 0)"/>
     <use xlink:href="#Arial-BoldMT-32" transform="translate(194.628906 0)"/>
     <use xlink:href="#Arial-BoldMT-37" transform="translate(250.244141 0)"/>
    </g>
   </g>
   <g id="text_24">
    <g id="patch_42">
     <path d="M 676.398361 637.90286 
L 713.097736 637.90286 
Q 715.497736 637.90286 715.497736 635.50286 
L 715.497736 624.54536 
Q 715.497736 622.14536 713.097736 622.14536 
L 676.398361 622.14536 
Q 673.998361 622.14536 673.998361 624.54536 
L 673.998361 635.50286 
Q 673.998361 637.90286 676.398361 637.90286 
z
" style="fill: #ffffff; opacity: 0.7"/>
    </g>
    <!-- 48,897 -->
    <g style="fill: #262626" transform="translate(676.398361 633.134735) scale(0.12 -0.12)">
     <use xlink:href="#Arial-BoldMT-34"/>
     <use xlink:href="#Arial-BoldMT-38" transform="translate(55.615234 0)"/>
     <use xlink:href="#Arial-BoldMT-2c" transform="translate(111.230469 0)"/>
     <use xlink:href="#Arial-BoldMT-38" transform="translate(139.013672 0)"/>
     <use xlink:href="#Arial-BoldMT-39" transform="translate(194.628906 0)"/>
     <use xlink:href="#Arial-BoldMT-37" transform="translate(250.244141 0)"/>
    </g>
   </g>
   <g id="text_25">
    <g id="patch_43">
     <path d="M 165.600076 96.977757 
L 208.972576 96.977757 
Q 211.372576 96.977757 211.372576 94.577757 
L 211.372576 83.620257 
Q 211.372576 81.220257 208.972576 81.220257 
L 165.600076 81.220257 
Q 163.200076 81.220257 163.200076 83.620257 
L 163.200076 94.577757 
Q 163.200076 96.977757 165.600076 96.977757 
z
" style="fill: #ffffff; opacity: 0.7"/>
    </g>
    <!-- 554,398 -->
    <g style="fill: #262626" transform="translate(165.600076 92.209632) scale(0.12 -0.12)">
     <use xlink:href="#Arial-BoldMT-35"/>
     <use xlink:href="#Arial-BoldMT-35" transform="translate(55.615234 0)"/>
     <use xlink:href="#Arial-BoldMT-34" transform="translate(111.230469 0)"/>
     <use xlink:href="#Arial-BoldMT-2c" transform="translate(166.845703 0)"/>
     <use xlink:href="#Arial-BoldMT-33" transform="translate(194.628906 0)"/>
     <use xlink:href="#Arial-BoldMT-39" transform="translate(250.244141 0)"/>
     <use xlink:href="#Arial-BoldMT-38" transform="translate(305.859375 0)"/>
    </g>
   </g>
   <g id="text_26">
    <g id="patch_44">
     <path d="M 342.621607 72.15125 
L 385.994107 72.15125 
Q 388.394107 72.15125 388.394107 69.75125 
L 388.394107 58.79375 
Q 388.394107 56.39375 385.994107 56.39375 
L 342.621607 56.39375 
Q 340.221607 56.39375 340.221607 58.79375 
L 340.221607 69.75125 
Q 340.221607 72.15125 342.621607 72.15125 
z
" style="fill: #ffffff; opacity: 0.7"/>
    </g>
    <!-- 577,599 -->
    <g style="fill: #262626" transform="translate(342.621607 67.383125) scale(0.12 -0.12)">
     <use xlink:href="#Arial-BoldMT-35"/>
     <use xlink:href="#Arial-BoldMT-37" transform="translate(55.615234 0)"/>
     <use xlink:href="#Arial-BoldMT-37" transform="translate(111.230469 0)"/>
     <use xlink:href="#Arial-BoldMT-2c" transform="translate(166.845703 0)"/>
     <use xlink:href="#Arial-BoldMT-35" transform="translate(194.628906 0)"/>
     <use xlink:href="#Arial-BoldMT-39" transform="translate(250.244141 0)"/>
     <use xlink:href="#Arial-BoldMT-39" transform="translate(305.859375 0)"/>
    </g>
   </g>
   <g id="text_27">
    <g id="patch_45">
     <path d="M 519.643138 224.371523 
L 563.015638 224.371523 
Q 565.415638 224.371523 565.415638 221.971523 
L 565.415638 211.014023 
Q 565.415638 208.614023 563.015638 208.614023 
L 519.643138 208.614023 
Q 517.243138 208.614023 517.243138 211.014023 
L 517.243138 221.971523 
Q 517.243138 224.371523 519.643138 224.371523 
z
" style="fill: #ffffff; opacity: 0.7"/>
    </g>
    <!-- 435,347 -->
    <g style="fill: #262626" transform="translate(519.643138 219.603398) scale(0.12 -0.12)">
     <use xlink:href="#Arial-BoldMT-34"/>
     <use xlink:href="#Arial-BoldMT-33" transform="translate(55.615234 0)"/>
     <use xlink:href="#Arial-BoldMT-35" transform="translate(111.230469 0)"/>
     <use xlink:href="#Arial-BoldMT-2c" transform="translate(166.845703 0)"/>
     <use xlink:href="#Arial-BoldMT-33" transform="translate(194.628906 0)"/>
     <use xlink:href="#Arial-BoldMT-34" transform="translate(250.244141 0)"/>
     <use xlink:href="#Arial-BoldMT-37" transform="translate(305.859375 0)"/>
    </g>
   </g>
   <g id="text_28">
    <g id="patch_46">
     <path d="M 696.66467 277.920179 
L 740.03717 277.920179 
Q 742.43717 277.920179 742.43717 275.520179 
L 742.43717 264.562679 
Q 742.43717 262.162679 740.03717 262.162679 
L 696.66467 262.162679 
Q 694.26467 262.162679 694.26467 264.562679 
L 694.26467 275.520179 
Q 694.26467 277.920179 696.66467 277.920179 
z
" style="fill: #ffffff; opacity: 0.7"/>
    </g>
    <!-- 385,305 -->
    <g style="fill: #262626" transform="translate(696.66467 273.152054) scale(0.12 -0.12)">
     <use xlink:href="#Arial-BoldMT-33"/>
     <use xlink:href="#Arial-BoldMT-38" transform="translate(55.615234 0)"/>
     <use xlink:href="#Arial-BoldMT-35" transform="translate(111.230469 0)"/>
     <use xlink:href="#Arial-BoldMT-2c" transform="translate(166.845703 0)"/>
     <use xlink:href="#Arial-BoldMT-33" transform="translate(194.628906 0)"/>
     <use xlink:href="#Arial-BoldMT-30" transform="translate(250.244141 0)"/>
     <use xlink:href="#Arial-BoldMT-35" transform="translate(305.859375 0)"/>
    </g>
   </g>
   <g id="text_29">
    <g id="patch_47">
     <path d="M 192.53951 615.024593 
L 229.238885 615.024593 
Q 231.638885 615.024593 231.638885 612.624593 
L 231.638885 601.667093 
Q 231.638885 599.267093 229.238885 599.267093 
L 192.53951 599.267093 
Q 190.13951 599.267093 190.13951 601.667093 
L 190.13951 612.624593 
Q 190.13951 615.024593 192.53951 615.024593 
z
" style="fill: #ffffff; opacity: 0.7"/>
    </g>
    <!-- 70,277 -->
    <g style="fill: #262626" transform="translate(192.53951 610.256468) scale(0.12 -0.12)">
     <use xlink:href="#Arial-BoldMT-37"/>
     <use xlink:href="#Arial-BoldMT-30" transform="translate(55.615234 0)"/>
     <use xlink:href="#Arial-BoldMT-2c" transform="translate(111.230469 0)"/>
     <use xlink:href="#Arial-BoldMT-32" transform="translate(139.013672 0)"/>
     <use xlink:href="#Arial-BoldMT-37" transform="translate(194.628906 0)"/>
     <use xlink:href="#Arial-BoldMT-37" transform="translate(250.244141 0)"/>
    </g>
   </g>
   <g id="text_30">
    <g id="patch_48">
     <path d="M 369.561041 623.444404 
L 406.260416 623.444404 
Q 408.660416 623.444404 408.660416 621.044404 
L 408.660416 610.086904 
Q 408.660416 607.686904 406.260416 607.686904 
L 369.561041 607.686904 
Q 367.161041 607.686904 367.161041 610.086904 
L 367.161041 621.044404 
Q 367.161041 623.444404 369.561041 623.444404 
z
" style="fill: #ffffff; opacity: 0.7"/>
    </g>
    <!-- 62,408 -->
    <g style="fill: #262626" transform="translate(369.561041 618.676279) scale(0.12 -0.12)">
     <use xlink:href="#Arial-BoldMT-36"/>
     <use xlink:href="#Arial-BoldMT-32" transform="translate(55.615234 0)"/>
     <use xlink:href="#Arial-BoldMT-2c" transform="translate(111.230469 0)"/>
     <use xlink:href="#Arial-BoldMT-34" transform="translate(139.013672 0)"/>
     <use xlink:href="#Arial-BoldMT-30" transform="translate(194.628906 0)"/>
     <use xlink:href="#Arial-BoldMT-38" transform="translate(250.244141 0)"/>
    </g>
   </g>
   <g id="text_31">
    <g id="patch_49">
     <path d="M 546.582572 638.664978 
L 583.281947 638.664978 
Q 585.681947 638.664978 585.681947 636.264978 
L 585.681947 625.307478 
Q 585.681947 622.907478 583.281947 622.907478 
L 546.582572 622.907478 
Q 544.182572 622.907478 544.182572 625.307478 
L 544.182572 636.264978 
Q 544.182572 638.664978 546.582572 638.664978 
z
" style="fill: #ffffff; opacity: 0.7"/>
    </g>
    <!-- 48,185 -->
    <g style="fill: #262626" transform="translate(546.582572 633.896853) scale(0.12 -0.12)">
     <use xlink:href="#Arial-BoldMT-34"/>
     <use xlink:href="#Arial-BoldMT-38" transform="translate(55.615234 0)"/>
     <use xlink:href="#Arial-BoldMT-2c" transform="translate(111.230469 0)"/>
     <use xlink:href="#Arial-BoldMT-31" transform="translate(139.013672 0)"/>
     <use xlink:href="#Arial-BoldMT-38" transform="translate(194.628906 0)"/>
     <use xlink:href="#Arial-BoldMT-35" transform="translate(250.244141 0)"/>
    </g>
   </g>
   <g id="text_32">
    <g id="patch_50">
     <path d="M 723.604103 660.416632 
L 760.303478 660.416632 
Q 762.703478 660.416632 762.703478 658.016632 
L 762.703478 647.059132 
Q 762.703478 644.659132 760.303478 644.659132 
L 723.604103 644.659132 
Q 721.204103 644.659132 721.204103 647.059132 
L 721.204103 658.016632 
Q 721.204103 660.416632 723.604103 660.416632 
z
" style="fill: #ffffff; opacity: 0.7"/>
    </g>
    <!-- 27,857 -->
    <g style="fill: #262626" transform="translate(723.604103 655.648507) scale(0.12 -0.12)">
     <use xlink:href="#Arial-BoldMT-32"/>
     <use xlink:href="#Arial-BoldMT-37" transform="translate(55.615234 0)"/>
     <use xlink:href="#Arial-BoldMT-2c" transform="translate(111.230469 0)"/>
     <use xlink:href="#Arial-BoldMT-38" transform="translate(139.013672 0)"/>
     <use xlink:href="#Arial-BoldMT-35" transform="translate(194.628906 0)"/>
     <use xlink:href="#Arial-BoldMT-37" transform="translate(250.244141 0)"/>
    </g>
   </g>
   <g id="text_33">
    <g id="patch_51">
     <path d="M 216.14238 593.359967 
L 252.841755 593.359967 
Q 255.241755 593.359967 255.241755 590.959967 
L 255.241755 580.002467 
Q 255.241755 577.602467 252.841755 577.602467 
L 216.14238 577.602467 
Q 213.74238 577.602467 213.74238 580.002467 
L 213.74238 590.959967 
Q 213.74238 593.359967 216.14238 593.359967 
z
" style="fill: #ffffff; opacity: 0.7"/>
    </g>
    <!-- 90,523 -->
    <g style="fill: #262626" transform="translate(216.14238 588.591842) scale(0.12 -0.12)">
     <use xlink:href="#Arial-BoldMT-39"/>
     <use xlink:href="#Arial-BoldMT-30" transform="translate(55.615234 0)"/>
     <use xlink:href="#Arial-BoldMT-2c" transform="translate(111.230469 0)"/>
     <use xlink:href="#Arial-BoldMT-35" transform="translate(139.013672 0)"/>
     <use xlink:href="#Arial-BoldMT-32" transform="translate(194.628906 0)"/>
     <use xlink:href="#Arial-BoldMT-33" transform="translate(250.244141 0)"/>
    </g>
   </g>
   <g id="text_34">
    <g id="patch_52">
     <path d="M 393.163911 617.077908 
L 429.863286 617.077908 
Q 432.263286 617.077908 432.263286 614.677908 
L 432.263286 603.720408 
Q 432.263286 601.320408 429.863286 601.320408 
L 393.163911 601.320408 
Q 390.763911 601.320408 390.763911 603.720408 
L 390.763911 614.677908 
Q 390.763911 617.077908 393.163911 617.077908 
z
" style="fill: #ffffff; opacity: 0.7"/>
    </g>
    <!-- 68,358 -->
    <g style="fill: #262626" transform="translate(393.163911 612.309783) scale(0.12 -0.12)">
     <use xlink:href="#Arial-BoldMT-36"/>
     <use xlink:href="#Arial-BoldMT-38" transform="translate(55.615234 0)"/>
     <use xlink:href="#Arial-BoldMT-2c" transform="translate(111.230469 0)"/>
     <use xlink:href="#Arial-BoldMT-33" transform="translate(139.013672 0)"/>
     <use xlink:href="#Arial-BoldMT-35" transform="translate(194.628906 0)"/>
     <use xlink:href="#Arial-BoldMT-38" transform="translate(250.244141 0)"/>
    </g>
   </g>
   <g id="text_35">
    <g id="patch_53">
     <path d="M 570.185443 598.552248 
L 606.884818 598.552248 
Q 609.284818 598.552248 609.284818 596.152248 
L 609.284818 585.194748 
Q 609.284818 582.794748 606.884818 582.794748 
L 570.185443 582.794748 
Q 567.785443 582.794748 567.785443 585.194748 
L 567.785443 596.152248 
Q 567.785443 598.552248 570.185443 598.552248 
z
" style="fill: #ffffff; opacity: 0.7"/>
    </g>
    <!-- 85,670 -->
    <g style="fill: #262626" transform="translate(570.185443 593.784123) scale(0.12 -0.12)">
     <use xlink:href="#Arial-BoldMT-38"/>
     <use xlink:href="#Arial-BoldMT-35" transform="translate(55.615234 0)"/>
     <use xlink:href="#Arial-BoldMT-2c" transform="translate(111.230469 0)"/>
     <use xlink:href="#Arial-BoldMT-36" transform="translate(139.013672 0)"/>
     <use xlink:href="#Arial-BoldMT-37" transform="translate(194.628906 0)"/>
     <use xlink:href="#Arial-BoldMT-30" transform="translate(250.244141 0)"/>
    </g>
   </g>
   <g id="text_36">
    <g id="patch_54">
     <path d="M 747.206974 605.680789 
L 783.906349 605.680789 
Q 786.306349 605.680789 786.306349 603.280789 
L 786.306349 592.323289 
Q 786.306349 589.923289 783.906349 589.923289 
L 747.206974 589.923289 
Q 744.806974 589.923289 744.806974 592.323289 
L 744.806974 603.280789 
Q 744.806974 605.680789 747.206974 605.680789 
z
" style="fill: #ffffff; opacity: 0.7"/>
    </g>
    <!-- 79,009 -->
    <g style="fill: #262626" transform="translate(747.206974 600.912664) scale(0.12 -0.12)">
     <use xlink:href="#Arial-BoldMT-37"/>
     <use xlink:href="#Arial-BoldMT-39" transform="translate(55.615234 0)"/>
     <use xlink:href="#Arial-BoldMT-2c" transform="translate(111.230469 0)"/>
     <use xlink:href="#Arial-BoldMT-30" transform="translate(139.013672 0)"/>
     <use xlink:href="#Arial-BoldMT-30" transform="translate(194.628906 0)"/>
     <use xlink:href="#Arial-BoldMT-39" transform="translate(250.244141 0)"/>
    </g>
   </g>
   <g id="text_37">
    <!-- Dataset 2 - Seasonal Production by Target Column -->
    <g style="fill: #262626" transform="translate(249.139688 18.8475) scale(0.16 -0.16)">
     <defs>
      <path id="Arial-BoldMT-44" d="M 463 4581 
L 2153 4581 
Q 2725 4581 3025 4494 
Q 3428 4375 3715 4072 
Q 4003 3769 4153 3330 
Q 4303 2891 4303 2247 
Q 4303 1681 4163 1272 
Q 3991 772 3672 463 
Q 3431 228 3022 97 
Q 2716 0 2203 0 
L 463 0 
L 463 4581 
z
M 1388 3806 
L 1388 772 
L 2078 772 
Q 2466 772 2638 816 
Q 2863 872 3011 1006 
Q 3159 1141 3253 1448 
Q 3347 1756 3347 2288 
Q 3347 2819 3253 3103 
Q 3159 3388 2990 3547 
Q 2822 3706 2563 3763 
Q 2369 3806 1803 3806 
L 1388 3806 
z
" transform="scale(0.015625)"/>
      <path id="Arial-BoldMT-61" d="M 1116 2306 
L 319 2450 
Q 453 2931 781 3162 
Q 1109 3394 1756 3394 
Q 2344 3394 2631 3255 
Q 2919 3116 3036 2902 
Q 3153 2688 3153 2116 
L 3144 1091 
Q 3144 653 3186 445 
Q 3228 238 3344 0 
L 2475 0 
Q 2441 88 2391 259 
Q 2369 338 2359 363 
Q 2134 144 1878 34 
Q 1622 -75 1331 -75 
Q 819 -75 523 203 
Q 228 481 228 906 
Q 228 1188 362 1408 
Q 497 1628 739 1745 
Q 981 1863 1438 1950 
Q 2053 2066 2291 2166 
L 2291 2253 
Q 2291 2506 2166 2614 
Q 2041 2722 1694 2722 
Q 1459 2722 1328 2630 
Q 1197 2538 1116 2306 
z
M 2291 1594 
Q 2122 1538 1756 1459 
Q 1391 1381 1278 1306 
Q 1106 1184 1106 997 
Q 1106 813 1243 678 
Q 1381 544 1594 544 
Q 1831 544 2047 700 
Q 2206 819 2256 991 
Q 2291 1103 2291 1419 
L 2291 1594 
z
" transform="scale(0.015625)"/>
      <path id="Arial-BoldMT-74" d="M 1981 3319 
L 1981 2619 
L 1381 2619 
L 1381 1281 
Q 1381 875 1398 808 
Q 1416 741 1477 697 
Q 1538 653 1625 653 
Q 1747 653 1978 738 
L 2053 56 
Q 1747 -75 1359 -75 
Q 1122 -75 931 4 
Q 741 84 652 211 
Q 563 338 528 553 
Q 500 706 500 1172 
L 500 2619 
L 97 2619 
L 97 3319 
L 500 3319 
L 500 3978 
L 1381 4491 
L 1381 3319 
L 1981 3319 
z
" transform="scale(0.015625)"/>
      <path id="Arial-BoldMT-73" d="M 150 947 
L 1031 1081 
Q 1088 825 1259 692 
Q 1431 559 1741 559 
Q 2081 559 2253 684 
Q 2369 772 2369 919 
Q 2369 1019 2306 1084 
Q 2241 1147 2013 1200 
Q 950 1434 666 1628 
Q 272 1897 272 2375 
Q 272 2806 612 3100 
Q 953 3394 1669 3394 
Q 2350 3394 2681 3172 
Q 3013 2950 3138 2516 
L 2309 2363 
Q 2256 2556 2107 2659 
Q 1959 2763 1684 2763 
Q 1338 2763 1188 2666 
Q 1088 2597 1088 2488 
Q 1088 2394 1175 2328 
Q 1294 2241 1995 2081 
Q 2697 1922 2975 1691 
Q 3250 1456 3250 1038 
Q 3250 581 2869 253 
Q 2488 -75 1741 -75 
Q 1063 -75 667 200 
Q 272 475 150 947 
z
" transform="scale(0.015625)"/>
      <path id="Arial-BoldMT-65" d="M 2381 1056 
L 3256 909 
Q 3088 428 2723 176 
Q 2359 -75 1813 -75 
Q 947 -75 531 491 
Q 203 944 203 1634 
Q 203 2459 634 2926 
Q 1066 3394 1725 3394 
Q 2466 3394 2894 2905 
Q 3322 2416 3303 1406 
L 1103 1406 
Q 1113 1016 1316 798 
Q 1519 581 1822 581 
Q 2028 581 2168 693 
Q 2309 806 2381 1056 
z
M 2431 1944 
Q 2422 2325 2234 2523 
Q 2047 2722 1778 2722 
Q 1491 2722 1303 2513 
Q 1116 2303 1119 1944 
L 2431 1944 
z
" transform="scale(0.015625)"/>
      <path id="Arial-BoldMT-20" transform="scale(0.015625)"/>
      <path id="Arial-BoldMT-2d" d="M 359 1222 
L 359 2100 
L 2084 2100 
L 2084 1222 
L 359 1222 
z
" transform="scale(0.015625)"/>
      <path id="Arial-BoldMT-53" d="M 231 1491 
L 1131 1578 
Q 1213 1125 1461 912 
Q 1709 700 2131 700 
Q 2578 700 2804 889 
Q 3031 1078 3031 1331 
Q 3031 1494 2936 1608 
Q 2841 1722 2603 1806 
Q 2441 1863 1863 2006 
Q 1119 2191 819 2459 
Q 397 2838 397 3381 
Q 397 3731 595 4036 
Q 794 4341 1167 4500 
Q 1541 4659 2069 4659 
Q 2931 4659 3367 4281 
Q 3803 3903 3825 3272 
L 2900 3231 
Q 2841 3584 2645 3739 
Q 2450 3894 2059 3894 
Q 1656 3894 1428 3728 
Q 1281 3622 1281 3444 
Q 1281 3281 1419 3166 
Q 1594 3019 2269 2859 
Q 2944 2700 3267 2529 
Q 3591 2359 3773 2064 
Q 3956 1769 3956 1334 
Q 3956 941 3737 597 
Q 3519 253 3119 86 
Q 2719 -81 2122 -81 
Q 1253 -81 787 320 
Q 322 722 231 1491 
z
" transform="scale(0.015625)"/>
      <path id="Arial-BoldMT-6f" d="M 256 1706 
Q 256 2144 472 2553 
Q 688 2963 1083 3178 
Q 1478 3394 1966 3394 
Q 2719 3394 3200 2905 
Q 3681 2416 3681 1669 
Q 3681 916 3195 420 
Q 2709 -75 1972 -75 
Q 1516 -75 1102 131 
Q 688 338 472 736 
Q 256 1134 256 1706 
z
M 1156 1659 
Q 1156 1166 1390 903 
Q 1625 641 1969 641 
Q 2313 641 2545 903 
Q 2778 1166 2778 1666 
Q 2778 2153 2545 2415 
Q 2313 2678 1969 2678 
Q 1625 2678 1390 2415 
Q 1156 2153 1156 1659 
z
" transform="scale(0.015625)"/>
      <path id="Arial-BoldMT-6e" d="M 3478 0 
L 2600 0 
L 2600 1694 
Q 2600 2231 2544 2389 
Q 2488 2547 2361 2634 
Q 2234 2722 2056 2722 
Q 1828 2722 1647 2597 
Q 1466 2472 1398 2265 
Q 1331 2059 1331 1503 
L 1331 0 
L 453 0 
L 453 3319 
L 1269 3319 
L 1269 2831 
Q 1703 3394 2363 3394 
Q 2653 3394 2893 3289 
Q 3134 3184 3257 3021 
Q 3381 2859 3429 2653 
Q 3478 2447 3478 2063 
L 3478 0 
z
" transform="scale(0.015625)"/>
      <path id="Arial-BoldMT-6c" d="M 459 0 
L 459 4581 
L 1338 4581 
L 1338 0 
L 459 0 
z
" transform="scale(0.015625)"/>
      <path id="Arial-BoldMT-50" d="M 466 0 
L 466 4581 
L 1950 4581 
Q 2794 4581 3050 4513 
Q 3444 4409 3709 4064 
Q 3975 3719 3975 3172 
Q 3975 2750 3822 2462 
Q 3669 2175 3433 2011 
Q 3197 1847 2953 1794 
Q 2622 1728 1994 1728 
L 1391 1728 
L 1391 0 
L 466 0 
z
M 1391 3806 
L 1391 2506 
L 1897 2506 
Q 2444 2506 2628 2578 
Q 2813 2650 2917 2803 
Q 3022 2956 3022 3159 
Q 3022 3409 2875 3571 
Q 2728 3734 2503 3775 
Q 2338 3806 1838 3806 
L 1391 3806 
z
" transform="scale(0.015625)"/>
      <path id="Arial-BoldMT-72" d="M 1300 0 
L 422 0 
L 422 3319 
L 1238 3319 
L 1238 2847 
Q 1447 3181 1614 3287 
Q 1781 3394 1994 3394 
Q 2294 3394 2572 3228 
L 2300 2463 
Q 2078 2606 1888 2606 
Q 1703 2606 1575 2504 
Q 1447 2403 1373 2137 
Q 1300 1872 1300 1025 
L 1300 0 
z
" transform="scale(0.015625)"/>
      <path id="Arial-BoldMT-64" d="M 3503 0 
L 2688 0 
L 2688 488 
Q 2484 203 2207 64 
Q 1931 -75 1650 -75 
Q 1078 -75 670 386 
Q 263 847 263 1672 
Q 263 2516 659 2955 
Q 1056 3394 1663 3394 
Q 2219 3394 2625 2931 
L 2625 4581 
L 3503 4581 
L 3503 0 
z
M 1159 1731 
Q 1159 1200 1306 963 
Q 1519 619 1900 619 
Q 2203 619 2415 876 
Q 2628 1134 2628 1647 
Q 2628 2219 2422 2470 
Q 2216 2722 1894 2722 
Q 1581 2722 1370 2473 
Q 1159 2225 1159 1731 
z
" transform="scale(0.015625)"/>
      <path id="Arial-BoldMT-75" d="M 2644 0 
L 2644 497 
Q 2463 231 2167 78 
Q 1872 -75 1544 -75 
Q 1209 -75 943 72 
Q 678 219 559 484 
Q 441 750 441 1219 
L 441 3319 
L 1319 3319 
L 1319 1794 
Q 1319 1094 1367 936 
Q 1416 778 1544 686 
Q 1672 594 1869 594 
Q 2094 594 2272 717 
Q 2450 841 2515 1023 
Q 2581 1206 2581 1919 
L 2581 3319 
L 3459 3319 
L 3459 0 
L 2644 0 
z
" transform="scale(0.015625)"/>
      <path id="Arial-BoldMT-63" d="M 3353 2338 
L 2488 2181 
Q 2444 2441 2289 2572 
Q 2134 2703 1888 2703 
Q 1559 2703 1364 2476 
Q 1169 2250 1169 1719 
Q 1169 1128 1367 884 
Q 1566 641 1900 641 
Q 2150 641 2309 783 
Q 2469 925 2534 1272 
L 3397 1125 
Q 3263 531 2881 228 
Q 2500 -75 1859 -75 
Q 1131 -75 698 384 
Q 266 844 266 1656 
Q 266 2478 700 2936 
Q 1134 3394 1875 3394 
Q 2481 3394 2839 3133 
Q 3197 2872 3353 2338 
z
" transform="scale(0.015625)"/>
      <path id="Arial-BoldMT-69" d="M 459 3769 
L 459 4581 
L 1338 4581 
L 1338 3769 
L 459 3769 
z
M 459 0 
L 459 3319 
L 1338 3319 
L 1338 0 
L 459 0 
z
" transform="scale(0.015625)"/>
      <path id="Arial-BoldMT-62" d="M 422 0 
L 422 4581 
L 1300 4581 
L 1300 2931 
Q 1706 3394 2263 3394 
Q 2869 3394 3266 2955 
Q 3663 2516 3663 1694 
Q 3663 844 3258 384 
Q 2853 -75 2275 -75 
Q 1991 -75 1714 67 
Q 1438 209 1238 488 
L 1238 0 
L 422 0 
z
M 1294 1731 
Q 1294 1216 1456 969 
Q 1684 619 2063 619 
Q 2353 619 2558 867 
Q 2763 1116 2763 1650 
Q 2763 2219 2556 2470 
Q 2350 2722 2028 2722 
Q 1713 2722 1503 2476 
Q 1294 2231 1294 1731 
z
" transform="scale(0.015625)"/>
      <path id="Arial-BoldMT-79" d="M 44 3319 
L 978 3319 
L 1772 963 
L 2547 3319 
L 3456 3319 
L 2284 125 
L 2075 -453 
Q 1959 -744 1854 -897 
Q 1750 -1050 1614 -1145 
Q 1478 -1241 1279 -1294 
Q 1081 -1347 831 -1347 
Q 578 -1347 334 -1294 
L 256 -606 
Q 463 -647 628 -647 
Q 934 -647 1081 -467 
Q 1228 -288 1306 -9 
L 44 3319 
z
" transform="scale(0.015625)"/>
      <path id="Arial-BoldMT-54" d="M 1497 0 
L 1497 3806 
L 138 3806 
L 138 4581 
L 3778 4581 
L 3778 3806 
L 2422 3806 
L 2422 0 
L 1497 0 
z
" transform="scale(0.015625)"/>
      <path id="Arial-BoldMT-67" d="M 378 -219 
L 1381 -341 
Q 1406 -516 1497 -581 
Q 1622 -675 1891 -675 
Q 2234 -675 2406 -572 
Q 2522 -503 2581 -350 
Q 2622 -241 2622 53 
L 2622 538 
Q 2228 0 1628 0 
Q 959 0 569 566 
Q 263 1013 263 1678 
Q 263 2513 664 2953 
Q 1066 3394 1663 3394 
Q 2278 3394 2678 2853 
L 2678 3319 
L 3500 3319 
L 3500 341 
Q 3500 -247 3403 -537 
Q 3306 -828 3131 -993 
Q 2956 -1159 2664 -1253 
Q 2372 -1347 1925 -1347 
Q 1081 -1347 728 -1058 
Q 375 -769 375 -325 
Q 375 -281 378 -219 
z
M 1163 1728 
Q 1163 1200 1367 954 
Q 1572 709 1872 709 
Q 2194 709 2416 961 
Q 2638 1213 2638 1706 
Q 2638 2222 2425 2472 
Q 2213 2722 1888 2722 
Q 1572 2722 1367 2476 
Q 1163 2231 1163 1728 
z
" transform="scale(0.015625)"/>
      <path id="Arial-BoldMT-43" d="M 3397 1684 
L 4294 1400 
Q 4088 650 3608 286 
Q 3128 -78 2391 -78 
Q 1478 -78 890 545 
Q 303 1169 303 2250 
Q 303 3394 893 4026 
Q 1484 4659 2447 4659 
Q 3288 4659 3813 4163 
Q 4125 3869 4281 3319 
L 3366 3100 
Q 3284 3456 3026 3662 
Q 2769 3869 2400 3869 
Q 1891 3869 1573 3503 
Q 1256 3138 1256 2319 
Q 1256 1450 1568 1081 
Q 1881 713 2381 713 
Q 2750 713 3015 947 
Q 3281 1181 3397 1684 
z
" transform="scale(0.015625)"/>
      <path id="Arial-BoldMT-6d" d="M 394 3319 
L 1203 3319 
L 1203 2866 
Q 1638 3394 2238 3394 
Q 2556 3394 2790 3262 
Q 3025 3131 3175 2866 
Q 3394 3131 3647 3262 
Q 3900 3394 4188 3394 
Q 4553 3394 4806 3245 
Q 5059 3097 5184 2809 
Q 5275 2597 5275 2122 
L 5275 0 
L 4397 0 
L 4397 1897 
Q 4397 2391 4306 2534 
Q 4184 2722 3931 2722 
Q 3747 2722 3584 2609 
Q 3422 2497 3350 2280 
Q 3278 2063 3278 1594 
L 3278 0 
L 2400 0 
L 2400 1819 
Q 2400 2303 2353 2443 
Q 2306 2584 2207 2653 
Q 2109 2722 1941 2722 
Q 1738 2722 1575 2612 
Q 1413 2503 1342 2297 
Q 1272 2091 1272 1613 
L 1272 0 
L 394 0 
L 394 3319 
z
" transform="scale(0.015625)"/>
     </defs>
     <use xlink:href="#Arial-BoldMT-44"/>
     <use xlink:href="#Arial-BoldMT-61" transform="translate(72.216797 0)"/>
     <use xlink:href="#Arial-BoldMT-74" transform="translate(127.832031 0)"/>
     <use xlink:href="#Arial-BoldMT-61" transform="translate(161.132812 0)"/>
     <use xlink:href="#Arial-BoldMT-73" transform="translate(216.748047 0)"/>
     <use xlink:href="#Arial-BoldMT-65" transform="translate(272.363281 0)"/>
     <use xlink:href="#Arial-BoldMT-74" transform="translate(327.978516 0)"/>
     <use xlink:href="#Arial-BoldMT-20" transform="translate(361.279297 0)"/>
     <use xlink:href="#Arial-BoldMT-32" transform="translate(389.0625 0)"/>
     <use xlink:href="#Arial-BoldMT-20" transform="translate(444.677734 0)"/>
     <use xlink:href="#Arial-BoldMT-2d" transform="translate(472.460938 0)"/>
     <use xlink:href="#Arial-BoldMT-20" transform="translate(505.761719 0)"/>
     <use xlink:href="#Arial-BoldMT-53" transform="translate(533.544922 0)"/>
     <use xlink:href="#Arial-BoldMT-65" transform="translate(600.244141 0)"/>
     <use xlink:href="#Arial-BoldMT-61" transform="translate(655.859375 0)"/>
     <use xlink:href="#Arial-BoldMT-73" transform="translate(711.474609 0)"/>
     <use xlink:href="#Arial-BoldMT-6f" transform="translate(767.089844 0)"/>
     <use xlink:href="#Arial-BoldMT-6e" transform="translate(828.173828 0)"/>
     <use xlink:href="#Arial-BoldMT-61" transform="translate(889.257812 0)"/>
     <use xlink:href="#Arial-BoldMT-6c" transform="translate(944.873047 0)"/>
     <use xlink:href="#Arial-BoldMT-20" transform="translate(972.65625 0)"/>
     <use xlink:href="#Arial-BoldMT-50" transform="translate(1000.439453 0)"/>
     <use xlink:href="#Arial-BoldMT-72" transform="translate(1067.138672 0)"/>
     <use xlink:href="#Arial-BoldMT-6f" transform="translate(1106.054688 0)"/>
     <use xlink:href="#Arial-BoldMT-64" transform="translate(1167.138672 0)"/>
     <use xlink:href="#Arial-BoldMT-75" transform="translate(1228.222656 0)"/>
     <use xlink:href="#Arial-BoldMT-63" transform="translate(1289.306641 0)"/>
     <use xlink:href="#Arial-BoldMT-74" transform="translate(1344.921875 0)"/>
     <use xlink:href="#Arial-BoldMT-69" transform="translate(1378.222656 0)"/>
     <use xlink:href="#Arial-BoldMT-6f" transform="translate(1406.005859 0)"/>
     <use xlink:href="#Arial-BoldMT-6e" transform="translate(1467.089844 0)"/>
     <use xlink:href="#Arial-BoldMT-20" transform="translate(1528.173828 0)"/>
     <use xlink:href="#Arial-BoldMT-62" transform="translate(1555.957031 0)"/>
     <use xlink:href="#Arial-BoldMT-79" transform="translate(1617.041016 0)"/>
     <use xlink:href="#Arial-BoldMT-20" transform="translate(1672.65625 0)"/>
     <use xlink:href="#Arial-BoldMT-54" transform="translate(1700.439453 0)"/>
     <use xlink:href="#Arial-BoldMT-61" transform="translate(1754.148438 0)"/>
     <use xlink:href="#Arial-BoldMT-72" transform="translate(1809.763672 0)"/>
     <use xlink:href="#Arial-BoldMT-67" transform="translate(1848.679688 0)"/>
     <use xlink:href="#Arial-BoldMT-65" transform="translate(1909.763672 0)"/>
     <use xlink:href="#Arial-BoldMT-74" transform="translate(1965.378906 0)"/>
     <use xlink:href="#Arial-BoldMT-20" transform="translate(1998.679688 0)"/>
     <use xlink:href="#Arial-BoldMT-43" transform="translate(2026.462891 0)"/>
     <use xlink:href="#Arial-BoldMT-6f" transform="translate(2098.679688 0)"/>
     <use xlink:href="#Arial-BoldMT-6c" transform="translate(2159.763672 0)"/>
     <use xlink:href="#Arial-BoldMT-75" transform="translate(2187.546875 0)"/>
     <use xlink:href="#Arial-BoldMT-6d" transform="translate(2248.630859 0)"/>
     <use xlink:href="#Arial-BoldMT-6e" transform="translate(2337.546875 0)"/>
    </g>
   </g>
   <g id="legend_1">
    <g id="patch_55">
     <path d="M 857.889688 56.621094 
L 879.889688 56.621094 
L 879.889688 48.921094 
L 857.889688 48.921094 
z
" style="fill: #406080; opacity: 0.8; stroke: #000000; stroke-width: 0.5; stroke-linejoin: miter"/>
    </g>
    <g id="text_38">
     <!-- tot_pv_ec_inv4 -->
     <g style="fill: #262626" transform="translate(888.689688 56.621094) scale(0.11 -0.11)">
      <defs>
       <path id="ArialMT-5f" d="M -97 -1272 
L -97 -866 
L 3631 -866 
L 3631 -1272 
L -97 -1272 
z
" transform="scale(0.015625)"/>
       <path id="ArialMT-76" d="M 1344 0 
L 81 3319 
L 675 3319 
L 1388 1331 
Q 1503 1009 1600 663 
Q 1675 925 1809 1294 
L 2547 3319 
L 3125 3319 
L 1869 0 
L 1344 0 
z
" transform="scale(0.015625)"/>
      </defs>
      <use xlink:href="#ArialMT-74"/>
      <use xlink:href="#ArialMT-6f" transform="translate(27.783203 0)"/>
      <use xlink:href="#ArialMT-74" transform="translate(83.398438 0)"/>
      <use xlink:href="#ArialMT-5f" transform="translate(111.181641 0)"/>
      <use xlink:href="#ArialMT-70" transform="translate(166.796875 0)"/>
      <use xlink:href="#ArialMT-76" transform="translate(222.412109 0)"/>
      <use xlink:href="#ArialMT-5f" transform="translate(272.412109 0)"/>
      <use xlink:href="#ArialMT-65" transform="translate(328.027344 0)"/>
      <use xlink:href="#ArialMT-63" transform="translate(383.642578 0)"/>
      <use xlink:href="#ArialMT-5f" transform="translate(433.642578 0)"/>
      <use xlink:href="#ArialMT-69" transform="translate(489.257812 0)"/>
      <use xlink:href="#ArialMT-6e" transform="translate(511.474609 0)"/>
      <use xlink:href="#ArialMT-76" transform="translate(567.089844 0)"/>
      <use xlink:href="#ArialMT-34" transform="translate(617.089844 0)"/>
     </g>
    </g>
    <g id="patch_56">
     <path d="M 857.889688 72.180937 
L 879.889688 72.180937 
L 879.889688 64.480937 
L 857.889688 64.480937 
z
" style="fill: #4c7399; opacity: 0.8; stroke: #000000; stroke-width: 0.5; stroke-linejoin: miter"/>
    </g>
    <g id="text_39">
     <!-- tot_pv_aule_r -->
     <g style="fill: #262626" transform="translate(888.689688 72.180937) scale(0.11 -0.11)">
      <use xlink:href="#ArialMT-74"/>
      <use xlink:href="#ArialMT-6f" transform="translate(27.783203 0)"/>
      <use xlink:href="#ArialMT-74" transform="translate(83.398438 0)"/>
      <use xlink:href="#ArialMT-5f" transform="translate(111.181641 0)"/>
      <use xlink:href="#ArialMT-70" transform="translate(166.796875 0)"/>
      <use xlink:href="#ArialMT-76" transform="translate(222.412109 0)"/>
      <use xlink:href="#ArialMT-5f" transform="translate(272.412109 0)"/>
      <use xlink:href="#ArialMT-61" transform="translate(328.027344 0)"/>
      <use xlink:href="#ArialMT-75" transform="translate(383.642578 0)"/>
      <use xlink:href="#ArialMT-6c" transform="translate(439.257812 0)"/>
      <use xlink:href="#ArialMT-65" transform="translate(461.474609 0)"/>
      <use xlink:href="#ArialMT-5f" transform="translate(517.089844 0)"/>
      <use xlink:href="#ArialMT-72" transform="translate(572.705078 0)"/>
     </g>
    </g>
    <g id="patch_57">
     <path d="M 857.889688 87.773437 
L 879.889688 87.773437 
L 879.889688 80.073437 
L 857.889688 80.073437 
z
" style="fill: #5986b2; opacity: 0.8; stroke: #000000; stroke-width: 0.5; stroke-linejoin: miter"/>
    </g>
    <g id="text_40">
     <!-- tot_pv_i3p -->
     <g style="fill: #262626" transform="translate(888.689688 87.773437) scale(0.11 -0.11)">
      <use xlink:href="#ArialMT-74"/>
      <use xlink:href="#ArialMT-6f" transform="translate(27.783203 0)"/>
      <use xlink:href="#ArialMT-74" transform="translate(83.398438 0)"/>
      <use xlink:href="#ArialMT-5f" transform="translate(111.181641 0)"/>
      <use xlink:href="#ArialMT-70" transform="translate(166.796875 0)"/>
      <use xlink:href="#ArialMT-76" transform="translate(222.412109 0)"/>
      <use xlink:href="#ArialMT-5f" transform="translate(272.412109 0)"/>
      <use xlink:href="#ArialMT-69" transform="translate(328.027344 0)"/>
      <use xlink:href="#ArialMT-33" transform="translate(350.244141 0)"/>
      <use xlink:href="#ArialMT-70" transform="translate(405.859375 0)"/>
     </g>
    </g>
    <g id="patch_58">
     <path d="M 857.889688 103.467344 
L 879.889688 103.467344 
L 879.889688 95.767344 
L 857.889688 95.767344 
z
" style="fill: #6699cc; opacity: 0.8; stroke: #000000; stroke-width: 0.5; stroke-linejoin: miter"/>
    </g>
    <g id="text_41">
     <!-- tot_pv_castelfidardo -->
     <g style="fill: #262626" transform="translate(888.689688 103.467344) scale(0.11 -0.11)">
      <defs>
       <path id="ArialMT-73" d="M 197 991 
L 753 1078 
Q 800 744 1014 566 
Q 1228 388 1613 388 
Q 2000 388 2187 545 
Q 2375 703 2375 916 
Q 2375 1106 2209 1216 
Q 2094 1291 1634 1406 
Q 1016 1563 777 1677 
Q 538 1791 414 1992 
Q 291 2194 291 2438 
Q 291 2659 392 2848 
Q 494 3038 669 3163 
Q 800 3259 1026 3326 
Q 1253 3394 1513 3394 
Q 1903 3394 2198 3281 
Q 2494 3169 2634 2976 
Q 2775 2784 2828 2463 
L 2278 2388 
Q 2241 2644 2061 2787 
Q 1881 2931 1553 2931 
Q 1166 2931 1000 2803 
Q 834 2675 834 2503 
Q 834 2394 903 2306 
Q 972 2216 1119 2156 
Q 1203 2125 1616 2013 
Q 2213 1853 2448 1751 
Q 2684 1650 2818 1456 
Q 2953 1263 2953 975 
Q 2953 694 2789 445 
Q 2625 197 2315 61 
Q 2006 -75 1616 -75 
Q 969 -75 630 194 
Q 291 463 197 991 
z
" transform="scale(0.015625)"/>
       <path id="ArialMT-66" d="M 556 0 
L 556 2881 
L 59 2881 
L 59 3319 
L 556 3319 
L 556 3672 
Q 556 4006 616 4169 
Q 697 4388 901 4523 
Q 1106 4659 1475 4659 
Q 1713 4659 2000 4603 
L 1916 4113 
Q 1741 4144 1584 4144 
Q 1328 4144 1222 4034 
Q 1116 3925 1116 3625 
L 1116 3319 
L 1763 3319 
L 1763 2881 
L 1116 2881 
L 1116 0 
L 556 0 
z
" transform="scale(0.015625)"/>
      </defs>
      <use xlink:href="#ArialMT-74"/>
      <use xlink:href="#ArialMT-6f" transform="translate(27.783203 0)"/>
      <use xlink:href="#ArialMT-74" transform="translate(83.398438 0)"/>
      <use xlink:href="#ArialMT-5f" transform="translate(111.181641 0)"/>
      <use xlink:href="#ArialMT-70" transform="translate(166.796875 0)"/>
      <use xlink:href="#ArialMT-76" transform="translate(222.412109 0)"/>
      <use xlink:href="#ArialMT-5f" transform="translate(272.412109 0)"/>
      <use xlink:href="#ArialMT-63" transform="translate(328.027344 0)"/>
      <use xlink:href="#ArialMT-61" transform="translate(378.027344 0)"/>
      <use xlink:href="#ArialMT-73" transform="translate(433.642578 0)"/>
      <use xlink:href="#ArialMT-74" transform="translate(483.642578 0)"/>
      <use xlink:href="#ArialMT-65" transform="translate(511.425781 0)"/>
      <use xlink:href="#ArialMT-6c" transform="translate(567.041016 0)"/>
      <use xlink:href="#ArialMT-66" transform="translate(589.257812 0)"/>
      <use xlink:href="#ArialMT-69" transform="translate(617.041016 0)"/>
      <use xlink:href="#ArialMT-64" transform="translate(639.257812 0)"/>
      <use xlink:href="#ArialMT-61" transform="translate(694.873047 0)"/>
      <use xlink:href="#ArialMT-72" transform="translate(750.488281 0)"/>
      <use xlink:href="#ArialMT-64" transform="translate(783.789062 0)"/>
      <use xlink:href="#ArialMT-6f" transform="translate(839.404297 0)"/>
     </g>
    </g>
    <g id="patch_59">
     <path d="M 857.889688 119.059844 
L 879.889688 119.059844 
L 879.889688 111.359844 
L 857.889688 111.359844 
z
" style="fill: #72ace6; opacity: 0.8; stroke: #000000; stroke-width: 0.5; stroke-linejoin: miter"/>
    </g>
    <g id="text_42">
     <!-- tot_pv_ec_inv1 -->
     <g style="fill: #262626" transform="translate(888.689688 119.059844) scale(0.11 -0.11)">
      <use xlink:href="#ArialMT-74"/>
      <use xlink:href="#ArialMT-6f" transform="translate(27.783203 0)"/>
      <use xlink:href="#ArialMT-74" transform="translate(83.398438 0)"/>
      <use xlink:href="#ArialMT-5f" transform="translate(111.181641 0)"/>
      <use xlink:href="#ArialMT-70" transform="translate(166.796875 0)"/>
      <use xlink:href="#ArialMT-76" transform="translate(222.412109 0)"/>
      <use xlink:href="#ArialMT-5f" transform="translate(272.412109 0)"/>
      <use xlink:href="#ArialMT-65" transform="translate(328.027344 0)"/>
      <use xlink:href="#ArialMT-63" transform="translate(383.642578 0)"/>
      <use xlink:href="#ArialMT-5f" transform="translate(433.642578 0)"/>
      <use xlink:href="#ArialMT-69" transform="translate(489.257812 0)"/>
      <use xlink:href="#ArialMT-6e" transform="translate(511.474609 0)"/>
      <use xlink:href="#ArialMT-76" transform="translate(567.089844 0)"/>
      <use xlink:href="#ArialMT-31" transform="translate(617.089844 0)"/>
     </g>
    </g>
    <g id="patch_60">
     <path d="M 857.889688 134.652344 
L 879.889688 134.652344 
L 879.889688 126.952344 
L 857.889688 126.952344 
z
" style="fill: #7fbfff; opacity: 0.8; stroke: #000000; stroke-width: 0.5; stroke-linejoin: miter"/>
    </g>
    <g id="text_43">
     <!-- tot_pv_ec_inv2 -->
     <g style="fill: #262626" transform="translate(888.689688 134.652344) scale(0.11 -0.11)">
      <use xlink:href="#ArialMT-74"/>
      <use xlink:href="#ArialMT-6f" transform="translate(27.783203 0)"/>
      <use xlink:href="#ArialMT-74" transform="translate(83.398438 0)"/>
      <use xlink:href="#ArialMT-5f" transform="translate(111.181641 0)"/>
      <use xlink:href="#ArialMT-70" transform="translate(166.796875 0)"/>
      <use xlink:href="#ArialMT-76" transform="translate(222.412109 0)"/>
      <use xlink:href="#ArialMT-5f" transform="translate(272.412109 0)"/>
      <use xlink:href="#ArialMT-65" transform="translate(328.027344 0)"/>
      <use xlink:href="#ArialMT-63" transform="translate(383.642578 0)"/>
      <use xlink:href="#ArialMT-5f" transform="translate(433.642578 0)"/>
      <use xlink:href="#ArialMT-69" transform="translate(489.257812 0)"/>
      <use xlink:href="#ArialMT-6e" transform="translate(511.474609 0)"/>
      <use xlink:href="#ArialMT-76" transform="translate(567.089844 0)"/>
      <use xlink:href="#ArialMT-32" transform="translate(617.089844 0)"/>
     </g>
    </g>
   </g>
  </g>
 </g>
 <defs>
  <clipPath id="p63ede2b448">
   <rect x="71.042188" y="38.8475" width="739.95" height="648.97875"/>
  </clipPath>
 </defs>
</svg>
