<?xml version="1.0" encoding="utf-8" standalone="no"?>
<!DOCTYPE svg PUBLIC "-//W3C//DTD SVG 1.1//EN"
  "http://www.w3.org/Graphics/SVG/1.1/DTD/svg11.dtd">
<svg xmlns:xlink="http://www.w3.org/1999/xlink" width="1142.872594pt" height="713.396812pt" viewBox="0 0 1142.872594 713.396812" xmlns="http://www.w3.org/2000/svg" version="1.1">
 <metadata>
  <rdf:RDF xmlns:dc="http://purl.org/dc/elements/1.1/" xmlns:cc="http://creativecommons.org/ns#" xmlns:rdf="http://www.w3.org/1999/02/22-rdf-syntax-ns#">
   <cc:Work>
    <dc:type rdf:resource="http://purl.org/dc/dcmitype/StillImage"/>
    <dc:date>2025-07-27T16:15:40.881770</dc:date>
    <dc:format>image/svg+xml</dc:format>
    <dc:creator>
     <cc:Agent>
      <dc:title>Matplotlib v3.10.3, https://matplotlib.org/</dc:title>
     </cc:Agent>
    </dc:creator>
   </cc:Work>
  </rdf:RDF>
 </metadata>
 <defs>
  <style type="text/css">*{stroke-linejoin: round; stroke-linecap: butt}</style>
 </defs>
 <g id="figure_1">
  <g id="patch_1">
   <path d="M 0 713.396812 
L 1142.872594 713.396812 
L 1142.872594 0 
L 0 0 
z
" style="fill: #ffffff"/>
  </g>
  <g id="axes_1">
   <g id="patch_2">
    <path d="M 64.369063 671.27275 
L 914.749062 671.27275 
L 914.749062 55.958 
L 64.369063 55.958 
z
" style="fill: #eaeaf2"/>
   </g>
   <g id="matplotlib.axis_1">
    <g id="xtick_1">
     <g id="line2d_1">
      <path d="M 129.228554 671.27275 
L 129.228554 55.958 
" clip-path="url(#pe00cd299ed)" style="fill: none; stroke: #ffffff; stroke-linecap: round"/>
     </g>
     <g id="text_1">
      <!-- Jan -->
      <g style="fill: #262626" transform="translate(119.555429 686.862125) scale(0.12 -0.12)">
       <defs>
        <path id="ArialMT-4a" d="M 184 1300 
L 731 1375 
Q 753 850 928 656 
Q 1103 463 1413 463 
Q 1641 463 1806 567 
Q 1972 672 2034 851 
Q 2097 1031 2097 1425 
L 2097 4581 
L 2703 4581 
L 2703 1459 
Q 2703 884 2564 568 
Q 2425 253 2123 87 
Q 1822 -78 1416 -78 
Q 813 -78 492 269 
Q 172 616 184 1300 
z
" transform="scale(0.015625)"/>
        <path id="ArialMT-61" d="M 2588 409 
Q 2275 144 1986 34 
Q 1697 -75 1366 -75 
Q 819 -75 525 192 
Q 231 459 231 875 
Q 231 1119 342 1320 
Q 453 1522 633 1644 
Q 813 1766 1038 1828 
Q 1203 1872 1538 1913 
Q 2219 1994 2541 2106 
Q 2544 2222 2544 2253 
Q 2544 2597 2384 2738 
Q 2169 2928 1744 2928 
Q 1347 2928 1158 2789 
Q 969 2650 878 2297 
L 328 2372 
Q 403 2725 575 2942 
Q 747 3159 1072 3276 
Q 1397 3394 1825 3394 
Q 2250 3394 2515 3294 
Q 2781 3194 2906 3042 
Q 3031 2891 3081 2659 
Q 3109 2516 3109 2141 
L 3109 1391 
Q 3109 606 3145 398 
Q 3181 191 3288 0 
L 2700 0 
Q 2613 175 2588 409 
z
M 2541 1666 
Q 2234 1541 1622 1453 
Q 1275 1403 1131 1340 
Q 988 1278 909 1158 
Q 831 1038 831 891 
Q 831 666 1001 516 
Q 1172 366 1500 366 
Q 1825 366 2078 508 
Q 2331 650 2450 897 
Q 2541 1088 2541 1459 
L 2541 1666 
z
" transform="scale(0.015625)"/>
        <path id="ArialMT-6e" d="M 422 0 
L 422 3319 
L 928 3319 
L 928 2847 
Q 1294 3394 1984 3394 
Q 2284 3394 2536 3286 
Q 2788 3178 2913 3003 
Q 3038 2828 3088 2588 
Q 3119 2431 3119 2041 
L 3119 0 
L 2556 0 
L 2556 2019 
Q 2556 2363 2490 2533 
Q 2425 2703 2258 2804 
Q 2091 2906 1866 2906 
Q 1506 2906 1245 2678 
Q 984 2450 984 1813 
L 984 0 
L 422 0 
z
" transform="scale(0.015625)"/>
       </defs>
       <use xlink:href="#ArialMT-4a"/>
       <use xlink:href="#ArialMT-61" transform="translate(50 0)"/>
       <use xlink:href="#ArialMT-6e" transform="translate(105.615234 0)"/>
      </g>
     </g>
    </g>
    <g id="xtick_2">
     <g id="line2d_2">
      <path d="M 194.743192 671.27275 
L 194.743192 55.958 
" clip-path="url(#pe00cd299ed)" style="fill: none; stroke: #ffffff; stroke-linecap: round"/>
     </g>
     <g id="text_2">
      <!-- Feb -->
      <g style="fill: #262626" transform="translate(184.405379 686.862125) scale(0.12 -0.12)">
       <defs>
        <path id="ArialMT-46" d="M 525 0 
L 525 4581 
L 3616 4581 
L 3616 4041 
L 1131 4041 
L 1131 2622 
L 3281 2622 
L 3281 2081 
L 1131 2081 
L 1131 0 
L 525 0 
z
" transform="scale(0.015625)"/>
        <path id="ArialMT-65" d="M 2694 1069 
L 3275 997 
Q 3138 488 2766 206 
Q 2394 -75 1816 -75 
Q 1088 -75 661 373 
Q 234 822 234 1631 
Q 234 2469 665 2931 
Q 1097 3394 1784 3394 
Q 2450 3394 2872 2941 
Q 3294 2488 3294 1666 
Q 3294 1616 3291 1516 
L 816 1516 
Q 847 969 1125 678 
Q 1403 388 1819 388 
Q 2128 388 2347 550 
Q 2566 713 2694 1069 
z
M 847 1978 
L 2700 1978 
Q 2663 2397 2488 2606 
Q 2219 2931 1791 2931 
Q 1403 2931 1139 2672 
Q 875 2413 847 1978 
z
" transform="scale(0.015625)"/>
        <path id="ArialMT-62" d="M 941 0 
L 419 0 
L 419 4581 
L 981 4581 
L 981 2947 
Q 1338 3394 1891 3394 
Q 2197 3394 2470 3270 
Q 2744 3147 2920 2923 
Q 3097 2700 3197 2384 
Q 3297 2069 3297 1709 
Q 3297 856 2875 390 
Q 2453 -75 1863 -75 
Q 1275 -75 941 416 
L 941 0 
z
M 934 1684 
Q 934 1088 1097 822 
Q 1363 388 1816 388 
Q 2184 388 2453 708 
Q 2722 1028 2722 1663 
Q 2722 2313 2464 2622 
Q 2206 2931 1841 2931 
Q 1472 2931 1203 2611 
Q 934 2291 934 1684 
z
" transform="scale(0.015625)"/>
       </defs>
       <use xlink:href="#ArialMT-46"/>
       <use xlink:href="#ArialMT-65" transform="translate(61.083984 0)"/>
       <use xlink:href="#ArialMT-62" transform="translate(116.699219 0)"/>
      </g>
     </g>
    </g>
    <g id="xtick_3">
     <g id="line2d_3">
      <path d="M 260.25783 671.27275 
L 260.25783 55.958 
" clip-path="url(#pe00cd299ed)" style="fill: none; stroke: #ffffff; stroke-linecap: round"/>
     </g>
     <g id="text_3">
      <!-- Mar -->
      <g style="fill: #262626" transform="translate(249.925642 686.862125) scale(0.12 -0.12)">
       <defs>
        <path id="ArialMT-4d" d="M 475 0 
L 475 4581 
L 1388 4581 
L 2472 1338 
Q 2622 884 2691 659 
Q 2769 909 2934 1394 
L 4031 4581 
L 4847 4581 
L 4847 0 
L 4263 0 
L 4263 3834 
L 2931 0 
L 2384 0 
L 1059 3900 
L 1059 0 
L 475 0 
z
" transform="scale(0.015625)"/>
        <path id="ArialMT-72" d="M 416 0 
L 416 3319 
L 922 3319 
L 922 2816 
Q 1116 3169 1280 3281 
Q 1444 3394 1641 3394 
Q 1925 3394 2219 3213 
L 2025 2691 
Q 1819 2813 1613 2813 
Q 1428 2813 1281 2702 
Q 1134 2591 1072 2394 
Q 978 2094 978 1738 
L 978 0 
L 416 0 
z
" transform="scale(0.015625)"/>
       </defs>
       <use xlink:href="#ArialMT-4d"/>
       <use xlink:href="#ArialMT-61" transform="translate(83.300781 0)"/>
       <use xlink:href="#ArialMT-72" transform="translate(138.916016 0)"/>
      </g>
     </g>
    </g>
    <g id="xtick_4">
     <g id="line2d_4">
      <path d="M 325.772468 671.27275 
L 325.772468 55.958 
" clip-path="url(#pe00cd299ed)" style="fill: none; stroke: #ffffff; stroke-linecap: round"/>
     </g>
     <g id="text_4">
      <!-- Apr -->
      <g style="fill: #262626" transform="translate(316.435905 686.862125) scale(0.12 -0.12)">
       <defs>
        <path id="ArialMT-41" d="M -9 0 
L 1750 4581 
L 2403 4581 
L 4278 0 
L 3588 0 
L 3053 1388 
L 1138 1388 
L 634 0 
L -9 0 
z
M 1313 1881 
L 2866 1881 
L 2388 3150 
Q 2169 3728 2063 4100 
Q 1975 3659 1816 3225 
L 1313 1881 
z
" transform="scale(0.015625)"/>
        <path id="ArialMT-70" d="M 422 -1272 
L 422 3319 
L 934 3319 
L 934 2888 
Q 1116 3141 1344 3267 
Q 1572 3394 1897 3394 
Q 2322 3394 2647 3175 
Q 2972 2956 3137 2557 
Q 3303 2159 3303 1684 
Q 3303 1175 3120 767 
Q 2938 359 2589 142 
Q 2241 -75 1856 -75 
Q 1575 -75 1351 44 
Q 1128 163 984 344 
L 984 -1272 
L 422 -1272 
z
M 931 1641 
Q 931 1000 1190 694 
Q 1450 388 1819 388 
Q 2194 388 2461 705 
Q 2728 1022 2728 1688 
Q 2728 2322 2467 2637 
Q 2206 2953 1844 2953 
Q 1484 2953 1207 2617 
Q 931 2281 931 1641 
z
" transform="scale(0.015625)"/>
       </defs>
       <use xlink:href="#ArialMT-41"/>
       <use xlink:href="#ArialMT-70" transform="translate(66.699219 0)"/>
       <use xlink:href="#ArialMT-72" transform="translate(122.314453 0)"/>
      </g>
     </g>
    </g>
    <g id="xtick_5">
     <g id="line2d_5">
      <path d="M 391.287106 671.27275 
L 391.287106 55.958 
" clip-path="url(#pe00cd299ed)" style="fill: none; stroke: #ffffff; stroke-linecap: round"/>
     </g>
     <g id="text_5">
      <!-- May -->
      <g style="fill: #262626" transform="translate(379.952731 686.862125) scale(0.12 -0.12)">
       <defs>
        <path id="ArialMT-79" d="M 397 -1278 
L 334 -750 
Q 519 -800 656 -800 
Q 844 -800 956 -737 
Q 1069 -675 1141 -563 
Q 1194 -478 1313 -144 
Q 1328 -97 1363 -6 
L 103 3319 
L 709 3319 
L 1400 1397 
Q 1534 1031 1641 628 
Q 1738 1016 1872 1384 
L 2581 3319 
L 3144 3319 
L 1881 -56 
Q 1678 -603 1566 -809 
Q 1416 -1088 1222 -1217 
Q 1028 -1347 759 -1347 
Q 597 -1347 397 -1278 
z
" transform="scale(0.015625)"/>
       </defs>
       <use xlink:href="#ArialMT-4d"/>
       <use xlink:href="#ArialMT-61" transform="translate(83.300781 0)"/>
       <use xlink:href="#ArialMT-79" transform="translate(138.916016 0)"/>
      </g>
     </g>
    </g>
    <g id="xtick_6">
     <g id="line2d_6">
      <path d="M 456.801744 671.27275 
L 456.801744 55.958 
" clip-path="url(#pe00cd299ed)" style="fill: none; stroke: #ffffff; stroke-linecap: round"/>
     </g>
     <g id="text_6">
      <!-- Jun -->
      <g style="fill: #262626" transform="translate(447.128619 686.862125) scale(0.12 -0.12)">
       <defs>
        <path id="ArialMT-75" d="M 2597 0 
L 2597 488 
Q 2209 -75 1544 -75 
Q 1250 -75 995 37 
Q 741 150 617 320 
Q 494 491 444 738 
Q 409 903 409 1263 
L 409 3319 
L 972 3319 
L 972 1478 
Q 972 1038 1006 884 
Q 1059 663 1231 536 
Q 1403 409 1656 409 
Q 1909 409 2131 539 
Q 2353 669 2445 892 
Q 2538 1116 2538 1541 
L 2538 3319 
L 3100 3319 
L 3100 0 
L 2597 0 
z
" transform="scale(0.015625)"/>
       </defs>
       <use xlink:href="#ArialMT-4a"/>
       <use xlink:href="#ArialMT-75" transform="translate(50 0)"/>
       <use xlink:href="#ArialMT-6e" transform="translate(105.615234 0)"/>
      </g>
     </g>
    </g>
    <g id="xtick_7">
     <g id="line2d_7">
      <path d="M 522.316381 671.27275 
L 522.316381 55.958 
" clip-path="url(#pe00cd299ed)" style="fill: none; stroke: #ffffff; stroke-linecap: round"/>
     </g>
     <g id="text_7">
      <!-- Jul -->
      <g style="fill: #262626" transform="translate(514.646694 686.862125) scale(0.12 -0.12)">
       <defs>
        <path id="ArialMT-6c" d="M 409 0 
L 409 4581 
L 972 4581 
L 972 0 
L 409 0 
z
" transform="scale(0.015625)"/>
       </defs>
       <use xlink:href="#ArialMT-4a"/>
       <use xlink:href="#ArialMT-75" transform="translate(50 0)"/>
       <use xlink:href="#ArialMT-6c" transform="translate(105.615234 0)"/>
      </g>
     </g>
    </g>
    <g id="xtick_8">
     <g id="line2d_8">
      <path d="M 587.831019 671.27275 
L 587.831019 55.958 
" clip-path="url(#pe00cd299ed)" style="fill: none; stroke: #ffffff; stroke-linecap: round"/>
     </g>
     <g id="text_8">
      <!-- Aug -->
      <g style="fill: #262626" transform="translate(577.155707 686.862125) scale(0.12 -0.12)">
       <defs>
        <path id="ArialMT-67" d="M 319 -275 
L 866 -356 
Q 900 -609 1056 -725 
Q 1266 -881 1628 -881 
Q 2019 -881 2231 -725 
Q 2444 -569 2519 -288 
Q 2563 -116 2559 434 
Q 2191 0 1641 0 
Q 956 0 581 494 
Q 206 988 206 1678 
Q 206 2153 378 2554 
Q 550 2956 876 3175 
Q 1203 3394 1644 3394 
Q 2231 3394 2613 2919 
L 2613 3319 
L 3131 3319 
L 3131 450 
Q 3131 -325 2973 -648 
Q 2816 -972 2473 -1159 
Q 2131 -1347 1631 -1347 
Q 1038 -1347 672 -1080 
Q 306 -813 319 -275 
z
M 784 1719 
Q 784 1066 1043 766 
Q 1303 466 1694 466 
Q 2081 466 2343 764 
Q 2606 1063 2606 1700 
Q 2606 2309 2336 2618 
Q 2066 2928 1684 2928 
Q 1309 2928 1046 2623 
Q 784 2319 784 1719 
z
" transform="scale(0.015625)"/>
       </defs>
       <use xlink:href="#ArialMT-41"/>
       <use xlink:href="#ArialMT-75" transform="translate(66.699219 0)"/>
       <use xlink:href="#ArialMT-67" transform="translate(122.314453 0)"/>
      </g>
     </g>
    </g>
    <g id="xtick_9">
     <g id="line2d_9">
      <path d="M 653.345657 671.27275 
L 653.345657 55.958 
" clip-path="url(#pe00cd299ed)" style="fill: none; stroke: #ffffff; stroke-linecap: round"/>
     </g>
     <g id="text_9">
      <!-- Sep -->
      <g style="fill: #262626" transform="translate(642.670345 687.008375) scale(0.12 -0.12)">
       <defs>
        <path id="ArialMT-53" d="M 288 1472 
L 859 1522 
Q 900 1178 1048 958 
Q 1197 738 1509 602 
Q 1822 466 2213 466 
Q 2559 466 2825 569 
Q 3091 672 3220 851 
Q 3350 1031 3350 1244 
Q 3350 1459 3225 1620 
Q 3100 1781 2813 1891 
Q 2628 1963 1997 2114 
Q 1366 2266 1113 2400 
Q 784 2572 623 2826 
Q 463 3081 463 3397 
Q 463 3744 659 4045 
Q 856 4347 1234 4503 
Q 1613 4659 2075 4659 
Q 2584 4659 2973 4495 
Q 3363 4331 3572 4012 
Q 3781 3694 3797 3291 
L 3216 3247 
Q 3169 3681 2898 3903 
Q 2628 4125 2100 4125 
Q 1550 4125 1298 3923 
Q 1047 3722 1047 3438 
Q 1047 3191 1225 3031 
Q 1400 2872 2139 2705 
Q 2878 2538 3153 2413 
Q 3553 2228 3743 1945 
Q 3934 1663 3934 1294 
Q 3934 928 3725 604 
Q 3516 281 3123 101 
Q 2731 -78 2241 -78 
Q 1619 -78 1198 103 
Q 778 284 539 648 
Q 300 1013 288 1472 
z
" transform="scale(0.015625)"/>
       </defs>
       <use xlink:href="#ArialMT-53"/>
       <use xlink:href="#ArialMT-65" transform="translate(66.699219 0)"/>
       <use xlink:href="#ArialMT-70" transform="translate(122.314453 0)"/>
      </g>
     </g>
    </g>
    <g id="xtick_10">
     <g id="line2d_10">
      <path d="M 718.860295 671.27275 
L 718.860295 55.958 
" clip-path="url(#pe00cd299ed)" style="fill: none; stroke: #ffffff; stroke-linecap: round"/>
     </g>
     <g id="text_10">
      <!-- Oct -->
      <g style="fill: #262626" transform="translate(709.526545 686.862125) scale(0.12 -0.12)">
       <defs>
        <path id="ArialMT-4f" d="M 309 2231 
Q 309 3372 921 4017 
Q 1534 4663 2503 4663 
Q 3138 4663 3647 4359 
Q 4156 4056 4423 3514 
Q 4691 2972 4691 2284 
Q 4691 1588 4409 1038 
Q 4128 488 3612 205 
Q 3097 -78 2500 -78 
Q 1853 -78 1343 234 
Q 834 547 571 1087 
Q 309 1628 309 2231 
z
M 934 2222 
Q 934 1394 1379 917 
Q 1825 441 2497 441 
Q 3181 441 3623 922 
Q 4066 1403 4066 2288 
Q 4066 2847 3877 3264 
Q 3688 3681 3323 3911 
Q 2959 4141 2506 4141 
Q 1863 4141 1398 3698 
Q 934 3256 934 2222 
z
" transform="scale(0.015625)"/>
        <path id="ArialMT-63" d="M 2588 1216 
L 3141 1144 
Q 3050 572 2676 248 
Q 2303 -75 1759 -75 
Q 1078 -75 664 370 
Q 250 816 250 1647 
Q 250 2184 428 2587 
Q 606 2991 970 3192 
Q 1334 3394 1763 3394 
Q 2303 3394 2647 3120 
Q 2991 2847 3088 2344 
L 2541 2259 
Q 2463 2594 2264 2762 
Q 2066 2931 1784 2931 
Q 1359 2931 1093 2626 
Q 828 2322 828 1663 
Q 828 994 1084 691 
Q 1341 388 1753 388 
Q 2084 388 2306 591 
Q 2528 794 2588 1216 
z
" transform="scale(0.015625)"/>
        <path id="ArialMT-74" d="M 1650 503 
L 1731 6 
Q 1494 -44 1306 -44 
Q 1000 -44 831 53 
Q 663 150 594 308 
Q 525 466 525 972 
L 525 2881 
L 113 2881 
L 113 3319 
L 525 3319 
L 525 4141 
L 1084 4478 
L 1084 3319 
L 1650 3319 
L 1650 2881 
L 1084 2881 
L 1084 941 
Q 1084 700 1114 631 
Q 1144 563 1211 522 
Q 1278 481 1403 481 
Q 1497 481 1650 503 
z
" transform="scale(0.015625)"/>
       </defs>
       <use xlink:href="#ArialMT-4f"/>
       <use xlink:href="#ArialMT-63" transform="translate(77.783203 0)"/>
       <use xlink:href="#ArialMT-74" transform="translate(127.783203 0)"/>
      </g>
     </g>
    </g>
    <g id="xtick_11">
     <g id="line2d_11">
      <path d="M 784.374933 671.27275 
L 784.374933 55.958 
" clip-path="url(#pe00cd299ed)" style="fill: none; stroke: #ffffff; stroke-linecap: round"/>
     </g>
     <g id="text_11">
      <!-- Nov -->
      <g style="fill: #262626" transform="translate(773.705246 686.862125) scale(0.12 -0.12)">
       <defs>
        <path id="ArialMT-4e" d="M 488 0 
L 488 4581 
L 1109 4581 
L 3516 984 
L 3516 4581 
L 4097 4581 
L 4097 0 
L 3475 0 
L 1069 3600 
L 1069 0 
L 488 0 
z
" transform="scale(0.015625)"/>
        <path id="ArialMT-6f" d="M 213 1659 
Q 213 2581 725 3025 
Q 1153 3394 1769 3394 
Q 2453 3394 2887 2945 
Q 3322 2497 3322 1706 
Q 3322 1066 3130 698 
Q 2938 331 2570 128 
Q 2203 -75 1769 -75 
Q 1072 -75 642 372 
Q 213 819 213 1659 
z
M 791 1659 
Q 791 1022 1069 705 
Q 1347 388 1769 388 
Q 2188 388 2466 706 
Q 2744 1025 2744 1678 
Q 2744 2294 2464 2611 
Q 2184 2928 1769 2928 
Q 1347 2928 1069 2612 
Q 791 2297 791 1659 
z
" transform="scale(0.015625)"/>
        <path id="ArialMT-76" d="M 1344 0 
L 81 3319 
L 675 3319 
L 1388 1331 
Q 1503 1009 1600 663 
Q 1675 925 1809 1294 
L 2547 3319 
L 3125 3319 
L 1869 0 
L 1344 0 
z
" transform="scale(0.015625)"/>
       </defs>
       <use xlink:href="#ArialMT-4e"/>
       <use xlink:href="#ArialMT-6f" transform="translate(72.216797 0)"/>
       <use xlink:href="#ArialMT-76" transform="translate(127.832031 0)"/>
      </g>
     </g>
    </g>
    <g id="xtick_12">
     <g id="line2d_12">
      <path d="M 849.889571 671.27275 
L 849.889571 55.958 
" clip-path="url(#pe00cd299ed)" style="fill: none; stroke: #ffffff; stroke-linecap: round"/>
     </g>
     <g id="text_12">
      <!-- Dec -->
      <g style="fill: #262626" transform="translate(839.219883 686.862125) scale(0.12 -0.12)">
       <defs>
        <path id="ArialMT-44" d="M 494 0 
L 494 4581 
L 2072 4581 
Q 2606 4581 2888 4516 
Q 3281 4425 3559 4188 
Q 3922 3881 4101 3404 
Q 4281 2928 4281 2316 
Q 4281 1794 4159 1391 
Q 4038 988 3847 723 
Q 3656 459 3429 307 
Q 3203 156 2883 78 
Q 2563 0 2147 0 
L 494 0 
z
M 1100 541 
L 2078 541 
Q 2531 541 2789 625 
Q 3047 709 3200 863 
Q 3416 1078 3536 1442 
Q 3656 1806 3656 2325 
Q 3656 3044 3420 3430 
Q 3184 3816 2847 3947 
Q 2603 4041 2063 4041 
L 1100 4041 
L 1100 541 
z
" transform="scale(0.015625)"/>
       </defs>
       <use xlink:href="#ArialMT-44"/>
       <use xlink:href="#ArialMT-65" transform="translate(72.216797 0)"/>
       <use xlink:href="#ArialMT-63" transform="translate(127.832031 0)"/>
      </g>
     </g>
    </g>
    <g id="text_13">
     <!-- Month -->
     <g style="fill: #262626" transform="translate(470.105625 703.414312) scale(0.14 -0.14)">
      <defs>
       <path id="ArialMT-68" d="M 422 0 
L 422 4581 
L 984 4581 
L 984 2938 
Q 1378 3394 1978 3394 
Q 2347 3394 2619 3248 
Q 2891 3103 3008 2847 
Q 3125 2591 3125 2103 
L 3125 0 
L 2563 0 
L 2563 2103 
Q 2563 2525 2380 2717 
Q 2197 2909 1863 2909 
Q 1613 2909 1392 2779 
Q 1172 2650 1078 2428 
Q 984 2206 984 1816 
L 984 0 
L 422 0 
z
" transform="scale(0.015625)"/>
      </defs>
      <use xlink:href="#ArialMT-4d"/>
      <use xlink:href="#ArialMT-6f" transform="translate(83.300781 0)"/>
      <use xlink:href="#ArialMT-6e" transform="translate(138.916016 0)"/>
      <use xlink:href="#ArialMT-74" transform="translate(194.53125 0)"/>
      <use xlink:href="#ArialMT-68" transform="translate(222.314453 0)"/>
     </g>
    </g>
   </g>
   <g id="matplotlib.axis_2">
    <g id="ytick_1">
     <g id="line2d_13">
      <path d="M 64.369063 671.27275 
L 914.749062 671.27275 
" clip-path="url(#pe00cd299ed)" style="fill: none; stroke: #ffffff; stroke-opacity: 0.3; stroke-linecap: round"/>
     </g>
     <g id="text_14">
      <!-- 0 -->
      <g style="fill: #262626" transform="translate(50.695938 675.567437) scale(0.12 -0.12)">
       <defs>
        <path id="ArialMT-30" d="M 266 2259 
Q 266 3072 433 3567 
Q 600 4063 929 4331 
Q 1259 4600 1759 4600 
Q 2128 4600 2406 4451 
Q 2684 4303 2865 4023 
Q 3047 3744 3150 3342 
Q 3253 2941 3253 2259 
Q 3253 1453 3087 958 
Q 2922 463 2592 192 
Q 2263 -78 1759 -78 
Q 1097 -78 719 397 
Q 266 969 266 2259 
z
M 844 2259 
Q 844 1131 1108 757 
Q 1372 384 1759 384 
Q 2147 384 2411 759 
Q 2675 1134 2675 2259 
Q 2675 3391 2411 3762 
Q 2147 4134 1753 4134 
Q 1366 4134 1134 3806 
Q 844 3388 844 2259 
z
" transform="scale(0.015625)"/>
       </defs>
       <use xlink:href="#ArialMT-30"/>
      </g>
     </g>
    </g>
    <g id="ytick_2">
     <g id="line2d_14">
      <path d="M 64.369063 564.884067 
L 914.749062 564.884067 
" clip-path="url(#pe00cd299ed)" style="fill: none; stroke: #ffffff; stroke-opacity: 0.3; stroke-linecap: round"/>
     </g>
     <g id="text_15">
      <!-- 10000 -->
      <g style="fill: #262626" transform="translate(24.003438 569.178755) scale(0.12 -0.12)">
       <defs>
        <path id="ArialMT-31" d="M 2384 0 
L 1822 0 
L 1822 3584 
Q 1619 3391 1289 3197 
Q 959 3003 697 2906 
L 697 3450 
Q 1169 3672 1522 3987 
Q 1875 4303 2022 4600 
L 2384 4600 
L 2384 0 
z
" transform="scale(0.015625)"/>
       </defs>
       <use xlink:href="#ArialMT-31"/>
       <use xlink:href="#ArialMT-30" transform="translate(55.615234 0)"/>
       <use xlink:href="#ArialMT-30" transform="translate(111.230469 0)"/>
       <use xlink:href="#ArialMT-30" transform="translate(166.845703 0)"/>
       <use xlink:href="#ArialMT-30" transform="translate(222.460938 0)"/>
      </g>
     </g>
    </g>
    <g id="ytick_3">
     <g id="line2d_15">
      <path d="M 64.369063 458.495385 
L 914.749062 458.495385 
" clip-path="url(#pe00cd299ed)" style="fill: none; stroke: #ffffff; stroke-opacity: 0.3; stroke-linecap: round"/>
     </g>
     <g id="text_16">
      <!-- 20000 -->
      <g style="fill: #262626" transform="translate(24.003438 462.790072) scale(0.12 -0.12)">
       <defs>
        <path id="ArialMT-32" d="M 3222 541 
L 3222 0 
L 194 0 
Q 188 203 259 391 
Q 375 700 629 1000 
Q 884 1300 1366 1694 
Q 2113 2306 2375 2664 
Q 2638 3022 2638 3341 
Q 2638 3675 2398 3904 
Q 2159 4134 1775 4134 
Q 1369 4134 1125 3890 
Q 881 3647 878 3216 
L 300 3275 
Q 359 3922 746 4261 
Q 1134 4600 1788 4600 
Q 2447 4600 2831 4234 
Q 3216 3869 3216 3328 
Q 3216 3053 3103 2787 
Q 2991 2522 2730 2228 
Q 2469 1934 1863 1422 
Q 1356 997 1212 845 
Q 1069 694 975 541 
L 3222 541 
z
" transform="scale(0.015625)"/>
       </defs>
       <use xlink:href="#ArialMT-32"/>
       <use xlink:href="#ArialMT-30" transform="translate(55.615234 0)"/>
       <use xlink:href="#ArialMT-30" transform="translate(111.230469 0)"/>
       <use xlink:href="#ArialMT-30" transform="translate(166.845703 0)"/>
       <use xlink:href="#ArialMT-30" transform="translate(222.460938 0)"/>
      </g>
     </g>
    </g>
    <g id="ytick_4">
     <g id="line2d_16">
      <path d="M 64.369063 352.106702 
L 914.749062 352.106702 
" clip-path="url(#pe00cd299ed)" style="fill: none; stroke: #ffffff; stroke-opacity: 0.3; stroke-linecap: round"/>
     </g>
     <g id="text_17">
      <!-- 30000 -->
      <g style="fill: #262626" transform="translate(24.003438 356.401389) scale(0.12 -0.12)">
       <defs>
        <path id="ArialMT-33" d="M 269 1209 
L 831 1284 
Q 928 806 1161 595 
Q 1394 384 1728 384 
Q 2125 384 2398 659 
Q 2672 934 2672 1341 
Q 2672 1728 2419 1979 
Q 2166 2231 1775 2231 
Q 1616 2231 1378 2169 
L 1441 2663 
Q 1497 2656 1531 2656 
Q 1891 2656 2178 2843 
Q 2466 3031 2466 3422 
Q 2466 3731 2256 3934 
Q 2047 4138 1716 4138 
Q 1388 4138 1169 3931 
Q 950 3725 888 3313 
L 325 3413 
Q 428 3978 793 4289 
Q 1159 4600 1703 4600 
Q 2078 4600 2393 4439 
Q 2709 4278 2876 4000 
Q 3044 3722 3044 3409 
Q 3044 3113 2884 2869 
Q 2725 2625 2413 2481 
Q 2819 2388 3044 2092 
Q 3269 1797 3269 1353 
Q 3269 753 2831 336 
Q 2394 -81 1725 -81 
Q 1122 -81 723 278 
Q 325 638 269 1209 
z
" transform="scale(0.015625)"/>
       </defs>
       <use xlink:href="#ArialMT-33"/>
       <use xlink:href="#ArialMT-30" transform="translate(55.615234 0)"/>
       <use xlink:href="#ArialMT-30" transform="translate(111.230469 0)"/>
       <use xlink:href="#ArialMT-30" transform="translate(166.845703 0)"/>
       <use xlink:href="#ArialMT-30" transform="translate(222.460938 0)"/>
      </g>
     </g>
    </g>
    <g id="ytick_5">
     <g id="line2d_17">
      <path d="M 64.369063 245.718019 
L 914.749062 245.718019 
" clip-path="url(#pe00cd299ed)" style="fill: none; stroke: #ffffff; stroke-opacity: 0.3; stroke-linecap: round"/>
     </g>
     <g id="text_18">
      <!-- 40000 -->
      <g style="fill: #262626" transform="translate(24.003438 250.012707) scale(0.12 -0.12)">
       <defs>
        <path id="ArialMT-34" d="M 2069 0 
L 2069 1097 
L 81 1097 
L 81 1613 
L 2172 4581 
L 2631 4581 
L 2631 1613 
L 3250 1613 
L 3250 1097 
L 2631 1097 
L 2631 0 
L 2069 0 
z
M 2069 1613 
L 2069 3678 
L 634 1613 
L 2069 1613 
z
" transform="scale(0.015625)"/>
       </defs>
       <use xlink:href="#ArialMT-34"/>
       <use xlink:href="#ArialMT-30" transform="translate(55.615234 0)"/>
       <use xlink:href="#ArialMT-30" transform="translate(111.230469 0)"/>
       <use xlink:href="#ArialMT-30" transform="translate(166.845703 0)"/>
       <use xlink:href="#ArialMT-30" transform="translate(222.460938 0)"/>
      </g>
     </g>
    </g>
    <g id="ytick_6">
     <g id="line2d_18">
      <path d="M 64.369063 139.329336 
L 914.749062 139.329336 
" clip-path="url(#pe00cd299ed)" style="fill: none; stroke: #ffffff; stroke-opacity: 0.3; stroke-linecap: round"/>
     </g>
     <g id="text_19">
      <!-- 50000 -->
      <g style="fill: #262626" transform="translate(24.003438 143.624024) scale(0.12 -0.12)">
       <defs>
        <path id="ArialMT-35" d="M 266 1200 
L 856 1250 
Q 922 819 1161 601 
Q 1400 384 1738 384 
Q 2144 384 2425 690 
Q 2706 997 2706 1503 
Q 2706 1984 2436 2262 
Q 2166 2541 1728 2541 
Q 1456 2541 1237 2417 
Q 1019 2294 894 2097 
L 366 2166 
L 809 4519 
L 3088 4519 
L 3088 3981 
L 1259 3981 
L 1013 2750 
Q 1425 3038 1878 3038 
Q 2478 3038 2890 2622 
Q 3303 2206 3303 1553 
Q 3303 931 2941 478 
Q 2500 -78 1738 -78 
Q 1113 -78 717 272 
Q 322 622 266 1200 
z
" transform="scale(0.015625)"/>
       </defs>
       <use xlink:href="#ArialMT-35"/>
       <use xlink:href="#ArialMT-30" transform="translate(55.615234 0)"/>
       <use xlink:href="#ArialMT-30" transform="translate(111.230469 0)"/>
       <use xlink:href="#ArialMT-30" transform="translate(166.845703 0)"/>
       <use xlink:href="#ArialMT-30" transform="translate(222.460938 0)"/>
      </g>
     </g>
    </g>
    <g id="text_20">
     <!-- Total Production -->
     <g style="fill: #262626" transform="translate(17.220938 413.805375) rotate(-90) scale(0.14 -0.14)">
      <defs>
       <path id="ArialMT-54" d="M 1659 0 
L 1659 4041 
L 150 4041 
L 150 4581 
L 3781 4581 
L 3781 4041 
L 2266 4041 
L 2266 0 
L 1659 0 
z
" transform="scale(0.015625)"/>
       <path id="ArialMT-20" transform="scale(0.015625)"/>
       <path id="ArialMT-50" d="M 494 0 
L 494 4581 
L 2222 4581 
Q 2678 4581 2919 4538 
Q 3256 4481 3484 4323 
Q 3713 4166 3852 3881 
Q 3991 3597 3991 3256 
Q 3991 2672 3619 2267 
Q 3247 1863 2275 1863 
L 1100 1863 
L 1100 0 
L 494 0 
z
M 1100 2403 
L 2284 2403 
Q 2872 2403 3119 2622 
Q 3366 2841 3366 3238 
Q 3366 3525 3220 3729 
Q 3075 3934 2838 4000 
Q 2684 4041 2272 4041 
L 1100 4041 
L 1100 2403 
z
" transform="scale(0.015625)"/>
       <path id="ArialMT-64" d="M 2575 0 
L 2575 419 
Q 2259 -75 1647 -75 
Q 1250 -75 917 144 
Q 584 363 401 755 
Q 219 1147 219 1656 
Q 219 2153 384 2558 
Q 550 2963 881 3178 
Q 1213 3394 1622 3394 
Q 1922 3394 2156 3267 
Q 2391 3141 2538 2938 
L 2538 4581 
L 3097 4581 
L 3097 0 
L 2575 0 
z
M 797 1656 
Q 797 1019 1065 703 
Q 1334 388 1700 388 
Q 2069 388 2326 689 
Q 2584 991 2584 1609 
Q 2584 2291 2321 2609 
Q 2059 2928 1675 2928 
Q 1300 2928 1048 2622 
Q 797 2316 797 1656 
z
" transform="scale(0.015625)"/>
       <path id="ArialMT-69" d="M 425 3934 
L 425 4581 
L 988 4581 
L 988 3934 
L 425 3934 
z
M 425 0 
L 425 3319 
L 988 3319 
L 988 0 
L 425 0 
z
" transform="scale(0.015625)"/>
      </defs>
      <use xlink:href="#ArialMT-54"/>
      <use xlink:href="#ArialMT-6f" transform="translate(49.958984 0)"/>
      <use xlink:href="#ArialMT-74" transform="translate(105.574219 0)"/>
      <use xlink:href="#ArialMT-61" transform="translate(133.357422 0)"/>
      <use xlink:href="#ArialMT-6c" transform="translate(188.972656 0)"/>
      <use xlink:href="#ArialMT-20" transform="translate(211.189453 0)"/>
      <use xlink:href="#ArialMT-50" transform="translate(238.972656 0)"/>
      <use xlink:href="#ArialMT-72" transform="translate(305.671875 0)"/>
      <use xlink:href="#ArialMT-6f" transform="translate(338.972656 0)"/>
      <use xlink:href="#ArialMT-64" transform="translate(394.587891 0)"/>
      <use xlink:href="#ArialMT-75" transform="translate(450.203125 0)"/>
      <use xlink:href="#ArialMT-63" transform="translate(505.818359 0)"/>
      <use xlink:href="#ArialMT-74" transform="translate(555.818359 0)"/>
      <use xlink:href="#ArialMT-69" transform="translate(583.601562 0)"/>
      <use xlink:href="#ArialMT-6f" transform="translate(605.818359 0)"/>
      <use xlink:href="#ArialMT-6e" transform="translate(661.433594 0)"/>
     </g>
    </g>
   </g>
   <g id="patch_3">
    <path d="M 103.022699 671.27275 
L 129.228554 671.27275 
L 129.228554 538.246013 
L 103.022699 538.246013 
z
" clip-path="url(#pe00cd299ed)" style="fill: #604080; opacity: 0.8; stroke: #000000; stroke-width: 0.5; stroke-linejoin: miter"/>
   </g>
   <g id="patch_4">
    <path d="M 168.537337 671.27275 
L 194.743192 671.27275 
L 194.743192 481.066807 
L 168.537337 481.066807 
z
" clip-path="url(#pe00cd299ed)" style="fill: #604080; opacity: 0.8; stroke: #000000; stroke-width: 0.5; stroke-linejoin: miter"/>
   </g>
   <g id="patch_5">
    <path d="M 234.051975 671.27275 
L 260.25783 671.27275 
L 260.25783 365.112506 
L 234.051975 365.112506 
z
" clip-path="url(#pe00cd299ed)" style="fill: #604080; opacity: 0.8; stroke: #000000; stroke-width: 0.5; stroke-linejoin: miter"/>
   </g>
   <g id="patch_6">
    <path d="M 299.566613 671.27275 
L 325.772468 671.27275 
L 325.772468 306.384661 
L 299.566613 306.384661 
z
" clip-path="url(#pe00cd299ed)" style="fill: #604080; opacity: 0.8; stroke: #000000; stroke-width: 0.5; stroke-linejoin: miter"/>
   </g>
   <g id="patch_7">
    <path d="M 365.08125 671.27275 
L 391.287106 671.27275 
L 391.287106 262.601803 
L 365.08125 262.601803 
z
" clip-path="url(#pe00cd299ed)" style="fill: #604080; opacity: 0.8; stroke: #000000; stroke-width: 0.5; stroke-linejoin: miter"/>
   </g>
   <g id="patch_8">
    <path d="M 430.595888 671.27275 
L 456.801744 671.27275 
L 456.801744 343.227643 
L 430.595888 343.227643 
z
" clip-path="url(#pe00cd299ed)" style="fill: #604080; opacity: 0.8; stroke: #000000; stroke-width: 0.5; stroke-linejoin: miter"/>
   </g>
   <g id="patch_9">
    <path d="M 496.110526 671.27275 
L 522.316381 671.27275 
L 522.316381 348.972646 
L 496.110526 348.972646 
z
" clip-path="url(#pe00cd299ed)" style="fill: #604080; opacity: 0.8; stroke: #000000; stroke-width: 0.5; stroke-linejoin: miter"/>
   </g>
   <g id="patch_10">
    <path d="M 561.625164 671.27275 
L 587.831019 671.27275 
L 587.831019 396.886342 
L 561.625164 396.886342 
z
" clip-path="url(#pe00cd299ed)" style="fill: #604080; opacity: 0.8; stroke: #000000; stroke-width: 0.5; stroke-linejoin: miter"/>
   </g>
   <g id="patch_11">
    <path d="M 627.139802 671.27275 
L 653.345657 671.27275 
L 653.345657 446.615283 
L 627.139802 446.615283 
z
" clip-path="url(#pe00cd299ed)" style="fill: #604080; opacity: 0.8; stroke: #000000; stroke-width: 0.5; stroke-linejoin: miter"/>
   </g>
   <g id="patch_12">
    <path d="M 692.65444 671.27275 
L 718.860295 671.27275 
L 718.860295 479.635083 
L 692.65444 479.635083 
z
" clip-path="url(#pe00cd299ed)" style="fill: #604080; opacity: 0.8; stroke: #000000; stroke-width: 0.5; stroke-linejoin: miter"/>
   </g>
   <g id="patch_13">
    <path d="M 758.169078 671.27275 
L 784.374933 671.27275 
L 784.374933 533.697296 
L 758.169078 533.697296 
z
" clip-path="url(#pe00cd299ed)" style="fill: #604080; opacity: 0.8; stroke: #000000; stroke-width: 0.5; stroke-linejoin: miter"/>
   </g>
   <g id="patch_14">
    <path d="M 823.683716 671.27275 
L 849.889571 671.27275 
L 849.889571 577.715819 
L 823.683716 577.715819 
z
" clip-path="url(#pe00cd299ed)" style="fill: #604080; opacity: 0.8; stroke: #000000; stroke-width: 0.5; stroke-linejoin: miter"/>
   </g>
   <g id="patch_15">
    <path d="M 129.228554 671.27275 
L 155.434409 671.27275 
L 155.434409 382.997993 
L 129.228554 382.997993 
z
" clip-path="url(#pe00cd299ed)" style="fill: #bf7fff; opacity: 0.8; stroke: #000000; stroke-width: 0.5; stroke-linejoin: miter"/>
   </g>
   <g id="patch_16">
    <path d="M 194.743192 671.27275 
L 220.949047 671.27275 
L 220.949047 350.671306 
L 194.743192 350.671306 
z
" clip-path="url(#pe00cd299ed)" style="fill: #bf7fff; opacity: 0.8; stroke: #000000; stroke-width: 0.5; stroke-linejoin: miter"/>
   </g>
   <g id="patch_17">
    <path d="M 260.25783 671.27275 
L 286.463685 671.27275 
L 286.463685 197.950777 
L 260.25783 197.950777 
z
" clip-path="url(#pe00cd299ed)" style="fill: #bf7fff; opacity: 0.8; stroke: #000000; stroke-width: 0.5; stroke-linejoin: miter"/>
   </g>
   <g id="patch_18">
    <path d="M 325.772468 671.27275 
L 351.978323 671.27275 
L 351.978323 115.823912 
L 325.772468 115.823912 
z
" clip-path="url(#pe00cd299ed)" style="fill: #bf7fff; opacity: 0.8; stroke: #000000; stroke-width: 0.5; stroke-linejoin: miter"/>
   </g>
   <g id="patch_19">
    <path d="M 391.287106 671.27275 
L 417.492961 671.27275 
L 417.492961 85.258702 
L 391.287106 85.258702 
z
" clip-path="url(#pe00cd299ed)" style="fill: #bf7fff; opacity: 0.8; stroke: #000000; stroke-width: 0.5; stroke-linejoin: miter"/>
   </g>
   <g id="patch_20">
    <path d="M 456.801744 671.27275 
L 483.007599 671.27275 
L 483.007599 183.806402 
L 456.801744 183.806402 
z
" clip-path="url(#pe00cd299ed)" style="fill: #bf7fff; opacity: 0.8; stroke: #000000; stroke-width: 0.5; stroke-linejoin: miter"/>
   </g>
   <g id="patch_21">
    <path d="M 522.316381 671.27275 
L 548.522237 671.27275 
L 548.522237 180.225146 
L 522.316381 180.225146 
z
" clip-path="url(#pe00cd299ed)" style="fill: #bf7fff; opacity: 0.8; stroke: #000000; stroke-width: 0.5; stroke-linejoin: miter"/>
   </g>
   <g id="patch_22">
    <path d="M 587.831019 671.27275 
L 614.036875 671.27275 
L 614.036875 240.457554 
L 587.831019 240.457554 
z
" clip-path="url(#pe00cd299ed)" style="fill: #bf7fff; opacity: 0.8; stroke: #000000; stroke-width: 0.5; stroke-linejoin: miter"/>
   </g>
   <g id="patch_23">
    <path d="M 653.345657 671.27275 
L 679.551512 671.27275 
L 679.551512 316.035062 
L 653.345657 316.035062 
z
" clip-path="url(#pe00cd299ed)" style="fill: #bf7fff; opacity: 0.8; stroke: #000000; stroke-width: 0.5; stroke-linejoin: miter"/>
   </g>
   <g id="patch_24">
    <path d="M 718.860295 671.27275 
L 745.06615 671.27275 
L 745.06615 361.820414 
L 718.860295 361.820414 
z
" clip-path="url(#pe00cd299ed)" style="fill: #bf7fff; opacity: 0.8; stroke: #000000; stroke-width: 0.5; stroke-linejoin: miter"/>
   </g>
   <g id="patch_25">
    <path d="M 784.374933 671.27275 
L 810.580788 671.27275 
L 810.580788 397.798939 
L 784.374933 397.798939 
z
" clip-path="url(#pe00cd299ed)" style="fill: #bf7fff; opacity: 0.8; stroke: #000000; stroke-width: 0.5; stroke-linejoin: miter"/>
   </g>
   <g id="patch_26">
    <path d="M 849.889571 671.27275 
L 876.095426 671.27275 
L 876.095426 431.84119 
L 849.889571 431.84119 
z
" clip-path="url(#pe00cd299ed)" style="fill: #bf7fff; opacity: 0.8; stroke: #000000; stroke-width: 0.5; stroke-linejoin: miter"/>
   </g>
   <g id="patch_27">
    <path d="M 64.369063 671.27275 
L 64.369063 55.958 
" style="fill: none"/>
   </g>
   <g id="patch_28">
    <path d="M 914.749062 671.27275 
L 914.749062 55.958 
" style="fill: none"/>
   </g>
   <g id="patch_29">
    <path d="M 64.369063 671.27275 
L 914.749062 671.27275 
" style="fill: none"/>
   </g>
   <g id="patch_30">
    <path d="M 64.369063 55.958 
L 914.749062 55.958 
" style="fill: none"/>
   </g>
   <g id="text_21">
    <g id="patch_31">
     <path d="M 97.775939 540.646013 
L 134.475314 540.646013 
Q 136.875314 540.646013 136.875314 538.246013 
L 136.875314 527.288513 
Q 136.875314 524.888513 134.475314 524.888513 
L 97.775939 524.888513 
Q 95.375939 524.888513 95.375939 527.288513 
L 95.375939 538.246013 
Q 95.375939 540.646013 97.775939 540.646013 
z
" style="fill: #ffffff; opacity: 0.7"/>
    </g>
    <!-- 12,504 -->
    <g style="fill: #262626" transform="translate(97.775939 535.877888) scale(0.12 -0.12)">
     <defs>
      <path id="Arial-BoldMT-31" d="M 2519 0 
L 1641 0 
L 1641 3309 
Q 1159 2859 506 2644 
L 506 3441 
Q 850 3553 1253 3867 
Q 1656 4181 1806 4600 
L 2519 4600 
L 2519 0 
z
" transform="scale(0.015625)"/>
      <path id="Arial-BoldMT-32" d="M 3238 816 
L 3238 0 
L 159 0 
Q 209 463 459 877 
Q 709 1291 1447 1975 
Q 2041 2528 2175 2725 
Q 2356 2997 2356 3263 
Q 2356 3556 2198 3714 
Q 2041 3872 1763 3872 
Q 1488 3872 1325 3706 
Q 1163 3541 1138 3156 
L 263 3244 
Q 341 3969 753 4284 
Q 1166 4600 1784 4600 
Q 2463 4600 2850 4234 
Q 3238 3869 3238 3325 
Q 3238 3016 3127 2736 
Q 3016 2456 2775 2150 
Q 2616 1947 2200 1565 
Q 1784 1184 1673 1059 
Q 1563 934 1494 816 
L 3238 816 
z
" transform="scale(0.015625)"/>
      <path id="Arial-BoldMT-2c" d="M 438 878 
L 1316 878 
L 1316 250 
Q 1316 -131 1250 -351 
Q 1184 -572 1001 -747 
Q 819 -922 538 -1022 
L 366 -659 
Q 631 -572 743 -419 
Q 856 -266 863 0 
L 438 0 
L 438 878 
z
" transform="scale(0.015625)"/>
      <path id="Arial-BoldMT-35" d="M 284 1178 
L 1159 1269 
Q 1197 972 1381 798 
Q 1566 625 1806 625 
Q 2081 625 2272 848 
Q 2463 1072 2463 1522 
Q 2463 1944 2273 2155 
Q 2084 2366 1781 2366 
Q 1403 2366 1103 2031 
L 391 2134 
L 841 4519 
L 3163 4519 
L 3163 3697 
L 1506 3697 
L 1369 2919 
Q 1663 3066 1969 3066 
Q 2553 3066 2959 2641 
Q 3366 2216 3366 1538 
Q 3366 972 3038 528 
Q 2591 -78 1797 -78 
Q 1163 -78 763 262 
Q 363 603 284 1178 
z
" transform="scale(0.015625)"/>
      <path id="Arial-BoldMT-30" d="M 1756 4600 
Q 2422 4600 2797 4125 
Q 3244 3563 3244 2259 
Q 3244 959 2794 391 
Q 2422 -78 1756 -78 
Q 1088 -78 678 436 
Q 269 950 269 2269 
Q 269 3563 719 4131 
Q 1091 4600 1756 4600 
z
M 1756 3872 
Q 1597 3872 1472 3770 
Q 1347 3669 1278 3406 
Q 1188 3066 1188 2259 
Q 1188 1453 1269 1151 
Q 1350 850 1473 750 
Q 1597 650 1756 650 
Q 1916 650 2041 751 
Q 2166 853 2234 1116 
Q 2325 1453 2325 2259 
Q 2325 3066 2244 3367 
Q 2163 3669 2039 3770 
Q 1916 3872 1756 3872 
z
" transform="scale(0.015625)"/>
      <path id="Arial-BoldMT-34" d="M 1994 0 
L 1994 922 
L 119 922 
L 119 1691 
L 2106 4600 
L 2844 4600 
L 2844 1694 
L 3413 1694 
L 3413 922 
L 2844 922 
L 2844 0 
L 1994 0 
z
M 1994 1694 
L 1994 3259 
L 941 1694 
L 1994 1694 
z
" transform="scale(0.015625)"/>
     </defs>
     <use xlink:href="#Arial-BoldMT-31"/>
     <use xlink:href="#Arial-BoldMT-32" transform="translate(55.615234 0)"/>
     <use xlink:href="#Arial-BoldMT-2c" transform="translate(111.230469 0)"/>
     <use xlink:href="#Arial-BoldMT-35" transform="translate(139.013672 0)"/>
     <use xlink:href="#Arial-BoldMT-30" transform="translate(194.628906 0)"/>
     <use xlink:href="#Arial-BoldMT-34" transform="translate(250.244141 0)"/>
    </g>
   </g>
   <g id="text_22">
    <g id="patch_32">
     <path d="M 163.290577 483.466807 
L 199.989952 483.466807 
Q 202.389952 483.466807 202.389952 481.066807 
L 202.389952 470.109307 
Q 202.389952 467.709307 199.989952 467.709307 
L 163.290577 467.709307 
Q 160.890577 467.709307 160.890577 470.109307 
L 160.890577 481.066807 
Q 160.890577 483.466807 163.290577 483.466807 
z
" style="fill: #ffffff; opacity: 0.7"/>
    </g>
    <!-- 17,878 -->
    <g style="fill: #262626" transform="translate(163.290577 478.698682) scale(0.12 -0.12)">
     <defs>
      <path id="Arial-BoldMT-37" d="M 272 3703 
L 272 4519 
L 3275 4519 
L 3275 3881 
Q 2903 3516 2518 2831 
Q 2134 2147 1932 1376 
Q 1731 606 1734 0 
L 888 0 
Q 909 950 1279 1937 
Q 1650 2925 2269 3703 
L 272 3703 
z
" transform="scale(0.015625)"/>
      <path id="Arial-BoldMT-38" d="M 1025 2472 
Q 684 2616 529 2867 
Q 375 3119 375 3419 
Q 375 3931 733 4265 
Q 1091 4600 1750 4600 
Q 2403 4600 2764 4265 
Q 3125 3931 3125 3419 
Q 3125 3100 2959 2851 
Q 2794 2603 2494 2472 
Q 2875 2319 3073 2025 
Q 3272 1731 3272 1347 
Q 3272 713 2867 316 
Q 2463 -81 1791 -81 
Q 1166 -81 750 247 
Q 259 634 259 1309 
Q 259 1681 443 1992 
Q 628 2303 1025 2472 
z
M 1206 3356 
Q 1206 3094 1354 2947 
Q 1503 2800 1750 2800 
Q 2000 2800 2150 2948 
Q 2300 3097 2300 3359 
Q 2300 3606 2151 3754 
Q 2003 3903 1759 3903 
Q 1506 3903 1356 3753 
Q 1206 3603 1206 3356 
z
M 1125 1394 
Q 1125 1031 1311 828 
Q 1497 625 1775 625 
Q 2047 625 2225 820 
Q 2403 1016 2403 1384 
Q 2403 1706 2222 1901 
Q 2041 2097 1763 2097 
Q 1441 2097 1283 1875 
Q 1125 1653 1125 1394 
z
" transform="scale(0.015625)"/>
     </defs>
     <use xlink:href="#Arial-BoldMT-31"/>
     <use xlink:href="#Arial-BoldMT-37" transform="translate(55.615234 0)"/>
     <use xlink:href="#Arial-BoldMT-2c" transform="translate(111.230469 0)"/>
     <use xlink:href="#Arial-BoldMT-38" transform="translate(139.013672 0)"/>
     <use xlink:href="#Arial-BoldMT-37" transform="translate(194.628906 0)"/>
     <use xlink:href="#Arial-BoldMT-38" transform="translate(250.244141 0)"/>
    </g>
   </g>
   <g id="text_23">
    <g id="patch_33">
     <path d="M 228.805215 367.512506 
L 265.50459 367.512506 
Q 267.90459 367.512506 267.90459 365.112506 
L 267.90459 354.155006 
Q 267.90459 351.755006 265.50459 351.755006 
L 228.805215 351.755006 
Q 226.405215 351.755006 226.405215 354.155006 
L 226.405215 365.112506 
Q 226.405215 367.512506 228.805215 367.512506 
z
" style="fill: #ffffff; opacity: 0.7"/>
    </g>
    <!-- 28,778 -->
    <g style="fill: #262626" transform="translate(228.805215 362.744381) scale(0.12 -0.12)">
     <use xlink:href="#Arial-BoldMT-32"/>
     <use xlink:href="#Arial-BoldMT-38" transform="translate(55.615234 0)"/>
     <use xlink:href="#Arial-BoldMT-2c" transform="translate(111.230469 0)"/>
     <use xlink:href="#Arial-BoldMT-37" transform="translate(139.013672 0)"/>
     <use xlink:href="#Arial-BoldMT-37" transform="translate(194.628906 0)"/>
     <use xlink:href="#Arial-BoldMT-38" transform="translate(250.244141 0)"/>
    </g>
   </g>
   <g id="text_24">
    <g id="patch_34">
     <path d="M 294.319853 308.784661 
L 331.019228 308.784661 
Q 333.419228 308.784661 333.419228 306.384661 
L 333.419228 295.427161 
Q 333.419228 293.027161 331.019228 293.027161 
L 294.319853 293.027161 
Q 291.919853 293.027161 291.919853 295.427161 
L 291.919853 306.384661 
Q 291.919853 308.784661 294.319853 308.784661 
z
" style="fill: #ffffff; opacity: 0.7"/>
    </g>
    <!-- 34,298 -->
    <g style="fill: #262626" transform="translate(294.319853 304.016536) scale(0.12 -0.12)">
     <defs>
      <path id="Arial-BoldMT-33" d="M 241 1216 
L 1091 1319 
Q 1131 994 1309 822 
Q 1488 650 1741 650 
Q 2013 650 2198 856 
Q 2384 1063 2384 1413 
Q 2384 1744 2206 1937 
Q 2028 2131 1772 2131 
Q 1603 2131 1369 2066 
L 1466 2781 
Q 1822 2772 2009 2936 
Q 2197 3100 2197 3372 
Q 2197 3603 2059 3740 
Q 1922 3878 1694 3878 
Q 1469 3878 1309 3722 
Q 1150 3566 1116 3266 
L 306 3403 
Q 391 3819 561 4067 
Q 731 4316 1036 4458 
Q 1341 4600 1719 4600 
Q 2366 4600 2756 4188 
Q 3078 3850 3078 3425 
Q 3078 2822 2419 2463 
Q 2813 2378 3048 2084 
Q 3284 1791 3284 1375 
Q 3284 772 2843 347 
Q 2403 -78 1747 -78 
Q 1125 -78 715 280 
Q 306 638 241 1216 
z
" transform="scale(0.015625)"/>
      <path id="Arial-BoldMT-39" d="M 291 1059 
L 1141 1153 
Q 1172 894 1303 769 
Q 1434 644 1650 644 
Q 1922 644 2112 894 
Q 2303 1144 2356 1931 
Q 2025 1547 1528 1547 
Q 988 1547 595 1964 
Q 203 2381 203 3050 
Q 203 3747 617 4173 
Q 1031 4600 1672 4600 
Q 2369 4600 2816 4061 
Q 3263 3522 3263 2288 
Q 3263 1031 2797 475 
Q 2331 -81 1584 -81 
Q 1047 -81 715 205 
Q 384 491 291 1059 
z
M 2278 2978 
Q 2278 3403 2083 3637 
Q 1888 3872 1631 3872 
Q 1388 3872 1227 3680 
Q 1066 3488 1066 3050 
Q 1066 2606 1241 2398 
Q 1416 2191 1678 2191 
Q 1931 2191 2104 2391 
Q 2278 2591 2278 2978 
z
" transform="scale(0.015625)"/>
     </defs>
     <use xlink:href="#Arial-BoldMT-33"/>
     <use xlink:href="#Arial-BoldMT-34" transform="translate(55.615234 0)"/>
     <use xlink:href="#Arial-BoldMT-2c" transform="translate(111.230469 0)"/>
     <use xlink:href="#Arial-BoldMT-32" transform="translate(139.013672 0)"/>
     <use xlink:href="#Arial-BoldMT-39" transform="translate(194.628906 0)"/>
     <use xlink:href="#Arial-BoldMT-38" transform="translate(250.244141 0)"/>
    </g>
   </g>
   <g id="text_25">
    <g id="patch_35">
     <path d="M 359.834491 265.001803 
L 396.533866 265.001803 
Q 398.933866 265.001803 398.933866 262.601803 
L 398.933866 251.644303 
Q 398.933866 249.244303 396.533866 249.244303 
L 359.834491 249.244303 
Q 357.434491 249.244303 357.434491 251.644303 
L 357.434491 262.601803 
Q 357.434491 265.001803 359.834491 265.001803 
z
" style="fill: #ffffff; opacity: 0.7"/>
    </g>
    <!-- 38,413 -->
    <g style="fill: #262626" transform="translate(359.834491 260.233678) scale(0.12 -0.12)">
     <use xlink:href="#Arial-BoldMT-33"/>
     <use xlink:href="#Arial-BoldMT-38" transform="translate(55.615234 0)"/>
     <use xlink:href="#Arial-BoldMT-2c" transform="translate(111.230469 0)"/>
     <use xlink:href="#Arial-BoldMT-34" transform="translate(139.013672 0)"/>
     <use xlink:href="#Arial-BoldMT-31" transform="translate(194.628906 0)"/>
     <use xlink:href="#Arial-BoldMT-33" transform="translate(250.244141 0)"/>
    </g>
   </g>
   <g id="text_26">
    <g id="patch_36">
     <path d="M 425.349128 345.627643 
L 462.048503 345.627643 
Q 464.448503 345.627643 464.448503 343.227643 
L 464.448503 332.270143 
Q 464.448503 329.870143 462.048503 329.870143 
L 425.349128 329.870143 
Q 422.949128 329.870143 422.949128 332.270143 
L 422.949128 343.227643 
Q 422.949128 345.627643 425.349128 345.627643 
z
" style="fill: #ffffff; opacity: 0.7"/>
    </g>
    <!-- 30,835 -->
    <g style="fill: #262626" transform="translate(425.349128 340.859518) scale(0.12 -0.12)">
     <use xlink:href="#Arial-BoldMT-33"/>
     <use xlink:href="#Arial-BoldMT-30" transform="translate(55.615234 0)"/>
     <use xlink:href="#Arial-BoldMT-2c" transform="translate(111.230469 0)"/>
     <use xlink:href="#Arial-BoldMT-38" transform="translate(139.013672 0)"/>
     <use xlink:href="#Arial-BoldMT-33" transform="translate(194.628906 0)"/>
     <use xlink:href="#Arial-BoldMT-35" transform="translate(250.244141 0)"/>
    </g>
   </g>
   <g id="text_27">
    <g id="patch_37">
     <path d="M 490.863766 351.372646 
L 527.563141 351.372646 
Q 529.963141 351.372646 529.963141 348.972646 
L 529.963141 338.015146 
Q 529.963141 335.615146 527.563141 335.615146 
L 490.863766 335.615146 
Q 488.463766 335.615146 488.463766 338.015146 
L 488.463766 348.972646 
Q 488.463766 351.372646 490.863766 351.372646 
z
" style="fill: #ffffff; opacity: 0.7"/>
    </g>
    <!-- 30,295 -->
    <g style="fill: #262626" transform="translate(490.863766 346.604521) scale(0.12 -0.12)">
     <use xlink:href="#Arial-BoldMT-33"/>
     <use xlink:href="#Arial-BoldMT-30" transform="translate(55.615234 0)"/>
     <use xlink:href="#Arial-BoldMT-2c" transform="translate(111.230469 0)"/>
     <use xlink:href="#Arial-BoldMT-32" transform="translate(139.013672 0)"/>
     <use xlink:href="#Arial-BoldMT-39" transform="translate(194.628906 0)"/>
     <use xlink:href="#Arial-BoldMT-35" transform="translate(250.244141 0)"/>
    </g>
   </g>
   <g id="text_28">
    <g id="patch_38">
     <path d="M 556.378404 399.286342 
L 593.077779 399.286342 
Q 595.477779 399.286342 595.477779 396.886342 
L 595.477779 385.928842 
Q 595.477779 383.528842 593.077779 383.528842 
L 556.378404 383.528842 
Q 553.978404 383.528842 553.978404 385.928842 
L 553.978404 396.886342 
Q 553.978404 399.286342 556.378404 399.286342 
z
" style="fill: #ffffff; opacity: 0.7"/>
    </g>
    <!-- 25,791 -->
    <g style="fill: #262626" transform="translate(556.378404 394.518217) scale(0.12 -0.12)">
     <use xlink:href="#Arial-BoldMT-32"/>
     <use xlink:href="#Arial-BoldMT-35" transform="translate(55.615234 0)"/>
     <use xlink:href="#Arial-BoldMT-2c" transform="translate(111.230469 0)"/>
     <use xlink:href="#Arial-BoldMT-37" transform="translate(139.013672 0)"/>
     <use xlink:href="#Arial-BoldMT-39" transform="translate(194.628906 0)"/>
     <use xlink:href="#Arial-BoldMT-31" transform="translate(250.244141 0)"/>
    </g>
   </g>
   <g id="text_29">
    <g id="patch_39">
     <path d="M 622.223042 449.015283 
L 658.262417 449.015283 
Q 660.662417 449.015283 660.662417 446.615283 
L 660.662417 435.657783 
Q 660.662417 433.257783 658.262417 433.257783 
L 622.223042 433.257783 
Q 619.823042 433.257783 619.823042 435.657783 
L 619.823042 446.615283 
Q 619.823042 449.015283 622.223042 449.015283 
z
" style="fill: #ffffff; opacity: 0.7"/>
    </g>
    <!-- 21,117 -->
    <g style="fill: #262626" transform="translate(622.223042 444.247158) scale(0.12 -0.12)">
     <use xlink:href="#Arial-BoldMT-32"/>
     <use xlink:href="#Arial-BoldMT-31" transform="translate(55.615234 0)"/>
     <use xlink:href="#Arial-BoldMT-2c" transform="translate(111.230469 0)"/>
     <use xlink:href="#Arial-BoldMT-31" transform="translate(139.013672 0)"/>
     <use xlink:href="#Arial-BoldMT-31" transform="translate(189.128906 0)"/>
     <use xlink:href="#Arial-BoldMT-37" transform="translate(244.744141 0)"/>
    </g>
   </g>
   <g id="text_30">
    <g id="patch_40">
     <path d="M 687.40768 482.035083 
L 724.107055 482.035083 
Q 726.507055 482.035083 726.507055 479.635083 
L 726.507055 468.677583 
Q 726.507055 466.277583 724.107055 466.277583 
L 687.40768 466.277583 
Q 685.00768 466.277583 685.00768 468.677583 
L 685.00768 479.635083 
Q 685.00768 482.035083 687.40768 482.035083 
z
" style="fill: #ffffff; opacity: 0.7"/>
    </g>
    <!-- 18,013 -->
    <g style="fill: #262626" transform="translate(687.40768 477.266958) scale(0.12 -0.12)">
     <use xlink:href="#Arial-BoldMT-31"/>
     <use xlink:href="#Arial-BoldMT-38" transform="translate(55.615234 0)"/>
     <use xlink:href="#Arial-BoldMT-2c" transform="translate(111.230469 0)"/>
     <use xlink:href="#Arial-BoldMT-30" transform="translate(139.013672 0)"/>
     <use xlink:href="#Arial-BoldMT-31" transform="translate(194.628906 0)"/>
     <use xlink:href="#Arial-BoldMT-33" transform="translate(250.244141 0)"/>
    </g>
   </g>
   <g id="text_31">
    <g id="patch_41">
     <path d="M 752.922318 536.097296 
L 789.621693 536.097296 
Q 792.021693 536.097296 792.021693 533.697296 
L 792.021693 522.739796 
Q 792.021693 520.339796 789.621693 520.339796 
L 752.922318 520.339796 
Q 750.522318 520.339796 750.522318 522.739796 
L 750.522318 533.697296 
Q 750.522318 536.097296 752.922318 536.097296 
z
" style="fill: #ffffff; opacity: 0.7"/>
    </g>
    <!-- 12,931 -->
    <g style="fill: #262626" transform="translate(752.922318 531.329171) scale(0.12 -0.12)">
     <use xlink:href="#Arial-BoldMT-31"/>
     <use xlink:href="#Arial-BoldMT-32" transform="translate(55.615234 0)"/>
     <use xlink:href="#Arial-BoldMT-2c" transform="translate(111.230469 0)"/>
     <use xlink:href="#Arial-BoldMT-39" transform="translate(139.013672 0)"/>
     <use xlink:href="#Arial-BoldMT-33" transform="translate(194.628906 0)"/>
     <use xlink:href="#Arial-BoldMT-31" transform="translate(250.244141 0)"/>
    </g>
   </g>
   <g id="text_32">
    <g id="patch_42">
     <path d="M 821.773518 580.115819 
L 851.799768 580.115819 
Q 854.199768 580.115819 854.199768 577.715819 
L 854.199768 566.758319 
Q 854.199768 564.358319 851.799768 564.358319 
L 821.773518 564.358319 
Q 819.373518 564.358319 819.373518 566.758319 
L 819.373518 577.715819 
Q 819.373518 580.115819 821.773518 580.115819 
z
" style="fill: #ffffff; opacity: 0.7"/>
    </g>
    <!-- 8,794 -->
    <g style="fill: #262626" transform="translate(821.773518 575.347694) scale(0.12 -0.12)">
     <use xlink:href="#Arial-BoldMT-38"/>
     <use xlink:href="#Arial-BoldMT-2c" transform="translate(55.615234 0)"/>
     <use xlink:href="#Arial-BoldMT-37" transform="translate(83.398438 0)"/>
     <use xlink:href="#Arial-BoldMT-39" transform="translate(139.013672 0)"/>
     <use xlink:href="#Arial-BoldMT-34" transform="translate(194.628906 0)"/>
    </g>
   </g>
   <g id="text_33">
    <g id="patch_43">
     <path d="M 123.981794 385.397993 
L 160.681169 385.397993 
Q 163.081169 385.397993 163.081169 382.997993 
L 163.081169 372.040493 
Q 163.081169 369.640493 160.681169 369.640493 
L 123.981794 369.640493 
Q 121.581794 369.640493 121.581794 372.040493 
L 121.581794 382.997993 
Q 121.581794 385.397993 123.981794 385.397993 
z
" style="fill: #ffffff; opacity: 0.7"/>
    </g>
    <!-- 27,096 -->
    <g style="fill: #262626" transform="translate(123.981794 380.629868) scale(0.12 -0.12)">
     <defs>
      <path id="Arial-BoldMT-36" d="M 3247 3459 
L 2397 3366 
Q 2366 3628 2234 3753 
Q 2103 3878 1894 3878 
Q 1616 3878 1423 3628 
Q 1231 3378 1181 2588 
Q 1509 2975 1997 2975 
Q 2547 2975 2939 2556 
Q 3331 2138 3331 1475 
Q 3331 772 2918 347 
Q 2506 -78 1859 -78 
Q 1166 -78 719 461 
Q 272 1000 272 2228 
Q 272 3488 737 4044 
Q 1203 4600 1947 4600 
Q 2469 4600 2811 4308 
Q 3153 4016 3247 3459 
z
M 1256 1544 
Q 1256 1116 1453 883 
Q 1650 650 1903 650 
Q 2147 650 2309 840 
Q 2472 1031 2472 1466 
Q 2472 1913 2297 2120 
Q 2122 2328 1859 2328 
Q 1606 2328 1431 2129 
Q 1256 1931 1256 1544 
z
" transform="scale(0.015625)"/>
     </defs>
     <use xlink:href="#Arial-BoldMT-32"/>
     <use xlink:href="#Arial-BoldMT-37" transform="translate(55.615234 0)"/>
     <use xlink:href="#Arial-BoldMT-2c" transform="translate(111.230469 0)"/>
     <use xlink:href="#Arial-BoldMT-30" transform="translate(139.013672 0)"/>
     <use xlink:href="#Arial-BoldMT-39" transform="translate(194.628906 0)"/>
     <use xlink:href="#Arial-BoldMT-36" transform="translate(250.244141 0)"/>
    </g>
   </g>
   <g id="text_34">
    <g id="patch_44">
     <path d="M 189.496432 353.071306 
L 226.195807 353.071306 
Q 228.595807 353.071306 228.595807 350.671306 
L 228.595807 339.713806 
Q 228.595807 337.313806 226.195807 337.313806 
L 189.496432 337.313806 
Q 187.096432 337.313806 187.096432 339.713806 
L 187.096432 350.671306 
Q 187.096432 353.071306 189.496432 353.071306 
z
" style="fill: #ffffff; opacity: 0.7"/>
    </g>
    <!-- 30,135 -->
    <g style="fill: #262626" transform="translate(189.496432 348.303181) scale(0.12 -0.12)">
     <use xlink:href="#Arial-BoldMT-33"/>
     <use xlink:href="#Arial-BoldMT-30" transform="translate(55.615234 0)"/>
     <use xlink:href="#Arial-BoldMT-2c" transform="translate(111.230469 0)"/>
     <use xlink:href="#Arial-BoldMT-31" transform="translate(139.013672 0)"/>
     <use xlink:href="#Arial-BoldMT-33" transform="translate(194.628906 0)"/>
     <use xlink:href="#Arial-BoldMT-35" transform="translate(250.244141 0)"/>
    </g>
   </g>
   <g id="text_35">
    <g id="patch_45">
     <path d="M 255.01107 200.350777 
L 291.710445 200.350777 
Q 294.110445 200.350777 294.110445 197.950777 
L 294.110445 186.993277 
Q 294.110445 184.593277 291.710445 184.593277 
L 255.01107 184.593277 
Q 252.61107 184.593277 252.61107 186.993277 
L 252.61107 197.950777 
Q 252.61107 200.350777 255.01107 200.350777 
z
" style="fill: #ffffff; opacity: 0.7"/>
    </g>
    <!-- 44,490 -->
    <g style="fill: #262626" transform="translate(255.01107 195.582652) scale(0.12 -0.12)">
     <use xlink:href="#Arial-BoldMT-34"/>
     <use xlink:href="#Arial-BoldMT-34" transform="translate(55.615234 0)"/>
     <use xlink:href="#Arial-BoldMT-2c" transform="translate(111.230469 0)"/>
     <use xlink:href="#Arial-BoldMT-34" transform="translate(139.013672 0)"/>
     <use xlink:href="#Arial-BoldMT-39" transform="translate(194.628906 0)"/>
     <use xlink:href="#Arial-BoldMT-30" transform="translate(250.244141 0)"/>
    </g>
   </g>
   <g id="text_36">
    <g id="patch_46">
     <path d="M 320.525708 118.223912 
L 357.225083 118.223912 
Q 359.625083 118.223912 359.625083 115.823912 
L 359.625083 104.866412 
Q 359.625083 102.466412 357.225083 102.466412 
L 320.525708 102.466412 
Q 318.125708 102.466412 318.125708 104.866412 
L 318.125708 115.823912 
Q 318.125708 118.223912 320.525708 118.223912 
z
" style="fill: #ffffff; opacity: 0.7"/>
    </g>
    <!-- 52,209 -->
    <g style="fill: #262626" transform="translate(320.525708 113.455787) scale(0.12 -0.12)">
     <use xlink:href="#Arial-BoldMT-35"/>
     <use xlink:href="#Arial-BoldMT-32" transform="translate(55.615234 0)"/>
     <use xlink:href="#Arial-BoldMT-2c" transform="translate(111.230469 0)"/>
     <use xlink:href="#Arial-BoldMT-32" transform="translate(139.013672 0)"/>
     <use xlink:href="#Arial-BoldMT-30" transform="translate(194.628906 0)"/>
     <use xlink:href="#Arial-BoldMT-39" transform="translate(250.244141 0)"/>
    </g>
   </g>
   <g id="text_37">
    <g id="patch_47">
     <path d="M 386.040346 87.658702 
L 422.739721 87.658702 
Q 425.139721 87.658702 425.139721 85.258702 
L 425.139721 74.301202 
Q 425.139721 71.901202 422.739721 71.901202 
L 386.040346 71.901202 
Q 383.640346 71.901202 383.640346 74.301202 
L 383.640346 85.258702 
Q 383.640346 87.658702 386.040346 87.658702 
z
" style="fill: #ffffff; opacity: 0.7"/>
    </g>
    <!-- 55,082 -->
    <g style="fill: #262626" transform="translate(386.040346 82.890577) scale(0.12 -0.12)">
     <use xlink:href="#Arial-BoldMT-35"/>
     <use xlink:href="#Arial-BoldMT-35" transform="translate(55.615234 0)"/>
     <use xlink:href="#Arial-BoldMT-2c" transform="translate(111.230469 0)"/>
     <use xlink:href="#Arial-BoldMT-30" transform="translate(139.013672 0)"/>
     <use xlink:href="#Arial-BoldMT-38" transform="translate(194.628906 0)"/>
     <use xlink:href="#Arial-BoldMT-32" transform="translate(250.244141 0)"/>
    </g>
   </g>
   <g id="text_38">
    <g id="patch_48">
     <path d="M 451.554984 186.206402 
L 488.254359 186.206402 
Q 490.654359 186.206402 490.654359 183.806402 
L 490.654359 172.848902 
Q 490.654359 170.448902 488.254359 170.448902 
L 451.554984 170.448902 
Q 449.154984 170.448902 449.154984 172.848902 
L 449.154984 183.806402 
Q 449.154984 186.206402 451.554984 186.206402 
z
" style="fill: #ffffff; opacity: 0.7"/>
    </g>
    <!-- 45,819 -->
    <g style="fill: #262626" transform="translate(451.554984 181.438277) scale(0.12 -0.12)">
     <use xlink:href="#Arial-BoldMT-34"/>
     <use xlink:href="#Arial-BoldMT-35" transform="translate(55.615234 0)"/>
     <use xlink:href="#Arial-BoldMT-2c" transform="translate(111.230469 0)"/>
     <use xlink:href="#Arial-BoldMT-38" transform="translate(139.013672 0)"/>
     <use xlink:href="#Arial-BoldMT-31" transform="translate(194.628906 0)"/>
     <use xlink:href="#Arial-BoldMT-39" transform="translate(250.244141 0)"/>
    </g>
   </g>
   <g id="text_39">
    <g id="patch_49">
     <path d="M 517.069622 182.625146 
L 553.768997 182.625146 
Q 556.168997 182.625146 556.168997 180.225146 
L 556.168997 169.267646 
Q 556.168997 166.867646 553.768997 166.867646 
L 517.069622 166.867646 
Q 514.669622 166.867646 514.669622 169.267646 
L 514.669622 180.225146 
Q 514.669622 182.625146 517.069622 182.625146 
z
" style="fill: #ffffff; opacity: 0.7"/>
    </g>
    <!-- 46,156 -->
    <g style="fill: #262626" transform="translate(517.069622 177.857021) scale(0.12 -0.12)">
     <use xlink:href="#Arial-BoldMT-34"/>
     <use xlink:href="#Arial-BoldMT-36" transform="translate(55.615234 0)"/>
     <use xlink:href="#Arial-BoldMT-2c" transform="translate(111.230469 0)"/>
     <use xlink:href="#Arial-BoldMT-31" transform="translate(139.013672 0)"/>
     <use xlink:href="#Arial-BoldMT-35" transform="translate(194.628906 0)"/>
     <use xlink:href="#Arial-BoldMT-36" transform="translate(250.244141 0)"/>
    </g>
   </g>
   <g id="text_40">
    <g id="patch_50">
     <path d="M 582.584259 242.857554 
L 619.283634 242.857554 
Q 621.683634 242.857554 621.683634 240.457554 
L 621.683634 229.500054 
Q 621.683634 227.100054 619.283634 227.100054 
L 582.584259 227.100054 
Q 580.184259 227.100054 580.184259 229.500054 
L 580.184259 240.457554 
Q 580.184259 242.857554 582.584259 242.857554 
z
" style="fill: #ffffff; opacity: 0.7"/>
    </g>
    <!-- 40,494 -->
    <g style="fill: #262626" transform="translate(582.584259 238.089429) scale(0.12 -0.12)">
     <use xlink:href="#Arial-BoldMT-34"/>
     <use xlink:href="#Arial-BoldMT-30" transform="translate(55.615234 0)"/>
     <use xlink:href="#Arial-BoldMT-2c" transform="translate(111.230469 0)"/>
     <use xlink:href="#Arial-BoldMT-34" transform="translate(139.013672 0)"/>
     <use xlink:href="#Arial-BoldMT-39" transform="translate(194.628906 0)"/>
     <use xlink:href="#Arial-BoldMT-34" transform="translate(250.244141 0)"/>
    </g>
   </g>
   <g id="text_41">
    <g id="patch_51">
     <path d="M 648.098897 318.435062 
L 684.798272 318.435062 
Q 687.198272 318.435062 687.198272 316.035062 
L 687.198272 305.077562 
Q 687.198272 302.677562 684.798272 302.677562 
L 648.098897 302.677562 
Q 645.698897 302.677562 645.698897 305.077562 
L 645.698897 316.035062 
Q 645.698897 318.435062 648.098897 318.435062 
z
" style="fill: #ffffff; opacity: 0.7"/>
    </g>
    <!-- 33,391 -->
    <g style="fill: #262626" transform="translate(648.098897 313.666937) scale(0.12 -0.12)">
     <use xlink:href="#Arial-BoldMT-33"/>
     <use xlink:href="#Arial-BoldMT-33" transform="translate(55.615234 0)"/>
     <use xlink:href="#Arial-BoldMT-2c" transform="translate(111.230469 0)"/>
     <use xlink:href="#Arial-BoldMT-33" transform="translate(139.013672 0)"/>
     <use xlink:href="#Arial-BoldMT-39" transform="translate(194.628906 0)"/>
     <use xlink:href="#Arial-BoldMT-31" transform="translate(250.244141 0)"/>
    </g>
   </g>
   <g id="text_42">
    <g id="patch_52">
     <path d="M 713.613535 364.220414 
L 750.31291 364.220414 
Q 752.71291 364.220414 752.71291 361.820414 
L 752.71291 350.862914 
Q 752.71291 348.462914 750.31291 348.462914 
L 713.613535 348.462914 
Q 711.213535 348.462914 711.213535 350.862914 
L 711.213535 361.820414 
Q 711.213535 364.220414 713.613535 364.220414 
z
" style="fill: #ffffff; opacity: 0.7"/>
    </g>
    <!-- 29,087 -->
    <g style="fill: #262626" transform="translate(713.613535 359.452289) scale(0.12 -0.12)">
     <use xlink:href="#Arial-BoldMT-32"/>
     <use xlink:href="#Arial-BoldMT-39" transform="translate(55.615234 0)"/>
     <use xlink:href="#Arial-BoldMT-2c" transform="translate(111.230469 0)"/>
     <use xlink:href="#Arial-BoldMT-30" transform="translate(139.013672 0)"/>
     <use xlink:href="#Arial-BoldMT-38" transform="translate(194.628906 0)"/>
     <use xlink:href="#Arial-BoldMT-37" transform="translate(250.244141 0)"/>
    </g>
   </g>
   <g id="text_43">
    <g id="patch_53">
     <path d="M 779.128173 400.198939 
L 815.827548 400.198939 
Q 818.227548 400.198939 818.227548 397.798939 
L 818.227548 386.841439 
Q 818.227548 384.441439 815.827548 384.441439 
L 779.128173 384.441439 
Q 776.728173 384.441439 776.728173 386.841439 
L 776.728173 397.798939 
Q 776.728173 400.198939 779.128173 400.198939 
z
" style="fill: #ffffff; opacity: 0.7"/>
    </g>
    <!-- 25,705 -->
    <g style="fill: #262626" transform="translate(779.128173 395.430814) scale(0.12 -0.12)">
     <use xlink:href="#Arial-BoldMT-32"/>
     <use xlink:href="#Arial-BoldMT-35" transform="translate(55.615234 0)"/>
     <use xlink:href="#Arial-BoldMT-2c" transform="translate(111.230469 0)"/>
     <use xlink:href="#Arial-BoldMT-37" transform="translate(139.013672 0)"/>
     <use xlink:href="#Arial-BoldMT-30" transform="translate(194.628906 0)"/>
     <use xlink:href="#Arial-BoldMT-35" transform="translate(250.244141 0)"/>
    </g>
   </g>
   <g id="text_44">
    <g id="patch_54">
     <path d="M 844.642811 434.24119 
L 881.342186 434.24119 
Q 883.742186 434.24119 883.742186 431.84119 
L 883.742186 420.88369 
Q 883.742186 418.48369 881.342186 418.48369 
L 844.642811 418.48369 
Q 842.242811 418.48369 842.242811 420.88369 
L 842.242811 431.84119 
Q 842.242811 434.24119 844.642811 434.24119 
z
" style="fill: #ffffff; opacity: 0.7"/>
    </g>
    <!-- 22,505 -->
    <g style="fill: #262626" transform="translate(844.642811 429.473065) scale(0.12 -0.12)">
     <use xlink:href="#Arial-BoldMT-32"/>
     <use xlink:href="#Arial-BoldMT-32" transform="translate(55.615234 0)"/>
     <use xlink:href="#Arial-BoldMT-2c" transform="translate(111.230469 0)"/>
     <use xlink:href="#Arial-BoldMT-35" transform="translate(139.013672 0)"/>
     <use xlink:href="#Arial-BoldMT-30" transform="translate(194.628906 0)"/>
     <use xlink:href="#Arial-BoldMT-35" transform="translate(250.244141 0)"/>
    </g>
   </g>
   <g id="text_45">
    <!-- I3P Dataset - Monthly Production by Target Column -->
    <g style="fill: #262626" transform="translate(294.731562 18.8475) scale(0.16 -0.16)">
     <defs>
      <path id="Arial-BoldMT-49" d="M 438 0 
L 438 4581 
L 1363 4581 
L 1363 0 
L 438 0 
z
" transform="scale(0.015625)"/>
      <path id="Arial-BoldMT-50" d="M 466 0 
L 466 4581 
L 1950 4581 
Q 2794 4581 3050 4513 
Q 3444 4409 3709 4064 
Q 3975 3719 3975 3172 
Q 3975 2750 3822 2462 
Q 3669 2175 3433 2011 
Q 3197 1847 2953 1794 
Q 2622 1728 1994 1728 
L 1391 1728 
L 1391 0 
L 466 0 
z
M 1391 3806 
L 1391 2506 
L 1897 2506 
Q 2444 2506 2628 2578 
Q 2813 2650 2917 2803 
Q 3022 2956 3022 3159 
Q 3022 3409 2875 3571 
Q 2728 3734 2503 3775 
Q 2338 3806 1838 3806 
L 1391 3806 
z
" transform="scale(0.015625)"/>
      <path id="Arial-BoldMT-20" transform="scale(0.015625)"/>
      <path id="Arial-BoldMT-44" d="M 463 4581 
L 2153 4581 
Q 2725 4581 3025 4494 
Q 3428 4375 3715 4072 
Q 4003 3769 4153 3330 
Q 4303 2891 4303 2247 
Q 4303 1681 4163 1272 
Q 3991 772 3672 463 
Q 3431 228 3022 97 
Q 2716 0 2203 0 
L 463 0 
L 463 4581 
z
M 1388 3806 
L 1388 772 
L 2078 772 
Q 2466 772 2638 816 
Q 2863 872 3011 1006 
Q 3159 1141 3253 1448 
Q 3347 1756 3347 2288 
Q 3347 2819 3253 3103 
Q 3159 3388 2990 3547 
Q 2822 3706 2563 3763 
Q 2369 3806 1803 3806 
L 1388 3806 
z
" transform="scale(0.015625)"/>
      <path id="Arial-BoldMT-61" d="M 1116 2306 
L 319 2450 
Q 453 2931 781 3162 
Q 1109 3394 1756 3394 
Q 2344 3394 2631 3255 
Q 2919 3116 3036 2902 
Q 3153 2688 3153 2116 
L 3144 1091 
Q 3144 653 3186 445 
Q 3228 238 3344 0 
L 2475 0 
Q 2441 88 2391 259 
Q 2369 338 2359 363 
Q 2134 144 1878 34 
Q 1622 -75 1331 -75 
Q 819 -75 523 203 
Q 228 481 228 906 
Q 228 1188 362 1408 
Q 497 1628 739 1745 
Q 981 1863 1438 1950 
Q 2053 2066 2291 2166 
L 2291 2253 
Q 2291 2506 2166 2614 
Q 2041 2722 1694 2722 
Q 1459 2722 1328 2630 
Q 1197 2538 1116 2306 
z
M 2291 1594 
Q 2122 1538 1756 1459 
Q 1391 1381 1278 1306 
Q 1106 1184 1106 997 
Q 1106 813 1243 678 
Q 1381 544 1594 544 
Q 1831 544 2047 700 
Q 2206 819 2256 991 
Q 2291 1103 2291 1419 
L 2291 1594 
z
" transform="scale(0.015625)"/>
      <path id="Arial-BoldMT-74" d="M 1981 3319 
L 1981 2619 
L 1381 2619 
L 1381 1281 
Q 1381 875 1398 808 
Q 1416 741 1477 697 
Q 1538 653 1625 653 
Q 1747 653 1978 738 
L 2053 56 
Q 1747 -75 1359 -75 
Q 1122 -75 931 4 
Q 741 84 652 211 
Q 563 338 528 553 
Q 500 706 500 1172 
L 500 2619 
L 97 2619 
L 97 3319 
L 500 3319 
L 500 3978 
L 1381 4491 
L 1381 3319 
L 1981 3319 
z
" transform="scale(0.015625)"/>
      <path id="Arial-BoldMT-73" d="M 150 947 
L 1031 1081 
Q 1088 825 1259 692 
Q 1431 559 1741 559 
Q 2081 559 2253 684 
Q 2369 772 2369 919 
Q 2369 1019 2306 1084 
Q 2241 1147 2013 1200 
Q 950 1434 666 1628 
Q 272 1897 272 2375 
Q 272 2806 612 3100 
Q 953 3394 1669 3394 
Q 2350 3394 2681 3172 
Q 3013 2950 3138 2516 
L 2309 2363 
Q 2256 2556 2107 2659 
Q 1959 2763 1684 2763 
Q 1338 2763 1188 2666 
Q 1088 2597 1088 2488 
Q 1088 2394 1175 2328 
Q 1294 2241 1995 2081 
Q 2697 1922 2975 1691 
Q 3250 1456 3250 1038 
Q 3250 581 2869 253 
Q 2488 -75 1741 -75 
Q 1063 -75 667 200 
Q 272 475 150 947 
z
" transform="scale(0.015625)"/>
      <path id="Arial-BoldMT-65" d="M 2381 1056 
L 3256 909 
Q 3088 428 2723 176 
Q 2359 -75 1813 -75 
Q 947 -75 531 491 
Q 203 944 203 1634 
Q 203 2459 634 2926 
Q 1066 3394 1725 3394 
Q 2466 3394 2894 2905 
Q 3322 2416 3303 1406 
L 1103 1406 
Q 1113 1016 1316 798 
Q 1519 581 1822 581 
Q 2028 581 2168 693 
Q 2309 806 2381 1056 
z
M 2431 1944 
Q 2422 2325 2234 2523 
Q 2047 2722 1778 2722 
Q 1491 2722 1303 2513 
Q 1116 2303 1119 1944 
L 2431 1944 
z
" transform="scale(0.015625)"/>
      <path id="Arial-BoldMT-2d" d="M 359 1222 
L 359 2100 
L 2084 2100 
L 2084 1222 
L 359 1222 
z
" transform="scale(0.015625)"/>
      <path id="Arial-BoldMT-4d" d="M 453 0 
L 453 4581 
L 1838 4581 
L 2669 1456 
L 3491 4581 
L 4878 4581 
L 4878 0 
L 4019 0 
L 4019 3606 
L 3109 0 
L 2219 0 
L 1313 3606 
L 1313 0 
L 453 0 
z
" transform="scale(0.015625)"/>
      <path id="Arial-BoldMT-6f" d="M 256 1706 
Q 256 2144 472 2553 
Q 688 2963 1083 3178 
Q 1478 3394 1966 3394 
Q 2719 3394 3200 2905 
Q 3681 2416 3681 1669 
Q 3681 916 3195 420 
Q 2709 -75 1972 -75 
Q 1516 -75 1102 131 
Q 688 338 472 736 
Q 256 1134 256 1706 
z
M 1156 1659 
Q 1156 1166 1390 903 
Q 1625 641 1969 641 
Q 2313 641 2545 903 
Q 2778 1166 2778 1666 
Q 2778 2153 2545 2415 
Q 2313 2678 1969 2678 
Q 1625 2678 1390 2415 
Q 1156 2153 1156 1659 
z
" transform="scale(0.015625)"/>
      <path id="Arial-BoldMT-6e" d="M 3478 0 
L 2600 0 
L 2600 1694 
Q 2600 2231 2544 2389 
Q 2488 2547 2361 2634 
Q 2234 2722 2056 2722 
Q 1828 2722 1647 2597 
Q 1466 2472 1398 2265 
Q 1331 2059 1331 1503 
L 1331 0 
L 453 0 
L 453 3319 
L 1269 3319 
L 1269 2831 
Q 1703 3394 2363 3394 
Q 2653 3394 2893 3289 
Q 3134 3184 3257 3021 
Q 3381 2859 3429 2653 
Q 3478 2447 3478 2063 
L 3478 0 
z
" transform="scale(0.015625)"/>
      <path id="Arial-BoldMT-68" d="M 1334 4581 
L 1334 2897 
Q 1759 3394 2350 3394 
Q 2653 3394 2897 3281 
Q 3141 3169 3264 2994 
Q 3388 2819 3433 2606 
Q 3478 2394 3478 1947 
L 3478 0 
L 2600 0 
L 2600 1753 
Q 2600 2275 2550 2415 
Q 2500 2556 2373 2639 
Q 2247 2722 2056 2722 
Q 1838 2722 1666 2615 
Q 1494 2509 1414 2295 
Q 1334 2081 1334 1663 
L 1334 0 
L 456 0 
L 456 4581 
L 1334 4581 
z
" transform="scale(0.015625)"/>
      <path id="Arial-BoldMT-6c" d="M 459 0 
L 459 4581 
L 1338 4581 
L 1338 0 
L 459 0 
z
" transform="scale(0.015625)"/>
      <path id="Arial-BoldMT-79" d="M 44 3319 
L 978 3319 
L 1772 963 
L 2547 3319 
L 3456 3319 
L 2284 125 
L 2075 -453 
Q 1959 -744 1854 -897 
Q 1750 -1050 1614 -1145 
Q 1478 -1241 1279 -1294 
Q 1081 -1347 831 -1347 
Q 578 -1347 334 -1294 
L 256 -606 
Q 463 -647 628 -647 
Q 934 -647 1081 -467 
Q 1228 -288 1306 -9 
L 44 3319 
z
" transform="scale(0.015625)"/>
      <path id="Arial-BoldMT-72" d="M 1300 0 
L 422 0 
L 422 3319 
L 1238 3319 
L 1238 2847 
Q 1447 3181 1614 3287 
Q 1781 3394 1994 3394 
Q 2294 3394 2572 3228 
L 2300 2463 
Q 2078 2606 1888 2606 
Q 1703 2606 1575 2504 
Q 1447 2403 1373 2137 
Q 1300 1872 1300 1025 
L 1300 0 
z
" transform="scale(0.015625)"/>
      <path id="Arial-BoldMT-64" d="M 3503 0 
L 2688 0 
L 2688 488 
Q 2484 203 2207 64 
Q 1931 -75 1650 -75 
Q 1078 -75 670 386 
Q 263 847 263 1672 
Q 263 2516 659 2955 
Q 1056 3394 1663 3394 
Q 2219 3394 2625 2931 
L 2625 4581 
L 3503 4581 
L 3503 0 
z
M 1159 1731 
Q 1159 1200 1306 963 
Q 1519 619 1900 619 
Q 2203 619 2415 876 
Q 2628 1134 2628 1647 
Q 2628 2219 2422 2470 
Q 2216 2722 1894 2722 
Q 1581 2722 1370 2473 
Q 1159 2225 1159 1731 
z
" transform="scale(0.015625)"/>
      <path id="Arial-BoldMT-75" d="M 2644 0 
L 2644 497 
Q 2463 231 2167 78 
Q 1872 -75 1544 -75 
Q 1209 -75 943 72 
Q 678 219 559 484 
Q 441 750 441 1219 
L 441 3319 
L 1319 3319 
L 1319 1794 
Q 1319 1094 1367 936 
Q 1416 778 1544 686 
Q 1672 594 1869 594 
Q 2094 594 2272 717 
Q 2450 841 2515 1023 
Q 2581 1206 2581 1919 
L 2581 3319 
L 3459 3319 
L 3459 0 
L 2644 0 
z
" transform="scale(0.015625)"/>
      <path id="Arial-BoldMT-63" d="M 3353 2338 
L 2488 2181 
Q 2444 2441 2289 2572 
Q 2134 2703 1888 2703 
Q 1559 2703 1364 2476 
Q 1169 2250 1169 1719 
Q 1169 1128 1367 884 
Q 1566 641 1900 641 
Q 2150 641 2309 783 
Q 2469 925 2534 1272 
L 3397 1125 
Q 3263 531 2881 228 
Q 2500 -75 1859 -75 
Q 1131 -75 698 384 
Q 266 844 266 1656 
Q 266 2478 700 2936 
Q 1134 3394 1875 3394 
Q 2481 3394 2839 3133 
Q 3197 2872 3353 2338 
z
" transform="scale(0.015625)"/>
      <path id="Arial-BoldMT-69" d="M 459 3769 
L 459 4581 
L 1338 4581 
L 1338 3769 
L 459 3769 
z
M 459 0 
L 459 3319 
L 1338 3319 
L 1338 0 
L 459 0 
z
" transform="scale(0.015625)"/>
      <path id="Arial-BoldMT-62" d="M 422 0 
L 422 4581 
L 1300 4581 
L 1300 2931 
Q 1706 3394 2263 3394 
Q 2869 3394 3266 2955 
Q 3663 2516 3663 1694 
Q 3663 844 3258 384 
Q 2853 -75 2275 -75 
Q 1991 -75 1714 67 
Q 1438 209 1238 488 
L 1238 0 
L 422 0 
z
M 1294 1731 
Q 1294 1216 1456 969 
Q 1684 619 2063 619 
Q 2353 619 2558 867 
Q 2763 1116 2763 1650 
Q 2763 2219 2556 2470 
Q 2350 2722 2028 2722 
Q 1713 2722 1503 2476 
Q 1294 2231 1294 1731 
z
" transform="scale(0.015625)"/>
      <path id="Arial-BoldMT-54" d="M 1497 0 
L 1497 3806 
L 138 3806 
L 138 4581 
L 3778 4581 
L 3778 3806 
L 2422 3806 
L 2422 0 
L 1497 0 
z
" transform="scale(0.015625)"/>
      <path id="Arial-BoldMT-67" d="M 378 -219 
L 1381 -341 
Q 1406 -516 1497 -581 
Q 1622 -675 1891 -675 
Q 2234 -675 2406 -572 
Q 2522 -503 2581 -350 
Q 2622 -241 2622 53 
L 2622 538 
Q 2228 0 1628 0 
Q 959 0 569 566 
Q 263 1013 263 1678 
Q 263 2513 664 2953 
Q 1066 3394 1663 3394 
Q 2278 3394 2678 2853 
L 2678 3319 
L 3500 3319 
L 3500 341 
Q 3500 -247 3403 -537 
Q 3306 -828 3131 -993 
Q 2956 -1159 2664 -1253 
Q 2372 -1347 1925 -1347 
Q 1081 -1347 728 -1058 
Q 375 -769 375 -325 
Q 375 -281 378 -219 
z
M 1163 1728 
Q 1163 1200 1367 954 
Q 1572 709 1872 709 
Q 2194 709 2416 961 
Q 2638 1213 2638 1706 
Q 2638 2222 2425 2472 
Q 2213 2722 1888 2722 
Q 1572 2722 1367 2476 
Q 1163 2231 1163 1728 
z
" transform="scale(0.015625)"/>
      <path id="Arial-BoldMT-43" d="M 3397 1684 
L 4294 1400 
Q 4088 650 3608 286 
Q 3128 -78 2391 -78 
Q 1478 -78 890 545 
Q 303 1169 303 2250 
Q 303 3394 893 4026 
Q 1484 4659 2447 4659 
Q 3288 4659 3813 4163 
Q 4125 3869 4281 3319 
L 3366 3100 
Q 3284 3456 3026 3662 
Q 2769 3869 2400 3869 
Q 1891 3869 1573 3503 
Q 1256 3138 1256 2319 
Q 1256 1450 1568 1081 
Q 1881 713 2381 713 
Q 2750 713 3015 947 
Q 3281 1181 3397 1684 
z
" transform="scale(0.015625)"/>
      <path id="Arial-BoldMT-6d" d="M 394 3319 
L 1203 3319 
L 1203 2866 
Q 1638 3394 2238 3394 
Q 2556 3394 2790 3262 
Q 3025 3131 3175 2866 
Q 3394 3131 3647 3262 
Q 3900 3394 4188 3394 
Q 4553 3394 4806 3245 
Q 5059 3097 5184 2809 
Q 5275 2597 5275 2122 
L 5275 0 
L 4397 0 
L 4397 1897 
Q 4397 2391 4306 2534 
Q 4184 2722 3931 2722 
Q 3747 2722 3584 2609 
Q 3422 2497 3350 2280 
Q 3278 2063 3278 1594 
L 3278 0 
L 2400 0 
L 2400 1819 
Q 2400 2303 2353 2443 
Q 2306 2584 2207 2653 
Q 2109 2722 1941 2722 
Q 1738 2722 1575 2612 
Q 1413 2503 1342 2297 
Q 1272 2091 1272 1613 
L 1272 0 
L 394 0 
L 394 3319 
z
" transform="scale(0.015625)"/>
     </defs>
     <use xlink:href="#Arial-BoldMT-49"/>
     <use xlink:href="#Arial-BoldMT-33" transform="translate(27.783203 0)"/>
     <use xlink:href="#Arial-BoldMT-50" transform="translate(83.398438 0)"/>
     <use xlink:href="#Arial-BoldMT-20" transform="translate(148.347656 0)"/>
     <use xlink:href="#Arial-BoldMT-44" transform="translate(176.130859 0)"/>
     <use xlink:href="#Arial-BoldMT-61" transform="translate(248.347656 0)"/>
     <use xlink:href="#Arial-BoldMT-74" transform="translate(303.962891 0)"/>
     <use xlink:href="#Arial-BoldMT-61" transform="translate(337.263672 0)"/>
     <use xlink:href="#Arial-BoldMT-73" transform="translate(392.878906 0)"/>
     <use xlink:href="#Arial-BoldMT-65" transform="translate(448.494141 0)"/>
     <use xlink:href="#Arial-BoldMT-74" transform="translate(504.109375 0)"/>
     <use xlink:href="#Arial-BoldMT-20" transform="translate(537.410156 0)"/>
     <use xlink:href="#Arial-BoldMT-2d" transform="translate(565.193359 0)"/>
     <use xlink:href="#Arial-BoldMT-20" transform="translate(598.494141 0)"/>
     <use xlink:href="#Arial-BoldMT-4d" transform="translate(626.277344 0)"/>
     <use xlink:href="#Arial-BoldMT-6f" transform="translate(709.578125 0)"/>
     <use xlink:href="#Arial-BoldMT-6e" transform="translate(770.662109 0)"/>
     <use xlink:href="#Arial-BoldMT-74" transform="translate(831.746094 0)"/>
     <use xlink:href="#Arial-BoldMT-68" transform="translate(865.046875 0)"/>
     <use xlink:href="#Arial-BoldMT-6c" transform="translate(926.130859 0)"/>
     <use xlink:href="#Arial-BoldMT-79" transform="translate(953.914062 0)"/>
     <use xlink:href="#Arial-BoldMT-20" transform="translate(1009.529297 0)"/>
     <use xlink:href="#Arial-BoldMT-50" transform="translate(1037.3125 0)"/>
     <use xlink:href="#Arial-BoldMT-72" transform="translate(1104.011719 0)"/>
     <use xlink:href="#Arial-BoldMT-6f" transform="translate(1142.927734 0)"/>
     <use xlink:href="#Arial-BoldMT-64" transform="translate(1204.011719 0)"/>
     <use xlink:href="#Arial-BoldMT-75" transform="translate(1265.095703 0)"/>
     <use xlink:href="#Arial-BoldMT-63" transform="translate(1326.179688 0)"/>
     <use xlink:href="#Arial-BoldMT-74" transform="translate(1381.794922 0)"/>
     <use xlink:href="#Arial-BoldMT-69" transform="translate(1415.095703 0)"/>
     <use xlink:href="#Arial-BoldMT-6f" transform="translate(1442.878906 0)"/>
     <use xlink:href="#Arial-BoldMT-6e" transform="translate(1503.962891 0)"/>
     <use xlink:href="#Arial-BoldMT-20" transform="translate(1565.046875 0)"/>
     <use xlink:href="#Arial-BoldMT-62" transform="translate(1592.830078 0)"/>
     <use xlink:href="#Arial-BoldMT-79" transform="translate(1653.914062 0)"/>
     <use xlink:href="#Arial-BoldMT-20" transform="translate(1709.529297 0)"/>
     <use xlink:href="#Arial-BoldMT-54" transform="translate(1737.3125 0)"/>
     <use xlink:href="#Arial-BoldMT-61" transform="translate(1791.021484 0)"/>
     <use xlink:href="#Arial-BoldMT-72" transform="translate(1846.636719 0)"/>
     <use xlink:href="#Arial-BoldMT-67" transform="translate(1885.552734 0)"/>
     <use xlink:href="#Arial-BoldMT-65" transform="translate(1946.636719 0)"/>
     <use xlink:href="#Arial-BoldMT-74" transform="translate(2002.251953 0)"/>
     <use xlink:href="#Arial-BoldMT-20" transform="translate(2035.552734 0)"/>
     <use xlink:href="#Arial-BoldMT-43" transform="translate(2063.335938 0)"/>
     <use xlink:href="#Arial-BoldMT-6f" transform="translate(2135.552734 0)"/>
     <use xlink:href="#Arial-BoldMT-6c" transform="translate(2196.636719 0)"/>
     <use xlink:href="#Arial-BoldMT-75" transform="translate(2224.419922 0)"/>
     <use xlink:href="#Arial-BoldMT-6d" transform="translate(2285.503906 0)"/>
     <use xlink:href="#Arial-BoldMT-6e" transform="translate(2374.419922 0)"/>
    </g>
    <!-- Total Dataset Production: 731,816 -->
    <g style="fill: #262626" transform="translate(361.679062 35.958) scale(0.16 -0.16)">
     <defs>
      <path id="Arial-BoldMT-3a" d="M 628 2441 
L 628 3319 
L 1506 3319 
L 1506 2441 
L 628 2441 
z
M 628 0 
L 628 878 
L 1506 878 
L 1506 0 
L 628 0 
z
" transform="scale(0.015625)"/>
     </defs>
     <use xlink:href="#Arial-BoldMT-54"/>
     <use xlink:href="#Arial-BoldMT-6f" transform="translate(53.708984 0)"/>
     <use xlink:href="#Arial-BoldMT-74" transform="translate(114.792969 0)"/>
     <use xlink:href="#Arial-BoldMT-61" transform="translate(148.09375 0)"/>
     <use xlink:href="#Arial-BoldMT-6c" transform="translate(203.708984 0)"/>
     <use xlink:href="#Arial-BoldMT-20" transform="translate(231.492188 0)"/>
     <use xlink:href="#Arial-BoldMT-44" transform="translate(259.275391 0)"/>
     <use xlink:href="#Arial-BoldMT-61" transform="translate(331.492188 0)"/>
     <use xlink:href="#Arial-BoldMT-74" transform="translate(387.107422 0)"/>
     <use xlink:href="#Arial-BoldMT-61" transform="translate(420.408203 0)"/>
     <use xlink:href="#Arial-BoldMT-73" transform="translate(476.023438 0)"/>
     <use xlink:href="#Arial-BoldMT-65" transform="translate(531.638672 0)"/>
     <use xlink:href="#Arial-BoldMT-74" transform="translate(587.253906 0)"/>
     <use xlink:href="#Arial-BoldMT-20" transform="translate(620.554688 0)"/>
     <use xlink:href="#Arial-BoldMT-50" transform="translate(648.337891 0)"/>
     <use xlink:href="#Arial-BoldMT-72" transform="translate(715.037109 0)"/>
     <use xlink:href="#Arial-BoldMT-6f" transform="translate(753.953125 0)"/>
     <use xlink:href="#Arial-BoldMT-64" transform="translate(815.037109 0)"/>
     <use xlink:href="#Arial-BoldMT-75" transform="translate(876.121094 0)"/>
     <use xlink:href="#Arial-BoldMT-63" transform="translate(937.205078 0)"/>
     <use xlink:href="#Arial-BoldMT-74" transform="translate(992.820312 0)"/>
     <use xlink:href="#Arial-BoldMT-69" transform="translate(1026.121094 0)"/>
     <use xlink:href="#Arial-BoldMT-6f" transform="translate(1053.904297 0)"/>
     <use xlink:href="#Arial-BoldMT-6e" transform="translate(1114.988281 0)"/>
     <use xlink:href="#Arial-BoldMT-3a" transform="translate(1176.072266 0)"/>
     <use xlink:href="#Arial-BoldMT-20" transform="translate(1209.373047 0)"/>
     <use xlink:href="#Arial-BoldMT-37" transform="translate(1237.15625 0)"/>
     <use xlink:href="#Arial-BoldMT-33" transform="translate(1292.771484 0)"/>
     <use xlink:href="#Arial-BoldMT-31" transform="translate(1348.386719 0)"/>
     <use xlink:href="#Arial-BoldMT-2c" transform="translate(1404.001953 0)"/>
     <use xlink:href="#Arial-BoldMT-38" transform="translate(1431.785156 0)"/>
     <use xlink:href="#Arial-BoldMT-31" transform="translate(1487.400391 0)"/>
     <use xlink:href="#Arial-BoldMT-36" transform="translate(1543.015625 0)"/>
    </g>
   </g>
   <g id="legend_1">
    <g id="patch_55">
     <path d="M 967.168062 73.865656 
L 989.168062 73.865656 
L 989.168062 66.165656 
L 967.168062 66.165656 
z
" style="fill: #604080; opacity: 0.8; stroke: #000000; stroke-width: 0.5; stroke-linejoin: miter"/>
    </g>
    <g id="text_46">
     <!-- tot_pv_i3p_ovest (279,645) -->
     <g style="fill: #262626" transform="translate(997.968062 73.865656) scale(0.11 -0.11)">
      <defs>
       <path id="ArialMT-5f" d="M -97 -1272 
L -97 -866 
L 3631 -866 
L 3631 -1272 
L -97 -1272 
z
" transform="scale(0.015625)"/>
       <path id="ArialMT-73" d="M 197 991 
L 753 1078 
Q 800 744 1014 566 
Q 1228 388 1613 388 
Q 2000 388 2187 545 
Q 2375 703 2375 916 
Q 2375 1106 2209 1216 
Q 2094 1291 1634 1406 
Q 1016 1563 777 1677 
Q 538 1791 414 1992 
Q 291 2194 291 2438 
Q 291 2659 392 2848 
Q 494 3038 669 3163 
Q 800 3259 1026 3326 
Q 1253 3394 1513 3394 
Q 1903 3394 2198 3281 
Q 2494 3169 2634 2976 
Q 2775 2784 2828 2463 
L 2278 2388 
Q 2241 2644 2061 2787 
Q 1881 2931 1553 2931 
Q 1166 2931 1000 2803 
Q 834 2675 834 2503 
Q 834 2394 903 2306 
Q 972 2216 1119 2156 
Q 1203 2125 1616 2013 
Q 2213 1853 2448 1751 
Q 2684 1650 2818 1456 
Q 2953 1263 2953 975 
Q 2953 694 2789 445 
Q 2625 197 2315 61 
Q 2006 -75 1616 -75 
Q 969 -75 630 194 
Q 291 463 197 991 
z
" transform="scale(0.015625)"/>
       <path id="ArialMT-28" d="M 1497 -1347 
Q 1031 -759 709 28 
Q 388 816 388 1659 
Q 388 2403 628 3084 
Q 909 3875 1497 4659 
L 1900 4659 
Q 1522 4009 1400 3731 
Q 1209 3300 1100 2831 
Q 966 2247 966 1656 
Q 966 153 1900 -1347 
L 1497 -1347 
z
" transform="scale(0.015625)"/>
       <path id="ArialMT-37" d="M 303 3981 
L 303 4522 
L 3269 4522 
L 3269 4084 
Q 2831 3619 2401 2847 
Q 1972 2075 1738 1259 
Q 1569 684 1522 0 
L 944 0 
Q 953 541 1156 1306 
Q 1359 2072 1739 2783 
Q 2119 3494 2547 3981 
L 303 3981 
z
" transform="scale(0.015625)"/>
       <path id="ArialMT-39" d="M 350 1059 
L 891 1109 
Q 959 728 1153 556 
Q 1347 384 1650 384 
Q 1909 384 2104 503 
Q 2300 622 2425 820 
Q 2550 1019 2634 1356 
Q 2719 1694 2719 2044 
Q 2719 2081 2716 2156 
Q 2547 1888 2255 1720 
Q 1963 1553 1622 1553 
Q 1053 1553 659 1965 
Q 266 2378 266 3053 
Q 266 3750 677 4175 
Q 1088 4600 1706 4600 
Q 2153 4600 2523 4359 
Q 2894 4119 3086 3673 
Q 3278 3228 3278 2384 
Q 3278 1506 3087 986 
Q 2897 466 2520 194 
Q 2144 -78 1638 -78 
Q 1100 -78 759 220 
Q 419 519 350 1059 
z
M 2653 3081 
Q 2653 3566 2395 3850 
Q 2138 4134 1775 4134 
Q 1400 4134 1122 3828 
Q 844 3522 844 3034 
Q 844 2597 1108 2323 
Q 1372 2050 1759 2050 
Q 2150 2050 2401 2323 
Q 2653 2597 2653 3081 
z
" transform="scale(0.015625)"/>
       <path id="ArialMT-2c" d="M 569 0 
L 569 641 
L 1209 641 
L 1209 0 
Q 1209 -353 1084 -570 
Q 959 -788 688 -906 
L 531 -666 
Q 709 -588 793 -436 
Q 878 -284 888 0 
L 569 0 
z
" transform="scale(0.015625)"/>
       <path id="ArialMT-36" d="M 3184 3459 
L 2625 3416 
Q 2550 3747 2413 3897 
Q 2184 4138 1850 4138 
Q 1581 4138 1378 3988 
Q 1113 3794 959 3422 
Q 806 3050 800 2363 
Q 1003 2672 1297 2822 
Q 1591 2972 1913 2972 
Q 2475 2972 2870 2558 
Q 3266 2144 3266 1488 
Q 3266 1056 3080 686 
Q 2894 316 2569 119 
Q 2244 -78 1831 -78 
Q 1128 -78 684 439 
Q 241 956 241 2144 
Q 241 3472 731 4075 
Q 1159 4600 1884 4600 
Q 2425 4600 2770 4297 
Q 3116 3994 3184 3459 
z
M 888 1484 
Q 888 1194 1011 928 
Q 1134 663 1356 523 
Q 1578 384 1822 384 
Q 2178 384 2434 671 
Q 2691 959 2691 1453 
Q 2691 1928 2437 2201 
Q 2184 2475 1800 2475 
Q 1419 2475 1153 2201 
Q 888 1928 888 1484 
z
" transform="scale(0.015625)"/>
       <path id="ArialMT-29" d="M 791 -1347 
L 388 -1347 
Q 1322 153 1322 1656 
Q 1322 2244 1188 2822 
Q 1081 3291 891 3722 
Q 769 4003 388 4659 
L 791 4659 
Q 1378 3875 1659 3084 
Q 1900 2403 1900 1659 
Q 1900 816 1576 28 
Q 1253 -759 791 -1347 
z
" transform="scale(0.015625)"/>
      </defs>
      <use xlink:href="#ArialMT-74"/>
      <use xlink:href="#ArialMT-6f" transform="translate(27.783203 0)"/>
      <use xlink:href="#ArialMT-74" transform="translate(83.398438 0)"/>
      <use xlink:href="#ArialMT-5f" transform="translate(111.181641 0)"/>
      <use xlink:href="#ArialMT-70" transform="translate(166.796875 0)"/>
      <use xlink:href="#ArialMT-76" transform="translate(222.412109 0)"/>
      <use xlink:href="#ArialMT-5f" transform="translate(272.412109 0)"/>
      <use xlink:href="#ArialMT-69" transform="translate(328.027344 0)"/>
      <use xlink:href="#ArialMT-33" transform="translate(350.244141 0)"/>
      <use xlink:href="#ArialMT-70" transform="translate(405.859375 0)"/>
      <use xlink:href="#ArialMT-5f" transform="translate(461.474609 0)"/>
      <use xlink:href="#ArialMT-6f" transform="translate(517.089844 0)"/>
      <use xlink:href="#ArialMT-76" transform="translate(572.705078 0)"/>
      <use xlink:href="#ArialMT-65" transform="translate(622.705078 0)"/>
      <use xlink:href="#ArialMT-73" transform="translate(678.320312 0)"/>
      <use xlink:href="#ArialMT-74" transform="translate(728.320312 0)"/>
      <use xlink:href="#ArialMT-20" transform="translate(756.103516 0)"/>
      <use xlink:href="#ArialMT-28" transform="translate(783.886719 0)"/>
      <use xlink:href="#ArialMT-32" transform="translate(817.1875 0)"/>
      <use xlink:href="#ArialMT-37" transform="translate(872.802734 0)"/>
      <use xlink:href="#ArialMT-39" transform="translate(928.417969 0)"/>
      <use xlink:href="#ArialMT-2c" transform="translate(984.033203 0)"/>
      <use xlink:href="#ArialMT-36" transform="translate(1011.816406 0)"/>
      <use xlink:href="#ArialMT-34" transform="translate(1067.431641 0)"/>
      <use xlink:href="#ArialMT-35" transform="translate(1123.046875 0)"/>
      <use xlink:href="#ArialMT-29" transform="translate(1178.662109 0)"/>
     </g>
    </g>
    <g id="patch_56">
     <path d="M 967.168062 89.688469 
L 989.168062 89.688469 
L 989.168062 81.988469 
L 967.168062 81.988469 
z
" style="fill: #bf7fff; opacity: 0.8; stroke: #000000; stroke-width: 0.5; stroke-linejoin: miter"/>
    </g>
    <g id="text_47">
     <!-- tot_pv_i3p_est (452,171) -->
     <g style="fill: #262626" transform="translate(997.968062 89.688469) scale(0.11 -0.11)">
      <use xlink:href="#ArialMT-74"/>
      <use xlink:href="#ArialMT-6f" transform="translate(27.783203 0)"/>
      <use xlink:href="#ArialMT-74" transform="translate(83.398438 0)"/>
      <use xlink:href="#ArialMT-5f" transform="translate(111.181641 0)"/>
      <use xlink:href="#ArialMT-70" transform="translate(166.796875 0)"/>
      <use xlink:href="#ArialMT-76" transform="translate(222.412109 0)"/>
      <use xlink:href="#ArialMT-5f" transform="translate(272.412109 0)"/>
      <use xlink:href="#ArialMT-69" transform="translate(328.027344 0)"/>
      <use xlink:href="#ArialMT-33" transform="translate(350.244141 0)"/>
      <use xlink:href="#ArialMT-70" transform="translate(405.859375 0)"/>
      <use xlink:href="#ArialMT-5f" transform="translate(461.474609 0)"/>
      <use xlink:href="#ArialMT-65" transform="translate(517.089844 0)"/>
      <use xlink:href="#ArialMT-73" transform="translate(572.705078 0)"/>
      <use xlink:href="#ArialMT-74" transform="translate(622.705078 0)"/>
      <use xlink:href="#ArialMT-20" transform="translate(650.488281 0)"/>
      <use xlink:href="#ArialMT-28" transform="translate(678.271484 0)"/>
      <use xlink:href="#ArialMT-34" transform="translate(711.572266 0)"/>
      <use xlink:href="#ArialMT-35" transform="translate(767.1875 0)"/>
      <use xlink:href="#ArialMT-32" transform="translate(822.802734 0)"/>
      <use xlink:href="#ArialMT-2c" transform="translate(878.417969 0)"/>
      <use xlink:href="#ArialMT-31" transform="translate(906.201172 0)"/>
      <use xlink:href="#ArialMT-37" transform="translate(961.816406 0)"/>
      <use xlink:href="#ArialMT-31" transform="translate(1017.431641 0)"/>
      <use xlink:href="#ArialMT-29" transform="translate(1073.046875 0)"/>
     </g>
    </g>
   </g>
  </g>
 </g>
 <defs>
  <clipPath id="pe00cd299ed">
   <rect x="64.369063" y="55.958" width="850.38" height="615.31475"/>
  </clipPath>
 </defs>
</svg>
